<?xml version="1.0" encoding="iso-8859-1"?>
<!-- Generator: Adobe Illustrator 19.0.0, SVG Export Plug-In . SVG Version: 6.00 Build 0)  -->
<svg version="1.1" id="Capa_1" xmlns="http://www.w3.org/2000/svg" xmlns:xlink="http://www.w3.org/1999/xlink" x="0px" y="0px"
	 viewBox="0 0 512 512" style="enable-background:new 0 0 512 512;" xml:space="preserve">
<path style="fill:#704B00;" d="M256,181.421c-6.701,0-12.134-5.433-12.134-12.134V46.649c0-6.701,5.433-12.134,12.134-12.134
	c6.701,0,12.134,5.433,12.134,12.134v122.637C268.134,175.988,262.701,181.421,256,181.421z"/>
<path style="fill:#F89021;" d="M490.875,477.486H21.125c-7.525,0-13.625-6.1-13.625-13.625v-42.57c0-7.525,6.1-13.625,13.625-13.625
	h469.751c7.525,0,13.625,6.1,13.625,13.625v42.57C504.5,471.386,498.4,477.486,490.875,477.486z"/>
<path style="opacity:0.3;fill:#FFFFFF;enable-background:new    ;" d="M491.881,407.667H20.119c-6.969,0-12.619,6.586-12.619,14.711
	v8.336h497v-8.336C504.5,414.253,498.85,407.667,491.881,407.667z"/>
<path style="fill:#704B00;" d="M476.136,340.47H35.864c-7.149,0-12.945,5.796-12.945,12.945v41.307
	c0,7.149,5.796,12.945,12.945,12.945h440.272c7.149,0,12.945-5.796,12.945-12.945v-41.307
	C489.081,346.266,483.285,340.47,476.136,340.47z"/>
<path style="opacity:0.15;enable-background:new    ;" d="M323.596,407.667l-27.499,36.692c-22.449,29.953-57.745,29.953-80.194,0
	l-27.499-36.692L323.596,407.667L323.596,407.667z"/>
<path style="fill:#F8CF32;" d="M479.211,340.47H32.789c-5.451,0-9.87-4.419-9.87-9.87v-19.322c0-5.451,4.419-9.87,9.87-9.87h446.422
	c5.451,0,9.87,4.419,9.87,9.87V330.6C489.081,336.051,484.662,340.47,479.211,340.47z"/>
<path style="fill:#F89021;" d="M490.318,301.408c8.09,0,14.26-7.099,13.311-15.134C494.134,205.941,407.272,163.307,256,163.307
	S17.866,205.941,8.371,286.275c-0.95,8.034,5.221,15.134,13.311,15.134L490.318,301.408L490.318,301.408z"/>
<path style="opacity:0.15;enable-background:new    ;" d="M490.875,407.667h-29c7.525,0,13.625,6.1,13.625,13.625v42.57
	c0,7.525-6.1,13.625-13.625,13.625h29c7.525,0,13.625-6.1,13.625-13.625v-42.57C504.5,413.767,498.4,407.667,490.875,407.667z"/>
<path style="opacity:0.15;enable-background:new    ;" d="M476.136,340.47h-29c7.149,0,12.945,5.796,12.945,12.945v41.307
	c0,7.149-5.796,12.945-12.945,12.945h29c7.149,0,12.945-5.796,12.945-12.945v-41.307C489.081,346.266,483.285,340.47,476.136,340.47
	z"/>
<path style="opacity:0.15;enable-background:new    ;" d="M503.629,286.275C494.134,205.941,407.272,163.307,256,163.307
	c-4.902,0-9.734,0.047-14.5,0.136c142.317,2.669,223.942,45.101,233.129,122.832c0.949,8.034-5.221,15.134-13.311,15.134h29
	C498.408,301.409,504.579,294.309,503.629,286.275z"/>
<path style="opacity:0.15;enable-background:new    ;" d="M449.714,338.415l-10.709-37.007H72.995l-10.709,37.007
	c-6.896,23.829,12.611,46.161,30.546,34.97L108.9,363.36c10.924-6.816,24.13-1.154,29.57,12.68l0,0
	c5.926,15.069,20.873,20.19,31.957,10.949l28.145-23.463c8.734-7.281,20.283-5.817,27.713,3.512l14.149,17.766
	c8.627,10.832,22.505,10.832,31.131,0l14.149-17.766c7.43-9.329,18.98-10.793,27.713-3.512l28.145,23.463
	c11.084,9.24,26.031,4.119,31.957-10.949l0,0c5.44-13.834,18.646-19.496,29.57-12.68l16.067,10.025
	C437.103,384.576,456.609,362.244,449.714,338.415z"/>
<path style="fill:#1BC56E;" d="M449.714,330.532l-10.709-29.123H72.995l-10.709,29.124c-6.896,18.753,12.611,36.327,30.546,27.521
	l16.068-7.89c10.924-5.364,24.13-0.908,29.57,9.979l0,0c5.926,11.859,20.873,15.889,31.957,8.617l28.145-18.465
	c8.734-5.73,20.283-4.578,27.713,2.764l14.149,13.982c8.627,8.524,22.505,8.524,31.131,0l14.149-13.982
	c7.43-7.342,18.98-8.494,27.713-2.764l28.145,18.465c11.084,7.272,26.031,3.242,31.957-8.617l0,0
	c5.44-10.887,18.646-15.343,29.57-9.979l16.067,7.89C437.103,366.859,456.609,349.285,449.714,330.532z"/>
<path style="fill:#F8CF32;" d="M323.596,407.667l-27.5,26.213c-22.449,21.399-57.745,21.399-80.193,0l-27.5-26.213H323.596z"/>
<g style="opacity:0.15;">
	<path d="M121.769,253.631c-4.143,0-7.5-3.357-7.5-7.5v-13.132c0-4.143,3.357-7.5,7.5-7.5s7.5,3.357,7.5,7.5v13.132
		C129.269,250.274,125.911,253.631,121.769,253.631z"/>
	<path d="M161.923,221.334c-4.143,0-7.5-3.357-7.5-7.5v-13.132c0-4.143,3.357-7.5,7.5-7.5s7.5,3.357,7.5,7.5v13.132
		C169.423,217.977,166.065,221.334,161.923,221.334z"/>
	<path d="M199.005,269.726c-4.143,0-7.5-3.357-7.5-7.5v-13.133c0-4.143,3.357-7.5,7.5-7.5s7.5,3.357,7.5,7.5v13.133
		C206.505,266.368,203.148,269.726,199.005,269.726z"/>
	<path d="M239.142,227.9c-4.143,0-7.5-3.357-7.5-7.5v-13.132c0-4.143,3.357-7.5,7.5-7.5s7.5,3.357,7.5,7.5V220.4
		C246.642,224.543,243.284,227.9,239.142,227.9z"/>
	<path d="M287.533,266.122c-4.143,0-7.5-3.357-7.5-7.5v-13.133c0-4.143,3.357-7.5,7.5-7.5s7.5,3.357,7.5,7.5v13.133
		C295.033,262.765,291.676,266.122,287.533,266.122z"/>
	<path d="M319.45,221.334c-4.143,0-7.5-3.357-7.5-7.5v-13.132c0-4.143,3.357-7.5,7.5-7.5s7.5,3.357,7.5,7.5v13.132
		C326.95,217.977,323.593,221.334,319.45,221.334z"/>
	<path d="M354.457,269.726c-4.142,0-7.5-3.357-7.5-7.5v-13.133c0-4.143,3.358-7.5,7.5-7.5c4.143,0,7.5,3.357,7.5,7.5v13.133
		C361.957,266.368,358.6,269.726,354.457,269.726z"/>
	<path d="M389.463,234.467c-4.143,0-7.5-3.357-7.5-7.5v-13.133c0-4.143,3.357-7.5,7.5-7.5s7.5,3.357,7.5,7.5v13.133
		C396.963,231.109,393.605,234.467,389.463,234.467z"/>
	<path d="M426.528,269.726c-4.143,0-7.5-3.357-7.5-7.5v-13.133c0-4.143,3.357-7.5,7.5-7.5s7.5,3.357,7.5,7.5v13.133
		C434.028,266.368,430.671,269.726,426.528,269.726z"/>
	<path d="M75.951,275.515c-4.143,0-7.5-3.357-7.5-7.5v-13.133c0-4.143,3.357-7.5,7.5-7.5s7.5,3.357,7.5,7.5v13.133
		C83.451,272.157,80.094,275.515,75.951,275.515z"/>
</g>
<path style="fill:#1BC56E;" d="M339.945,90.839l-71.811,28.147V47.621l71.811,28.147C346.291,78.255,346.291,88.352,339.945,90.839z
	"/>
<polygon style="opacity:0.15;enable-background:new    ;" points="268.134,47.621 268.134,118.986 288.008,111.197 288.008,55.411 
	"/>
<path d="M495.675,400.738c0.587-1.903,0.906-3.923,0.906-6.017v-41.307c0-4.448-1.444-8.556-3.865-11.915
	c2.412-2.983,3.865-6.773,3.865-10.899v-19.322c0-1.11-0.115-2.192-0.315-3.245c3.684-1.098,7.037-3.197,9.639-6.126
	c3.996-4.495,5.881-10.514,5.172-16.514c-5.034-42.593-30.19-75.38-74.768-97.45c-39.322-19.468-93.314-30.17-160.675-31.887
	v-31.955l67.049-26.281c5.784-2.267,9.522-7.966,9.522-14.518c0-6.552-3.737-12.251-9.522-14.518l-67.548-26.476
	c-1.983-8.742-9.801-15.294-19.134-15.294c-10.826,0-19.634,8.808-19.634,19.634v109.414c-39.798,1.023-75.171,5.193-105.351,12.454
	c-4.027,0.969-6.507,5.019-5.538,9.046s5.019,6.505,9.046,5.538c33.912-8.158,74.782-12.295,121.477-12.295
	c4.093,0,8.129,0.037,12.125,0.099c0.003,0,0.006,0.001,0.009,0.001c0.002,0,0.003,0,0.005,0
	c68.49,1.072,122.79,11.31,161.514,30.481c39.743,19.677,62.126,48.533,66.527,85.768c0.21,1.774-0.318,3.475-1.487,4.789
	c-0.651,0.734-2.087,1.965-4.375,1.965H21.682c-2.288,0-3.724-1.23-4.375-1.965c-1.169-1.315-1.697-3.015-1.487-4.789
	c5.209-44.071,35.421-76.219,89.797-95.548c3.903-1.387,5.942-5.676,4.555-9.578c-1.387-3.904-5.677-5.945-9.578-4.555
	c-29.453,10.469-52.832,24.806-69.488,42.613c-17.062,18.24-27.216,40.213-30.182,65.308c-0.709,6,1.176,12.019,5.172,16.514
	c2.602,2.929,5.955,5.028,9.639,6.126c-0.2,1.052-0.315,2.135-0.315,3.245v19.322c0,4.126,1.452,7.916,3.865,10.899
	c-2.421,3.359-3.865,7.467-3.865,11.915v41.307c0,2.093,0.319,4.113,0.906,6.017C6.985,402.92,0,411.297,0,421.292v42.569
	c0,11.648,9.477,21.125,21.125,21.125h469.75c11.648,0,21.125-9.477,21.125-21.125v-42.569
	C512,411.297,505.015,402.92,495.675,400.738z M275.634,58.616L337.1,82.708c0.142,0.288,0.142,0.902,0,1.19l-61.466,24.093V58.616z
	 M260.634,155.827c-1.542-0.009-3.079-0.021-4.634-0.021c-1.556,0-3.09,0.017-4.634,0.026V46.649c0-2.555,2.079-4.634,4.634-4.634
	c2.555,0,4.634,2.079,4.634,4.634V155.827z M479.211,308.908c1.307,0,2.37,1.064,2.37,2.37v19.323c0,1.307-1.063,2.369-2.37,2.369
	c-0.393,0-0.775,0.039-1.152,0.097c-0.634-0.059-1.274-0.097-1.923-0.097h-18.012c-0.315-1.681-0.759-3.361-1.371-5.025l-7-19.036
	L479.211,308.908L479.211,308.908z M69.325,333.12l8.903-24.212h355.544l8.903,24.213c2.521,6.857-0.384,12.727-3.942,15.934
	c-3.559,3.208-9.698,5.487-16.259,2.266l-16.067-7.89c-14.571-7.154-32.329-1.161-39.585,13.358
	c-1.895,3.793-5.194,6.49-9.288,7.595c-4.093,1.103-8.302,0.43-11.846-1.896l-28.146-18.465
	c-11.616-7.621-27.218-6.063-37.099,3.699l-14.149,13.982c-5.676,5.609-14.912,5.609-20.588,0l-14.15-13.982
	c-9.88-9.763-25.482-11.32-37.099-3.699l-28.145,18.465c-3.544,2.327-7.75,2.998-11.845,1.896c-4.095-1.105-7.394-3.801-9.289-7.595
	c-7.256-14.52-25.012-20.514-39.585-13.358l-16.067,7.89c-6.56,3.221-12.699,0.942-16.259-2.266
	C69.709,345.849,66.804,339.979,69.325,333.12z M30.419,311.278c0-1.307,1.064-2.37,2.37-2.37h29.458l-7,19.036
	c-0.612,1.665-1.056,3.344-1.371,5.025H35.864c-0.649,0-1.289,0.038-1.923,0.097c-0.376-0.058-0.759-0.097-1.152-0.097
	c-1.307,0-2.37-1.063-2.37-2.369C30.419,330.6,30.419,311.278,30.419,311.278z M497,463.861c0,3.377-2.748,6.125-6.125,6.125H21.125
	c-3.377,0-6.125-2.748-6.125-6.125v-42.569c0-3.377,2.748-6.125,6.125-6.125h164.277l25.327,24.142
	c12.694,12.101,28.98,18.149,45.271,18.149c16.287,0,32.58-6.052,45.272-18.149l25.327-24.142h44.571c4.143,0,7.5-3.357,7.5-7.5
	s-3.357-7.5-7.5-7.5H35.864c-3.003,0-5.445-2.442-5.445-5.445v-41.307c0-3.003,2.442-5.445,5.445-5.445h19.135
	c1.609,4.555,4.37,8.754,8.228,12.229c9.193,8.282,21.805,10.04,32.91,4.586l16.067-7.89c7.199-3.533,15.973-0.575,19.556,6.599
	c3.782,7.567,10.635,13.17,18.803,15.372c8.165,2.201,16.906,0.804,23.977-3.837l28.145-18.465
	c5.739-3.765,13.446-2.995,18.327,1.828l14.149,13.982c5.745,5.678,13.29,8.517,20.837,8.516c7.545-0.001,15.093-2.84,20.837-8.516
	l14.149-13.982c4.881-4.823,12.589-5.594,18.327-1.828l28.146,18.465c7.072,4.641,15.81,6.038,23.979,3.837
	c8.167-2.202,15.02-7.806,18.801-15.372c3.585-7.172,12.356-10.133,19.556-6.599l16.067,7.89c11.107,5.452,23.717,3.697,32.91-4.586
	c3.858-3.476,6.619-7.674,8.228-12.229h19.135c3.003,0,5.445,2.442,5.445,5.445v41.307c0,3.003-2.442,5.445-5.445,5.445h-77.269
	c-4.143,0-7.5,3.357-7.5,7.5s3.357,7.5,7.5,7.5h92.008c3.377,0,6.125,2.748,6.125,6.125v42.569H497z M207.142,415.167h97.717
	l-13.936,13.284c-19.582,18.666-50.262,18.666-69.844,0L207.142,415.167z"/>
<path style="opacity:0.15;enable-background:new    ;" d="M479.211,301.409H32.789c-5.451,0-9.87,4.419-9.87,9.87v6.601h429.086
	c10.87,0,12.87,4.419,12.87,9.87v12.721h14.336c5.451,0,9.87-4.419,9.87-9.87v-19.322
	C489.081,305.827,484.662,301.409,479.211,301.409z"/>
<g>
</g>
<g>
</g>
<g>
</g>
<g>
</g>
<g>
</g>
<g>
</g>
<g>
</g>
<g>
</g>
<g>
</g>
<g>
</g>
<g>
</g>
<g>
</g>
<g>
</g>
<g>
</g>
<g>
</g>
</svg>
