<?xml version="1.0" encoding="utf-8"?>
<!-- Generator: Adobe Illustrator 21.0.0, SVG Export Plug-In . SVG Version: 6.00 Build 0)  -->
<svg version="1.1" id="Layer_1" xmlns="http://www.w3.org/2000/svg" xmlns:xlink="http://www.w3.org/1999/xlink" x="0px" y="0px"
	 viewBox="0 0 591 292" style="enable-background:new 0 0 591 292;" xml:space="preserve">
 <style type="text/css">
 	.st0{
		stroke:#000000;
		stroke-miterlimit:10;
	 	fill: #FFFFFF;
	}
 </style>
<g transform="translate(0.000000,292.000000) scale(0.100000,-0.100000)">
	<path class="st0" d="M2336,2703c-4-5-139-10-299-13l-292-5l-3-100c-2-76,1-105,12-120c23-31,50-8,54,43c3,34,8,43,26,48c30,7,373,1,381-8
		c14-14-438-667-463-668c-14,0-32-40-32-70c0-19,9-19,248-13c153,3,283,1,342-6c52-6,97-7,101-3s9,71,13,150c5,135,5,142-13,142
		c-30,0-48-25-55-78c-11-87-3-84-241-83c-115,1-210,3-211,4c-5,5,236,358,364,535c73,101,136,190,139,198
		C2418,2686,2359,2725,2336,2703z"/>
	<path class="st0" d="M4250,2585v-105h40h39l3,58l3,57l103,3l102,3v-355c0-273-3-357-12-363c-7-4-38-12-68-18c-52-9-55-12-55-40v-30l198-1h198
		l6,24c7,29-6,39-62,47c-83,13-75-26-75,376v359h84c94,0,96-1,96-76v-45l37,3l36,3v70c-1,39-1,85-2,103l-1,32h-335h-335V2585z"/>
	<path class="st0" d="M2846,2525c-13-10-32-12-62-8c-64,8-109-25-183-138c-101-154-151-296-151-434c0-92,19-142,62-163c63-30,130,23,199,157
		l50,96l-6-95c-3-52-8-110-11-127c-8-44,15-52,58-22c18,13,55,31,83,41c44,15,50,20,50,45c0,24-4,29-35,33l-35,5l-3,60
		c-1,33,6,170,17,305c11,134,17,248,15,252C2886,2544,2867,2541,2846,2525z M2774,2424c32-85-57-381-143-473c-37-39-48-39-59,2
		c-25,90,57,358,137,450C2745,2443,2764,2449,2774,2424z"/>
	<path class="st0" d="M5216,2525c-13-10-32-12-62-8c-64,8-109-25-183-138c-101-154-151-296-151-434c0-91,19-143,60-162c64-30,132,22,201,156
		l50,96l-6-90c-3-49-8-106-11-127c-8-49,13-59,58-27c18,13,55,31,83,41c44,15,50,20,50,45c0,24-4,29-35,33c-34,5-35,6-38,55
		c-2,28,4,149,13,270c23,297,23,299,5,302C5242,2538,5226,2533,5216,2525z M5146,2414c26-102-75-407-157-476c-30-25-37-23-48,18
		c-25,91,57,354,140,449C5118,2447,5137,2449,5146,2414z"/>
	<path class="st0" d="M3157,2516c-91-33-162-113-191-216c-25-90-37-228-26-311c11-89,16-104,47-147c36-48,76-65,145-60c50,4,63,9,93,38
		c54,52,85,123,85,192c0,42-4,58-13,58c-20,0-42-30-57-79c-15-48-68-111-93-111c-27,0-65,57-78,117c-13,65-7,253,11,318
		c21,77,42,115,68,122c29,7,42-9,42-53c0-17,3-46,6-63c6-30,9-31,55-31h49v105v104l-30,16C3235,2533,3207,2533,3157,2516z"/>
	<path class="st0" d="M3764,2520c-11-4-34-24-52-44c-76-87-113-213-113-391c0-237,52-311,215-306c32,1,46,8,78,41c52,55,75,105,83,177
		c12,102-39,92-72-14c-54-171-181-119-200,81l-5,62l78,18c166,39,168,41,168,191c0,136-39,196-127,194
		C3799,2529,3776,2525,3764,2520z M3817,2452c24-15,35-66,28-134c-8-79-24-98-91-106l-47-5l7,63c9,76,41,166,64,180
		C3799,2462,3802,2462,3817,2452z"/>
	<path class="st0" d="M5527,2516c-90-33-162-113-191-214c-25-88-38-239-26-320c13-92,29-131,69-165c40-33,68-41,132-35c60,6,106,45,144,122
		c29,57,36,166,12,166c-21,0-44-31-58-79c-14-47-67-111-92-111c-26,0-65,56-76,110c-36,166,17,450,83,450c26,0,36-17,36-60
		c0-15,3-42,6-59c6-30,9-31,55-31h49v105v104l-30,16C5605,2533,5577,2533,5527,2516z"/>
	<path class="st0" d="M1635,2421c-113-41-199-93-272-165c-84-84-96-116-95-251c1-127,37-221,136-354c41-54,231-218,287-247c31-16,49-47,42-74
		c-6-24-61-56-136-80c-71-23-71-23-267-4c-64,6-66,5-126-35c-34-23-69-41-78-41c-10,0-59,41-109,91c-51,50-116,107-146,126l-53,34
		l27,29c27,28,27,30,20,122c-6,91-6,94,19,117c37,34,34,74-5,102c-41,29-61,78-68,168c-7,89-19,101-80,81c-35-11-46-11-86,4
		c-34,14-46,24-51,44c-28,132-49,146-204,136c-80-5-116-12-156-31c-68-32-126-82-169-147c-51-77-65-126-65-227c0-77,4-98,29-153
		c41-90,82-107,163-65c39,20,42,20,78,4c21-10,55-34,75-55c35-36,37-42,31-81c-6-37-5-41,11-34c39,16,51,16,86,2c20-9,60-33,89-55
		s71-49,93-61s55-33,73-46c32-23,188-180,266-267c71-79,48-23-53,128c-54,82-102,159-106,172c-8,27,9,29,46,4c41-26,338-364,345-391
		c6-19,0-30-27-52c-30-25-43-28-100-29c-133,0-204,50-288,205c-28,51-64,100-102,136c-57,54-175,123-254,149c-45,14-75,37-75,57
		c0,32-28,8-58-49c-64-126-120-318-137-463c-12-114,22-398,59-487c9-21,16-66,16-102c0-65,0-65,56-125c33-37,54-67,52-78
		c-2-10-22-28-46-41c-23-13-42-28-42-33s221-9,554-9h554l5,32c3,18,4,74,3,124c-1,69-5,96-19,115c-51,70-97,146-97,161
		c0,45,27,71,145,141c109,64,228,142,353,231c178,127,436,236,560,236c57,0,100,24,118,65c22,53,40,58,129,35c116-30,379-68,650-96
		c186-18,662-21,832-4c344,34,650,97,916,191c152,53,417,181,532,257c192,126,286,221,349,351c40,84,41,88,41,191
		c0,144-28,220-81,220c-30,0-32-10-27-115c6-115-9-232-37-290c-36-74-110-146-259-249c-302-209-554-304-1021-386c-36-6-85-15-110-20
		s-85-11-135-15c-49-3-133-8-185-12c-178-13-719-5-847,12c-171,22-200,33-91,34c148,2,231,31,214,77c-5,14-17,15-89,10
		c-136-12-268-8-345,8c-40,9-89,16-108,16c-32,0-35-2-29-22c10-33,17-38,77-59l53-19l-50,5c-27,3-72,10-100,15c-27,5-79,14-115,20
		c-76,13-362,91-356,97c2,2,31-3,64-11c72-19,233-21,250-4c29,29,7,78-35,78c-12,0-57,9-100,19c-43,11-125,31-182,45
		c-68,17-134,42-190,72c-95,50-144,56-149,17c-5-32,42-77,133-128c44-25,76-45,72-45c-25,0-212,82-337,146c-174,91-244,138-330,224
		c-157,157-165,297-23,450c41,45,75,68,158,109c57,29,107,57,111,62c6,11-4,49-14,48C1688,2439,1663,2431,1635,2421z M449,2188
		c55-12,71-32,41-48c-15-8-20-21-20-50c0-28-4-40-14-40c-25,0-74-49-81-80c-10-46-36-55-91-30c-56,24-54,24-54,3c1-10,14-34,30-53
		c37-42,38-78,4-115c-26-28-47-29-132-8c-36,9-27-21,15-48c46-30,50-59,10-74c-26-9-32-6-62,27c-40,43-55,92-55,173
		c1,70,15,114,61,191c37,62,93,105,179,141C342,2203,377,2205,449,2188z M590,1995c0-6-32-52-71-101c-40-49-85-118-101-154
		c-17-36-41-77-55-92c-24-25-28-26-53-13c-48,25-53,69-14,106c14,13,44,62,67,107c41,86,110,160,159,173C549,2028,590,2012,590,1995
		z M420,1240c-24-45-100-45-100,0c0,18,7,20,55,20C428,1260,430,1259,420,1240z M2000,1202c0-65-78-164-162-208c-17-9-63-20-102-25
		s-87-15-106-23c-142-56-148-58-172-45c-31,16-29,14-22,33c10,25,215,207,250,222c18,7,67,21,109,29c43,9,98,25,124,35
		C1990,1249,2000,1247,2000,1202z M2947,1214c-3-3-12-4-19-1c-8,3-5,6,6,6C2945,1220,2951,1217,2947,1214z M1335,1157
		c33-72,43-158,20-180c-24-25-48-7-75,55c-28,65-35,115-21,151C1277,1229,1307,1219,1335,1157z M630,1144c72-25,79-54,25-97l-36-29
		l-104,32c-57,17-109,29-115,25c-19-12-10-43,18-63c20-15,49-21,115-24c71-4,93-9,118-27c17-13,52-26,77-30c35-4,48-11,50-25
		c6-28-15-36-93-35c-91,0-164,19-247,64c-72,38-85,33-42-18c45-54,192-137,242-137c16,0,46,7,65,15c45,19,104,19,159,1
		c24-8,85-17,137-21c147-11,164-41,117-204c-28-97-41-116-32-46c18,148,19,155,7,155c-19,0-54-91-55-144c-2-94-39-64-89,70
		c-22,59-38,90-50,92c-28,6-21-26,42-179c51-125,57-146,45-159c-13-13-20-12-60,9c-65,35-126,92-170,159c-49,77-87,102-164,109
		c-50,5-65,11-91,37c-17,17-40,49-51,71c-22,42-73,108-146,188c-42,46-44,51-38,93c13,99,68,132,221,133C551,1160,600,1154,630,1144
		z M297,870c26-29,104-157,192-317c38-68,79-127,105-151c39-36,50-40,132-52c116-16,132-23,174-70c19-22,50-45,69-50
		c29-8,36-6,54,14c20,23,22,23,54,8c26-12,40-14,62-6c16,7,37,7,50,2c15-5,29-3,44,7c12,8,32,15,46,15c24,0,24-1,17-72
		c-7-79-12-88-64-120c-40-24-87-25-507-10l-180,7l-70,47c-112,75-195,187-151,204c22,8,95-22,128-53c21-20,41-27,85-31
		c36-3,69-12,87-25c16-11,51-22,78-25c45-4,50-3,46,14c-2,13-55,45-178,105c-196,97-214,113-278,237c-53,103-72,174-72,269
		C220,929,235,939,297,870z M1310,813c0-21-9-58-20-82c-16-35-19-56-14-106c6-59,5-63-15-70c-28-9-45,12-66,80c-23,72-30,142-16,159
		c6,7,32,19,56,26c25,7,48,17,51,21C1298,861,1310,847,1310,813z M605,567c8-13,18-38,21-55c6-29,5-32-14-25c-39,15-72,52-72,81
		c0,16,3,32,6,35C556,612,588,592,605,567z M712,515c24-51,25-55,7-55c-22,0-46,34-55,78C653,590,682,577,712,515z M1195,490
		c0-18-33-26-47-12c-6,6-7,15-3,22C1155,516,1195,508,1195,490z"/>
	<path class="st0" d="M1413,2073c-11-16-19-52-21-94c-4-56,0-77,21-123s30-56,50-56c36,0,38,19,10,85c-23,53-25,69-19,138c5,65,4,77-9,77
		C1437,2100,1423,2088,1413,2073z"/>
	<path class="st0" d="M4653,1468c-45-22-21-68,34-68c39,0,60,28,43,60C4718,1482,4688,1485,4653,1468z"/>
	<path class="st0" d="M4160,1411c-29-17-205-60-280-69c-41-5-112-7-157-4c-79,4-83,4-83-16c0-73,217-80,442-14c48,13,96,33,108,44
		c24,22,26,53,4,62C4175,1421,4179,1421,4160,1411z"/>
	<path class="st0" d="M4528,1365c-54-30-211-65-288-65c-41,0-82-5-90-10c-23-15,0-43,44-54c54-14,233,17,326,57c65,28,75,36,78,60
		c3,23,0,27-20,27C4565,1379,4543,1373,4528,1365z"/>
</g>
</svg>
