<?xml version="1.0" encoding="iso-8859-1"?>
<!-- Generator: Adobe Illustrator 19.0.0, SVG Export Plug-In . SVG Version: 6.00 Build 0)  -->
<svg version="1.1" id="Layer_1" xmlns="http://www.w3.org/2000/svg" xmlns:xlink="http://www.w3.org/1999/xlink" x="0px" y="0px"
	 viewBox="0 0 512 512" style="enable-background:new 0 0 512 512;" xml:space="preserve">
<path style="fill:#FEBE2D;" d="M407.029,53.73h-33.911c-2.965,0-5.39,2.425-5.39,5.39v30.164c0-2.964-2.425-5.39-5.39-5.39h-33.913
	c-2.964,0-5.39,2.425-5.39,5.39V35.562c0-2.964-2.425-5.39-5.39-5.39h-33.907c-2.964,0-5.39,2.425-5.39,5.39V5.39
	c0-2.964-2.424-5.39-5.389-5.39h-33.909c-2.965,0-5.39,2.425-5.39,5.39v25.027c0-2.964-2.425-5.39-5.39-5.39h-33.913
	c-2.964,0-5.39,2.425-5.39,5.39v28.702c0-2.964-2.425-5.39-5.39-5.39h-33.913c-2.964,0-5.39,2.425-5.39,5.39v30.164
	c0-2.964-2.424-5.39-5.39-5.39h-33.911c-2.964,0-5.389,2.425-5.389,5.39v201.235c0,2.963,2.424,5.389,5.389,5.389h16.958v41.515
	c0,2.964,2.425,5.389,5.39,5.389h33.906c2.964,0,5.389-2.424,5.389-5.389v-23.558c0,2.964,2.425,5.39,5.39,5.39h33.914
	c2.963,0,5.389-2.425,5.389-5.39V287.95c0,2.963,2.425,5.389,5.39,5.389h33.911c2.964,0,5.39-2.425,5.39-5.389v25.913
	c0,2.964,2.425,5.39,5.39,5.39h33.913c2.964,0,5.39-2.425,5.39-5.39v23.558c0,2.964,2.425,5.389,5.389,5.389h33.912
	c2.964,0,5.389-2.424,5.389-5.389v-16.849c0,2.964,2.425,5.39,5.39,5.39h33.91c2.964,0,5.39-2.425,5.39-5.39v-54.829h16.957
	c2.964,0,5.389-2.424,5.389-5.389V59.119C412.417,56.155,409.993,53.73,407.029,53.73z"/>
<path style="fill:#EAA824;" d="M188.968,30.417c0-2.964,2.425-5.39,5.39-5.39h33.913c2.964,0,5.39,2.425,5.39,5.39v201.236
	c0,2.963-2.425,5.389-5.39,5.389h-33.913c-2.964,0-5.39-2.425-5.39-5.389V30.417z"/>
<path style="fill:#FEBE2D;" d="M144.274,59.119c0-2.964,2.425-5.39,5.39-5.39h33.913c2.964,0,5.39,2.425,5.39,5.39v201.237
	c0,2.964-2.425,5.389-5.39,5.389h-33.913c-2.964,0-5.39-2.424-5.39-5.389L144.274,59.119L144.274,59.119z"/>
<g>
	<path style="fill:#FEE12D;" d="M99.585,89.283c0-2.964,2.424-5.39,5.389-5.39h33.911c2.965,0,5.39,2.425,5.39,5.39v201.235
		c0,2.963-2.424,5.389-5.39,5.389h-33.911c-2.964,0-5.389-2.425-5.389-5.389C99.585,290.518,99.585,89.283,99.585,89.283z"/>
	<path style="fill:#FEE12D;" d="M233.66,5.39c0-2.964,2.424-5.39,5.39-5.39h33.909c2.964,0,5.389,2.425,5.389,5.39v201.236
		c0,2.964-2.424,5.389-5.389,5.389H239.05c-2.965,0-5.39-2.424-5.39-5.389V5.39z"/>
</g>
<path style="fill:#FEBE2D;" d="M278.348,35.562c0-2.964,2.425-5.39,5.39-5.39h33.907c2.964,0,5.39,2.425,5.39,5.39v201.235
	c0,2.964-2.425,5.39-5.39,5.39h-33.907c-2.964,0-5.39-2.425-5.39-5.39V35.562z"/>
<path style="fill:#FEE12D;" d="M367.728,59.119c0-2.964,2.424-5.39,5.39-5.39h33.911c2.964,0,5.389,2.425,5.389,5.39v201.237
	c0,2.964-2.424,5.389-5.389,5.389h-33.911c-2.965,0-5.39-2.424-5.39-5.389V59.119z"/>
<path style="fill:#EAA824;" d="M323.034,89.283c0-2.964,2.425-5.39,5.39-5.39h33.913c2.964,0,5.39,2.425,5.39,5.39v201.235
	c0,2.963-2.425,5.389-5.39,5.389h-33.913c-2.964,0-5.39-2.425-5.39-5.389V89.283z"/>
<path style="fill:#FEBE2D;" d="M255.999,287.951c0,2.963-2.425,5.389-5.39,5.389h-33.911c-2.964,0-5.39-2.425-5.39-5.389V86.716
	c0-2.964,2.425-5.39,5.39-5.39h33.911c2.964,0,5.39,2.425,5.39,5.39V287.951z"/>
<path style="fill:#EAA824;" d="M300.692,313.864c0,2.964-2.425,5.39-5.39,5.39H261.39c-2.964,0-5.39-2.425-5.39-5.39V112.627
	c0-2.964,2.425-5.39,5.39-5.39h33.913c2.964,0,5.39,2.425,5.39,5.39V313.864z"/>
<path style="fill:#FEE12D;" d="M345.382,337.423c0,2.964-2.424,5.389-5.389,5.389h-33.912c-2.963,0-5.389-2.424-5.389-5.389V136.189
	c0-2.964,2.425-5.39,5.389-5.39h33.912c2.964,0,5.389,2.425,5.389,5.39V337.423z"/>
<path style="fill:#FEBE2D;" d="M390.072,320.574c0,2.964-2.425,5.39-5.39,5.39h-33.91c-2.964,0-5.39-2.425-5.39-5.39V119.339
	c0-2.964,2.425-5.39,5.39-5.39h33.91c2.964,0,5.39,2.425,5.39,5.39V320.574z"/>
<path style="fill:#FEE12D;" d="M211.308,313.864c0,2.964-2.425,5.39-5.389,5.39h-33.914c-2.964,0-5.39-2.425-5.39-5.39V112.627
	c0-2.964,2.425-5.39,5.39-5.39h33.914c2.963,0,5.389,2.425,5.389,5.39V313.864z"/>
<path style="fill:#EAA824;" d="M166.615,337.423c0,2.964-2.424,5.389-5.389,5.389h-33.906c-2.964,0-5.39-2.424-5.39-5.389V136.189
	c0-2.964,2.425-5.39,5.39-5.39h33.906c2.964,0,5.389,2.425,5.389,5.39V337.423z"/>
<path style="fill:#E02424;" d="M134.702,512c-3.936,0-7.336-2.699-8.145-6.469L60.455,198.01c-0.517-2.404,0.101-4.905,1.68-6.813
	c1.58-1.905,3.956-3.013,6.465-3.013h67.377c3.645,0,6.863,2.319,7.949,5.725c15.36,48.248,60.4,80.663,112.075,80.663
	s96.715-32.415,112.076-80.663c1.085-3.406,4.303-5.725,7.947-5.725H443.4c2.508,0,4.885,1.109,6.466,3.013
	c1.579,1.907,2.197,4.408,1.679,6.813l-66.109,307.521c-0.809,3.77-4.209,6.469-8.145,6.469L134.702,512L134.702,512z"/>
<path style="fill:#0853A4;" d="M116.845,460.351l9.712,45.179c0.809,3.77,4.209,6.469,8.145,6.469h242.592
	c3.936,0,7.336-2.699,8.145-6.469l9.713-45.179H116.845z"/>
<g style="opacity:0.1;">
	<path d="M160.423,505.531L94.322,198.01c-0.517-2.404,0.101-4.905,1.68-6.813c1.58-1.905,3.956-3.013,6.465-3.013H68.6
		c-2.508,0-4.885,1.109-6.465,3.013c-1.58,1.907-2.198,4.408-1.68,6.813l66.102,307.521c0.809,3.77,4.209,6.469,8.145,6.469h33.866
		C164.633,512,161.233,509.301,160.423,505.531z"/>
</g>
<circle style="fill:#FFFFFF;" cx="256.001" cy="365.328" r="65.055"/>
<path style="opacity:0.1;enable-background:new    ;" d="M213.199,365.333c0-32.134,23.305-58.808,53.929-64.09
	c-3.618-0.624-7.332-0.968-11.127-0.968c-35.928,0-65.056,29.128-65.056,65.057c0,35.929,29.129,65.055,65.056,65.055
	c3.796,0,7.509-0.344,11.127-0.968C236.504,424.139,213.199,397.466,213.199,365.333z"/>
<g>
</g>
<g>
</g>
<g>
</g>
<g>
</g>
<g>
</g>
<g>
</g>
<g>
</g>
<g>
</g>
<g>
</g>
<g>
</g>
<g>
</g>
<g>
</g>
<g>
</g>
<g>
</g>
<g>
</g>
</svg>
