<?xml version="1.0" standalone="no"?>
<!DOCTYPE svg PUBLIC "-//W3C//DTD SVG 20010904//EN"
 "http://www.w3.org/TR/2001/REC-SVG-20010904/DTD/svg10.dtd">
<svg version="1.0" xmlns="http://www.w3.org/2000/svg"
 width="591.000000pt" height="292.000000pt" viewBox="0 0 591.000000 292.000000"
 preserveAspectRatio="xMidYMid meet">
<style>
  g path{
    stroke:#000000;
  }
</style>
<g transform="translate(0.000000,292.000000) scale(0.100000,-0.100000)"
fill="#000000" stroke="none">
<path d="M2336 2913 c-4 -5 -139 -10 -299 -13 l-292 -5 -3 -100 c-2 -76 1
-105 12 -120 23 -31 50 -8 54 43 3 34 8 43 26 48 30 7 373 1 381 -8 14 -14
-438 -667 -463 -668 -14 0 -32 -40 -32 -70 0 -19 9 -19 248 -13 153 3 283 1
342 -6 52 -6 97 -7 101 -3 4 4 9 71 13 150 5 135 5 142 -13 142 -30 0 -48 -25
-55 -78 -11 -87 -3 -84 -241 -83 -115 1 -210 3 -211 4 -5 5 236 358 364 535
73 101 136 190 139 198 11 30 -48 69 -71 47z"/>
<path d="M4250 2795 l0 -105 40 0 39 0 3 58 3 57 103 3 102 3 0 -355 c0 -273
-3 -357 -12 -363 -7 -4 -38 -12 -68 -18 -52 -9 -55 -12 -55 -40 l0 -30 198 -1
198 0 6 24 c7 29 -6 39 -62 47 -83 13 -75 -26 -75 376 l0 359 84 0 c94 0 96
-1 96 -76 l0 -45 37 3 36 3 0 70 c-1 39 -1 85 -2 103 l-1 32 -335 0 -335 0 0
-105z"/>
<path d="M2846 2735 c-13 -10 -32 -12 -62 -8 -64 8 -109 -25 -183 -138 -101
-154 -151 -296 -151 -434 0 -92 19 -142 62 -163 63 -30 130 23 199 157 l50 96
-6 -95 c-3 -52 -8 -110 -11 -127 -8 -44 15 -52 58 -22 18 13 55 31 83 41 44
15 50 20 50 45 0 24 -4 29 -35 33 l-35 5 -3 60 c-1 33 6 170 17 305 11 134 17
248 15 252 -8 12 -27 9 -48 -7z m-72 -101 c32 -85 -57 -381 -143 -473 -37 -39
-48 -39 -59 2 -25 90 57 358 137 450 36 40 55 46 65 21z"/>
<path d="M5216 2735 c-13 -10 -32 -12 -62 -8 -64 8 -109 -25 -183 -138 -101
-154 -151 -296 -151 -434 0 -91 19 -143 60 -162 64 -30 132 22 201 156 l50 96
-6 -90 c-3 -49 -8 -106 -11 -127 -8 -49 13 -59 58 -27 18 13 55 31 83 41 44
15 50 20 50 45 0 24 -4 29 -35 33 -34 5 -35 6 -38 55 -2 28 4 149 13 270 23
297 23 299 5 302 -8 1 -24 -4 -34 -12z m-70 -111 c26 -102 -75 -407 -157 -476
-30 -25 -37 -23 -48 18 -25 91 57 354 140 449 37 42 56 44 65 9z"/>
<path d="M3157 2726 c-91 -33 -162 -113 -191 -216 -25 -90 -37 -228 -26 -311
11 -89 16 -104 47 -147 36 -48 76 -65 145 -60 50 4 63 9 93 38 54 52 85 123
85 192 0 42 -4 58 -13 58 -20 0 -42 -30 -57 -79 -15 -48 -68 -111 -93 -111
-27 0 -65 57 -78 117 -13 65 -7 253 11 318 21 77 42 115 68 122 29 7 42 -9 42
-53 0 -17 3 -46 6 -63 6 -30 9 -31 55 -31 l49 0 0 105 0 104 -30 16 c-35 18
-63 18 -113 1z"/>
<path d="M3764 2730 c-11 -4 -34 -24 -52 -44 -76 -87 -113 -213 -113 -391 0
-237 52 -311 215 -306 32 1 46 8 78 41 52 55 75 105 83 177 12 102 -39 92 -72
-14 -54 -171 -181 -119 -200 81 l-5 62 78 18 c166 39 168 41 168 191 0 136
-39 196 -127 194 -18 0 -41 -4 -53 -9z m53 -68 c24 -15 35 -66 28 -134 -8 -79
-24 -98 -91 -106 l-47 -5 7 63 c9 76 41 166 64 180 21 12 24 12 39 2z"/>
<path d="M5527 2726 c-90 -33 -162 -113 -191 -214 -25 -88 -38 -239 -26 -320
13 -92 29 -131 69 -165 40 -33 68 -41 132 -35 60 6 106 45 144 122 29 57 36
166 12 166 -21 0 -44 -31 -58 -79 -14 -47 -67 -111 -92 -111 -26 0 -65 56 -76
110 -36 166 17 450 83 450 26 0 36 -17 36 -60 0 -15 3 -42 6 -59 6 -30 9 -31
55 -31 l49 0 0 105 0 104 -30 16 c-35 18 -63 18 -113 1z"/>
<path d="M1635 2421 c-113 -41 -199 -93 -272 -165 -84 -84 -96 -116 -95 -251
1 -127 37 -221 136 -354 41 -54 231 -218 287 -247 31 -16 49 -47 42 -74 -6
-24 -61 -56 -136 -80 -71 -23 -71 -23 -267 -4 -64 6 -66 5 -126 -35 -34 -23
-69 -41 -78 -41 -10 0 -59 41 -109 91 -51 50 -116 107 -146 126 l-53 34 27 29
c27 28 27 30 20 122 -6 91 -6 94 19 117 37 34 34 74 -5 102 -41 29 -61 78 -68
168 -7 89 -19 101 -80 81 -35 -11 -46 -11 -86 4 -34 14 -46 24 -51 44 -28 132
-49 146 -204 136 -80 -5 -116 -12 -156 -31 -68 -32 -126 -82 -169 -147 -51
-77 -65 -126 -65 -227 0 -77 4 -98 29 -153 41 -90 82 -107 163 -65 39 20 42
20 78 4 21 -10 55 -34 75 -55 35 -36 37 -42 31 -81 -6 -37 -5 -41 11 -34 39
16 51 16 86 2 20 -9 60 -33 89 -55 29 -22 71 -49 93 -61 22 -12 55 -33 73 -46
32 -23 188 -180 266 -267 71 -79 48 -23 -53 128 -54 82 -102 159 -106 172 -8
27 9 29 46 4 41 -26 338 -364 345 -391 6 -19 0 -30 -27 -52 -30 -25 -43 -28
-100 -29 -133 0 -204 50 -288 205 -28 51 -64 100 -102 136 -57 54 -175 123
-254 149 -45 14 -75 37 -75 57 0 32 -28 8 -58 -49 -64 -126 -120 -318 -137
-463 -12 -114 22 -398 59 -487 9 -21 16 -66 16 -102 0 -65 0 -65 56 -125 33
-37 54 -67 52 -78 -2 -10 -22 -28 -46 -41 -23 -13 -42 -28 -42 -33 0 -5 221
-9 554 -9 l554 0 5 32 c3 18 4 74 3 124 -1 69 -5 96 -19 115 -51 70 -97 146
-97 161 0 45 27 71 145 141 109 64 228 142 353 231 178 127 436 236 560 236
57 0 100 24 118 65 22 53 40 58 129 35 116 -30 379 -68 650 -96 186 -18 662
-21 832 -4 344 34 650 97 916 191 152 53 417 181 532 257 192 126 286 221 349
351 40 84 41 88 41 191 0 144 -28 220 -81 220 -30 0 -32 -10 -27 -115 6 -115
-9 -232 -37 -290 -36 -74 -110 -146 -259 -249 -302 -209 -554 -304 -1021 -386
-36 -6 -85 -15 -110 -20 -25 -5 -85 -11 -135 -15 -49 -3 -133 -8 -185 -12
-178 -13 -719 -5 -847 12 -171 22 -200 33 -91 34 148 2 231 31 214 77 -5 14
-17 15 -89 10 -136 -12 -268 -8 -345 8 -40 9 -89 16 -108 16 -32 0 -35 -2 -29
-22 10 -33 17 -38 77 -59 l53 -19 -50 5 c-27 3 -72 10 -100 15 -27 5 -79 14
-115 20 -76 13 -362 91 -356 97 2 2 31 -3 64 -11 72 -19 233 -21 250 -4 29 29
7 78 -35 78 -12 0 -57 9 -100 19 -43 11 -125 31 -182 45 -68 17 -134 42 -190
72 -95 50 -144 56 -149 17 -5 -32 42 -77 133 -128 44 -25 76 -45 72 -45 -25 0
-212 82 -337 146 -174 91 -244 138 -330 224 -157 157 -165 297 -23 450 41 45
75 68 158 109 57 29 107 57 111 62 6 11 -4 49 -14 48 -4 0 -29 -8 -57 -18z
m-1186 -233 c55 -12 71 -32 41 -48 -15 -8 -20 -21 -20 -50 0 -28 -4 -40 -14
-40 -25 0 -74 -49 -81 -80 -10 -46 -36 -55 -91 -30 -56 24 -54 24 -54 3 1 -10
14 -34 30 -53 37 -42 38 -78 4 -115 -26 -28 -47 -29 -132 -8 -36 9 -27 -21 15
-48 46 -30 50 -59 10 -74 -26 -9 -32 -6 -62 27 -40 43 -55 92 -55 173 1 70 15
114 61 191 37 62 93 105 179 141 62 26 97 28 169 11z m141 -193 c0 -6 -32 -52
-71 -101 -40 -49 -85 -118 -101 -154 -17 -36 -41 -77 -55 -92 -24 -25 -28 -26
-53 -13 -48 25 -53 69 -14 106 14 13 44 62 67 107 41 86 110 160 159 173 27 7
68 -9 68 -26z m-170 -755 c-24 -45 -100 -45 -100 0 0 18 7 20 55 20 53 0 55
-1 45 -20z m1580 -38 c0 -65 -78 -164 -162 -208 -17 -9 -63 -20 -102 -25 -39
-5 -87 -15 -106 -23 -142 -56 -148 -58 -172 -45 -31 16 -29 14 -22 33 10 25
215 207 250 222 18 7 67 21 109 29 43 9 98 25 124 35 71 29 81 27 81 -18z
m947 12 c-3 -3 -12 -4 -19 -1 -8 3 -5 6 6 6 11 1 17 -2 13 -5z m-1612 -57 c33
-72 43 -158 20 -180 -24 -25 -48 -7 -75 55 -28 65 -35 115 -21 151 18 46 48
36 76 -26z m-705 -13 c72 -25 79 -54 25 -97 l-36 -29 -104 32 c-57 17 -109 29
-115 25 -19 -12 -10 -43 18 -63 20 -15 49 -21 115 -24 71 -4 93 -9 118 -27 17
-13 52 -26 77 -30 35 -4 48 -11 50 -25 6 -28 -15 -36 -93 -35 -91 0 -164 19
-247 64 -72 38 -85 33 -42 -18 45 -54 192 -137 242 -137 16 0 46 7 65 15 45
19 104 19 159 1 24 -8 85 -17 137 -21 147 -11 164 -41 117 -204 -28 -97 -41
-116 -32 -46 18 148 19 155 7 155 -19 0 -54 -91 -55 -144 -2 -94 -39 -64 -89
70 -22 59 -38 90 -50 92 -28 6 -21 -26 42 -179 51 -125 57 -146 45 -159 -13
-13 -20 -12 -60 9 -65 35 -126 92 -170 159 -49 77 -87 102 -164 109 -50 5 -65
11 -91 37 -17 17 -40 49 -51 71 -22 42 -73 108 -146 188 -42 46 -44 51 -38 93
13 99 68 132 221 133 66 1 115 -5 145 -15z m-333 -274 c26 -29 104 -157 192
-317 38 -68 79 -127 105 -151 39 -36 50 -40 132 -52 116 -16 132 -23 174 -70
19 -22 50 -45 69 -50 29 -8 36 -6 54 14 20 23 22 23 54 8 26 -12 40 -14 62 -6
16 7 37 7 50 2 15 -5 29 -3 44 7 12 8 32 15 46 15 24 0 24 -1 17 -72 -7 -79
-12 -88 -64 -120 -40 -24 -87 -25 -507 -10 l-180 7 -70 47 c-112 75 -195 187
-151 204 22 8 95 -22 128 -53 21 -20 41 -27 85 -31 36 -3 69 -12 87 -25 16
-11 51 -22 78 -25 45 -4 50 -3 46 14 -2 13 -55 45 -178 105 -196 97 -214 113
-278 237 -53 103 -72 174 -72 269 0 112 15 122 77 53z m1013 -57 c0 -21 -9
-58 -20 -82 -16 -35 -19 -56 -14 -106 6 -59 5 -63 -15 -70 -28 -9 -45 12 -66
80 -23 72 -30 142 -16 159 6 7 32 19 56 26 25 7 48 17 51 21 12 20 24 6 24
-28z m-705 -246 c8 -13 18 -38 21 -55 6 -29 5 -32 -14 -25 -39 15 -72 52 -72
81 0 16 3 32 6 35 10 9 42 -11 59 -36z m107 -52 c24 -51 25 -55 7 -55 -22 0
-46 34 -55 78 -11 52 18 39 48 -23z m483 -25 c0 -18 -33 -26 -47 -12 -6 6 -7
15 -3 22 10 16 50 8 50 -10z"/>
<path d="M1413 2073 c-11 -16 -19 -52 -21 -94 -4 -56 0 -77 21 -123 21 -46 30
-56 50 -56 36 0 38 19 10 85 -23 53 -25 69 -19 138 5 65 4 77 -9 77 -8 0 -22
-12 -32 -27z"/>
<path d="M2450 1899 c0 -26 -3 -29 -20 -24 -20 6 -59 -9 -72 -29 -4 -6 -8 -32
-8 -58 0 -35 6 -54 20 -68 20 -20 64 -27 74 -11 3 4 17 6 31 3 l25 -4 0 111 0
111 -25 0 c-21 0 -25 -5 -25 -31z m-2 -102 c4 -36 -15 -62 -34 -46 -15 12 -19
61 -7 73 15 15 38 0 41 -27z"/>
<path d="M2530 1905 c0 -20 5 -25 25 -25 20 0 25 5 25 25 0 20 -5 25 -25 25
-20 0 -25 -5 -25 -25z"/>
<path d="M2690 1820 l0 -110 24 0 c23 0 25 5 28 48 l3 47 31 -30 c17 -16 35
-38 40 -48 8 -13 20 -18 42 -15 l32 3 -30 44 c-28 44 -29 45 -10 58 26 18 27
74 2 96 -14 13 -38 17 -90 17 l-72 0 0 -110z m115 57 c25 -19 10 -37 -31 -37
-30 0 -34 3 -34 25 0 19 5 25 23 25 13 0 31 -6 42 -13z"/>
<path d="M2900 1905 c0 -20 5 -25 25 -25 20 0 25 5 25 25 0 20 -5 25 -25 25
-20 0 -25 -5 -25 -25z"/>
<path d="M3670 1901 c0 -27 -3 -29 -36 -28 -47 1 -74 -30 -74 -85 0 -54 38
-93 82 -84 17 3 41 6 54 6 24 0 24 1 24 110 l0 110 -25 0 c-21 0 -25 -5 -25
-29z m-5 -91 c9 -29 -4 -60 -25 -60 -10 0 -22 9 -25 20 -9 29 4 60 25 60 10 0
22 -9 25 -20z"/>
<path d="M4240 1820 l0 -110 25 0 c23 0 25 4 25 45 l0 45 45 0 c38 0 45 3 45
20 0 17 -7 20 -45 20 -41 0 -45 2 -45 25 0 24 3 25 55 25 48 0 55 2 55 20 0
18 -7 20 -80 20 l-80 0 0 -110z"/>
<path d="M3013 1870 c-28 -12 -43 -40 -43 -85 0 -71 83 -112 130 -65 27 27 25
47 -5 52 -17 4 -25 1 -25 -9 0 -9 -8 -13 -22 -11 -18 2 -24 11 -26 36 -4 35
20 54 41 33 14 -14 44 -14 53 0 9 15 -25 46 -56 53 -14 3 -35 1 -47 -4z"/>
<path d="M3173 1870 c-28 -12 -43 -40 -43 -85 0 -71 83 -112 130 -65 27 27 25
47 -5 52 -17 4 -25 1 -25 -9 0 -9 -8 -13 -22 -11 -18 2 -24 11 -26 36 -4 35
20 54 41 33 14 -14 44 -14 53 0 9 15 -25 46 -56 53 -14 3 -35 1 -47 -4z"/>
<path d="M3335 1873 c-19 -5 -45 -30 -45 -44 0 -4 10 -9 23 -13 l22 -6 -22
-15 c-29 -21 -31 -70 -3 -85 11 -6 42 -8 72 -4 l53 6 -3 68 c-2 38 -9 73 -15
79 -16 13 -57 20 -82 14z m45 -53 c0 -5 -9 -10 -20 -10 -11 0 -20 5 -20 10 0
6 9 10 20 10 11 0 20 -4 20 -10z m-8 -72 c-11 -11 -32 -3 -32 12 0 12 34 18
39 7 2 -5 -1 -13 -7 -19z"/>
<path d="M3493 1873 l-33 -4 0 -80 c0 -77 1 -79 25 -79 22 0 24 4 27 58 3 49
6 57 23 57 23 0 33 34 13 46 -7 5 -15 8 -18 7 -3 -1 -20 -3 -37 -5z"/>
<path d="M3793 1873 c-33 -6 -53 -41 -53 -89 0 -34 5 -47 26 -63 59 -47 134
-8 134 69 0 38 -26 80 -49 80 -5 0 -15 2 -23 4 -7 2 -23 1 -35 -1z m53 -68 c9
-36 -2 -57 -28 -53 -39 5 -38 78 1 78 14 0 23 -9 27 -25z"/>
<path d="M4033 1870 c-28 -12 -43 -40 -43 -85 0 -71 83 -112 130 -65 11 11 20
25 20 30 0 14 -44 12 -58 -2 -9 -9 -16 -8 -29 5 -16 16 -14 17 35 17 51 0 52
1 52 29 0 54 -57 92 -107 71z m52 -50 c4 -6 -5 -10 -20 -10 -15 0 -24 4 -20
10 3 6 12 10 20 10 8 0 17 -4 20 -10z"/>
<path d="M4453 1873 l-33 -4 0 -80 c0 -77 1 -79 25 -79 22 0 24 4 27 58 3 49
6 57 23 57 23 0 33 34 13 46 -7 5 -15 8 -18 7 -3 -1 -20 -3 -37 -5z"/>
<path d="M4563 1870 c-12 -5 -26 -18 -32 -28 -9 -17 -7 -21 12 -26 12 -3 24
-1 25 4 4 12 42 13 42 2 0 -5 -16 -13 -37 -18 -43 -11 -58 -31 -50 -66 9 -33
27 -39 91 -32 l52 6 -4 67 c-2 36 -9 71 -16 78 -16 17 -58 24 -83 13z m39
-122 c-11 -11 -32 -3 -32 12 0 12 34 18 39 7 2 -5 -1 -13 -7 -19z"/>
<path d="M4733 1873 l-43 -4 0 -80 c0 -77 1 -79 25 -79 22 0 24 4 27 58 3 49
6 57 23 57 17 0 20 -8 23 -57 3 -54 5 -58 27 -58 24 0 25 3 25 63 0 90 -18
107 -107 100z"/>
<path d="M4910 1873 c-37 -14 -50 -36 -50 -84 0 -39 4 -51 26 -68 15 -12 38
-21 51 -21 24 0 73 40 73 59 0 16 -44 17 -56 2 -18 -23 -44 -6 -44 29 0 33 24
50 43 31 13 -13 44 -15 51 -2 16 26 -58 68 -94 54z"/>
<path d="M5060 1867 c-39 -20 -55 -62 -41 -108 12 -41 35 -59 73 -59 29 0 68
26 68 46 0 17 -41 19 -57 3 -12 -12 -33 -4 -33 12 0 5 20 9 45 9 44 0 45 0 45
33 0 54 -53 88 -100 64z m50 -47 c0 -5 -9 -10 -20 -10 -11 0 -20 5 -20 10 0 6
9 10 20 10 11 0 20 -4 20 -10z"/>
<path d="M5210 1867 c-30 -15 -41 -73 -16 -83 23 -9 20 -24 -4 -24 -45 0 -8
-48 42 -57 54 -8 90 17 86 60 -3 27 -9 34 -47 48 -24 9 -40 19 -35 22 6 3 16
2 24 -4 18 -11 60 -12 60 -1 0 36 -69 60 -110 39z m53 -107 c8 0 7 -4 -1 -12
-9 -9 -16 -8 -30 6 -16 18 -16 19 1 12 10 -3 24 -6 30 -6z"/>
<path d="M5390 1873 c-37 -14 -50 -36 -50 -84 0 -39 4 -51 26 -68 15 -12 37
-21 49 -21 26 0 75 36 75 55 0 19 -43 23 -56 6 -18 -23 -44 -6 -44 29 0 33 24
50 43 31 13 -13 44 -15 51 -2 16 26 -58 68 -94 54z"/>
<path d="M5540 1873 c-16 -6 -40 -32 -40 -44 0 -4 10 -10 23 -13 l22 -7 -22
-11 c-17 -8 -23 -20 -23 -43 0 -47 17 -56 86 -49 l59 6 -5 71 c-4 64 -8 73
-30 84 -26 13 -45 15 -70 6z m45 -53 c-3 -5 -13 -10 -21 -10 -8 0 -14 5 -14
10 0 6 9 10 21 10 11 0 17 -4 14 -10z m-5 -65 c-16 -19 -30 -19 -30 -1 0 8 8
16 18 18 24 6 27 1 12 -17z"/>
<path d="M2530 1790 c0 -79 0 -80 25 -80 25 0 25 1 25 80 0 79 0 80 -25 80
-25 0 -25 -1 -25 -80z"/>
<path d="M2900 1790 c0 -79 0 -80 25 -80 25 0 25 1 25 80 0 79 0 80 -25 80
-25 0 -25 -1 -25 -80z"/>
<path d="M4653 1468 c-45 -22 -21 -68 34 -68 39 0 60 28 43 60 -12 22 -42 25
-77 8z"/>
<path d="M4160 1411 c-29 -17 -205 -60 -280 -69 -41 -5 -112 -7 -157 -4 -79 4
-83 4 -83 -16 0 -73 217 -80 442 -14 48 13 96 33 108 44 24 22 26 53 4 62 -19
7 -15 7 -34 -3z"/>
<path d="M4528 1365 c-54 -30 -211 -65 -288 -65 -41 0 -82 -5 -90 -10 -23 -15
0 -43 44 -54 54 -14 233 17 326 57 65 28 75 36 78 60 3 23 0 27 -20 27 -13 -1
-35 -7 -50 -15z"/>
<path d="M2080 515 l0 -115 75 0 c60 0 75 3 75 15 0 12 -13 15 -55 15 l-55 0
0 100 c0 93 -1 100 -20 100 -19 0 -20 -7 -20 -115z"/>
<path d="M3010 515 c0 -108 1 -115 20 -115 19 0 20 7 20 115 0 108 -1 115 -20
115 -19 0 -20 -7 -20 -115z"/>
<path d="M3080 610 c0 -13 7 -20 20 -20 13 0 20 7 20 20 0 13 -7 20 -20 20
-13 0 -20 -7 -20 -20z"/>
<path d="M3270 623 c1 -16 28 -43 44 -43 19 0 20 4 6 31 -10 18 -50 28 -50 12z"/>
<path d="M3640 610 c0 -13 7 -20 20 -20 13 0 20 7 20 20 0 13 -7 20 -20 20
-13 0 -20 -7 -20 -20z"/>
<path d="M3163 613 c-7 -2 -13 -13 -13 -24 0 -10 -4 -19 -10 -19 -5 0 -10 -7
-10 -15 0 -8 5 -15 10 -15 6 0 10 -26 10 -59 0 -64 15 -91 51 -91 12 0 19 7
19 20 0 11 -7 20 -15 20 -12 0 -15 13 -15 55 0 42 3 55 15 55 8 0 15 7 15 15
0 8 -7 15 -15 15 -9 0 -15 9 -15 25 0 25 -4 28 -27 18z"/>
<path d="M2272 554 c-27 -19 -29 -44 -2 -44 11 0 20 4 20 9 0 13 27 21 45 15
24 -10 18 -34 -9 -34 -68 0 -101 -41 -71 -86 15 -23 22 -25 53 -20 21 3 48 6
62 6 25 0 25 0 20 75 -3 52 -10 79 -20 85 -23 15 -73 12 -98 -6z m78 -99 c0
-18 -34 -37 -54 -29 -21 8 -20 21 2 33 25 15 52 13 52 -4z"/>
<path d="M2519 549 c-14 -14 -19 -33 -19 -68 0 -42 4 -53 27 -71 19 -15 36
-20 55 -16 26 5 28 3 28 -29 0 -24 5 -35 15 -35 12 0 15 20 15 118 l0 119 -51
1 c-37 1 -55 -4 -70 -19z m75 -31 c21 -29 20 -51 -1 -77 -16 -19 -20 -20 -37
-8 -22 16 -26 68 -6 91 17 21 26 20 44 -6z"/>
<path d="M2671 513 c1 -32 4 -69 8 -83 8 -28 49 -47 77 -35 11 4 27 7 37 6 15
-2 17 8 17 83 0 79 -2 86 -20 86 -17 0 -19 -8 -22 -67 -3 -65 -4 -68 -28 -68
-24 0 -25 3 -28 68 -3 59 -5 67 -22 67 -18 0 -20 -7 -19 -57z"/>
<path d="M2862 554 c-27 -19 -29 -44 -2 -44 11 0 20 4 20 9 0 13 27 21 45 15
26 -10 17 -34 -13 -34 -41 0 -72 -26 -72 -61 0 -36 34 -56 77 -44 15 5 37 7
48 6 19 -2 20 3 17 71 -3 52 -8 77 -20 86 -22 17 -73 15 -100 -4z m78 -99 c0
-8 -10 -19 -21 -26 -17 -9 -25 -8 -37 5 -14 14 -13 16 9 25 35 14 49 13 49 -4z"/>
<path d="M3080 485 c0 -78 2 -85 20 -85 18 0 20 7 20 85 0 78 -2 85 -20 85
-18 0 -20 -7 -20 -85z"/>
<path d="M3252 554 c-27 -19 -29 -44 -2 -44 11 0 20 4 20 9 0 13 27 21 45 15
29 -12 15 -31 -26 -37 -23 -3 -45 -9 -49 -14 -38 -40 -2 -100 53 -89 18 4 43
6 57 6 25 0 25 1 22 73 -2 52 -8 75 -20 85 -22 17 -73 15 -100 -4z m78 -99 c0
-8 -10 -19 -21 -26 -17 -9 -25 -8 -37 5 -14 14 -13 16 9 25 35 14 49 13 49 -4z"/>
<path d="M3471 563 c0 -5 12 -42 28 -83 20 -56 32 -76 48 -78 17 -2 24 9 47
70 30 85 32 101 9 96 -9 -2 -23 -23 -32 -50 -9 -26 -19 -49 -22 -52 -3 -3 -13
19 -23 49 -13 42 -22 55 -37 55 -10 0 -19 -3 -18 -7z"/>
<path d="M3640 485 c0 -78 2 -85 20 -85 18 0 20 7 20 85 0 78 -2 85 -20 85
-18 0 -20 -7 -20 -85z"/>
<path d="M3710 483 c0 -67 3 -83 15 -83 11 0 15 12 15 49 0 61 28 103 54 82
11 -10 16 -30 16 -72 0 -46 3 -59 15 -59 12 0 15 15 15 75 0 86 -7 94 -83 93
l-47 -1 0 -84z"/>
<path d="M3891 544 c-62 -79 19 -193 97 -138 24 16 30 54 9 54 -7 0 -20 -9
-30 -20 -27 -32 -57 -11 -57 40 0 50 30 72 56 41 18 -20 44 -18 44 4 0 21 -35
45 -68 45 -21 0 -37 -8 -51 -26z"/>
<path d="M4045 545 c-53 -52 -18 -155 53 -155 38 0 78 31 69 53 -7 18 -37 24
-37 7 0 -5 -9 -14 -19 -20 -15 -7 -23 -6 -35 6 -27 26 -18 34 39 34 54 0 55 0
55 30 0 65 -78 93 -125 45z m73 -17 c20 -20 14 -28 -23 -28 -38 0 -46 13 -17
29 22 13 26 13 40 -1z"/>
<path d="M4298 559 c-21 -12 -24 -62 -5 -77 6 -5 27 -13 45 -17 33 -7 43 -29
17 -39 -9 -3 -25 4 -36 15 -20 20 -49 20 -49 -1 0 -20 40 -50 68 -50 41 0 72
26 72 61 0 19 -6 32 -17 36 -74 26 -88 34 -71 44 18 10 48 2 48 -12 0 -5 9 -9
20 -9 11 0 20 5 20 10 0 6 -9 19 -20 30 -21 21 -64 26 -92 9z"/>
<path d="M4452 547 c-33 -35 -31 -109 4 -136 15 -12 37 -21 49 -21 24 0 75 35
75 51 0 20 -29 20 -49 0 -23 -23 -46 -19 -62 10 -9 18 -5 19 51 19 58 0 60 1
60 25 0 35 -42 75 -78 75 -17 0 -37 -9 -50 -23z m69 -17 c30 -16 23 -30 -16
-30 -37 0 -43 8 -23 28 15 15 15 15 39 2z"/>
<path d="M4600 484 c0 -77 2 -84 20 -84 18 0 20 7 20 54 0 37 5 60 16 71 27
27 44 1 44 -66 0 -46 3 -59 15 -59 11 0 15 13 15 54 0 58 18 90 45 80 11 -5
15 -23 15 -70 0 -57 2 -64 20 -64 18 0 20 7 20 63 0 92 -33 127 -90 97 -12 -6
-21 -7 -25 0 -3 5 -30 9 -60 9 l-55 -1 0 -84z"/>
<path d="M4860 449 c0 -99 3 -119 15 -119 10 0 15 11 15 35 0 32 2 34 28 29
19 -4 36 1 55 16 23 18 27 29 27 71 0 67 -22 89 -90 88 l-50 -2 0 -118z m95
67 c32 -49 -16 -121 -49 -74 -20 28 -20 48 0 76 19 28 30 28 49 -2z"/>
<path d="M5030 484 c0 -68 3 -84 15 -84 11 0 15 12 15 46 0 55 14 84 41 84 14
0 19 5 17 18 -2 13 -14 17 -46 19 l-42 2 0 -85z"/>
<path d="M5145 545 c-54 -53 -18 -155 55 -155 29 0 70 29 70 50 0 16 -33 26
-38 12 -8 -24 -40 -33 -56 -16 -27 26 -18 34 39 34 54 0 55 0 55 30 0 65 -78
93 -125 45z m73 -17 c20 -20 14 -28 -23 -28 -38 0 -46 13 -17 29 22 13 26 13
40 -1z"/>
</g>
</svg>
