<?xml version="1.0" encoding="utf-8"?>
<!-- Generator: Adobe Illustrator 21.0.0, SVG Export Plug-In . SVG Version: 6.00 Build 0)  -->

<svg version="1.1" id="Layer_1" xmlns="http://www.w3.org/2000/svg" xmlns:xlink="http://www.w3.org/1999/xlink" x="0px" y="0px"
	 viewBox="0 0 591 292" style="enable-background:new 0 0 591 292;" xml:space="preserve">
	 <style type="text/css">
	 	.st0{
		stroke:#000000;
		stroke-miterlimit:10;
	 	animation: colorchange 40s;
	 	-webkit-animation: colorchange 40s; /* Chrome and Safari */
	 	animation-iteration-count: infinite;
		}
	 	@keyframes colorchange
	 		 {
	 			 0%   {fill: #FFFFFF;}
	 			 12,5%  {fill: #f4f4f4;}
				 25%  {fill: #d6d6d6;}
				 37,5%  {fill: #a9a9a9;}
		 		 50% {fill: #000000;}
				 62,5%  {fill: #a9a9a9;}
				 75%  {fill: #d6d6d6;}
				 87,5%  {fill: #f4f4f4;}
				 100%   {fill: #FFFFFF;}
	 		 }
	 		 @-webkit-keyframes colorchange /* Safari and Chrome - necessary duplicate */
	 		 {
			 0%   {fill: #FFFFFF;}
			 12,5%  {fill: #f4f4f4;}
			 25%  {fill: #d6d6d6;}
			 37,5%  {fill: #a9a9a9;}
			 50% {fill: #000000;}
			 62,5%  {fill: #a9a9a9;}
			 75%  {fill: #d6d6d6;}
			 87,5%  {fill: #f4f4f4;}
			 100%   {fill: #FFFFFF;}
	 		 }
	 </style>
<g transform="translate(0.000000,292.000000) scale(0.100000,-0.100000)">
	<path class="st0" d="M2336,2913c-4-5-139-10-299-13l-292-5l-3-100c-2-76,1-105,12-120c23-31,50-8,54,43c3,34,8,43,26,48
		c30,7,373,1,381-8c14-14-438-667-463-668c-14,0-32-40-32-70c0-19,9-19,248-13c153,3,283,1,342-6c52-6,97-7,101-3s9,71,13,150
		c5,135,5,142-13,142c-30,0-48-25-55-78c-11-87-3-84-241-83c-115,1-210,3-211,4c-5,5,236,358,364,535c73,101,136,190,139,198
		C2418,2896,2359,2935,2336,2913z"/>
	<path class="st0" d="M4250,2795v-105h40h39l3,58l3,57l103,3l102,3v-355c0-273-3-357-12-363c-7-4-38-12-68-18c-52-9-55-12-55-40v-30
		l198-1h198l6,24c7,29-6,39-62,47c-83,13-75-26-75,376v359h84c94,0,96-1,96-76v-45l37,3l36,3v70c-1,39-1,85-2,103l-1,32h-335h-335
		V2795z"/>
	<path class="st0" d="M2846,2735c-13-10-32-12-62-8c-64,8-109-25-183-138c-101-154-151-296-151-434c0-92,19-142,62-163
		c63-30,130,23,199,157l50,96l-6-95c-3-52-8-110-11-127c-8-44,15-52,58-22c18,13,55,31,83,41c44,15,50,20,50,45c0,24-4,29-35,33
		l-35,5l-3,60c-1,33,6,170,17,305c11,134,17,248,15,252C2886,2754,2867,2751,2846,2735z M2774,2634c32-85-57-381-143-473
		c-37-39-48-39-59,2c-25,90,57,358,137,450C2745,2653,2764,2659,2774,2634z"/>
	<path class="st0" d="M5216,2735c-13-10-32-12-62-8c-64,8-109-25-183-138c-101-154-151-296-151-434c0-91,19-143,60-162
		c64-30,132,22,201,156l50,96l-6-90c-3-49-8-106-11-127c-8-49,13-59,58-27c18,13,55,31,83,41c44,15,50,20,50,45c0,24-4,29-35,33
		c-34,5-35,6-38,55c-2,28,4,149,13,270c23,297,23,299,5,302C5242,2748,5226,2743,5216,2735z M5146,2624c26-102-75-407-157-476
		c-30-25-37-23-48,18c-25,91,57,354,140,449C5118,2657,5137,2659,5146,2624z"/>
	<path class="st0" d="M3157,2726c-91-33-162-113-191-216c-25-90-37-228-26-311c11-89,16-104,47-147c36-48,76-65,145-60
		c50,4,63,9,93,38c54,52,85,123,85,192c0,42-4,58-13,58c-20,0-42-30-57-79c-15-48-68-111-93-111c-27,0-65,57-78,117
		c-13,65-7,253,11,318c21,77,42,115,68,122c29,7,42-9,42-53c0-17,3-46,6-63c6-30,9-31,55-31h49v105v104l-30,16
		C3235,2743,3207,2743,3157,2726z"/>
	<path class="st0" d="M3764,2730c-11-4-34-24-52-44c-76-87-113-213-113-391c0-237,52-311,215-306c32,1,46,8,78,41
		c52,55,75,105,83,177c12,102-39,92-72-14c-54-171-181-119-200,81l-5,62l78,18c166,39,168,41,168,191c0,136-39,196-127,194
		C3799,2739,3776,2735,3764,2730z M3817,2662c24-15,35-66,28-134c-8-79-24-98-91-106l-47-5l7,63c9,76,41,166,64,180
		C3799,2672,3802,2672,3817,2662z"/>
	<path class="st0" d="M5527,2726c-90-33-162-113-191-214c-25-88-38-239-26-320c13-92,29-131,69-165c40-33,68-41,132-35
		c60,6,106,45,144,122c29,57,36,166,12,166c-21,0-44-31-58-79c-14-47-67-111-92-111c-26,0-65,56-76,110c-36,166,17,450,83,450
		c26,0,36-17,36-60c0-15,3-42,6-59c6-30,9-31,55-31h49v105v104l-30,16C5605,2743,5577,2743,5527,2726z"/>
	<path class="st0" d="M1635,2421c-113-41-199-93-272-165c-84-84-96-116-95-251c1-127,37-221,136-354c41-54,231-218,287-247
		c31-16,49-47,42-74c-6-24-61-56-136-80c-71-23-71-23-267-4c-64,6-66,5-126-35c-34-23-69-41-78-41c-10,0-59,41-109,91
		c-51,50-116,107-146,126l-53,34l27,29c27,28,27,30,20,122c-6,91-6,94,19,117c37,34,34,74-5,102c-41,29-61,78-68,168
		c-7,89-19,101-80,81c-35-11-46-11-86,4c-34,14-46,24-51,44c-28,132-49,146-204,136c-80-5-116-12-156-31c-68-32-126-82-169-147
		c-51-77-65-126-65-227c0-77,4-98,29-153c41-90,82-107,163-65c39,20,42,20,78,4c21-10,55-34,75-55c35-36,37-42,31-81
		c-6-37-5-41,11-34c39,16,51,16,86,2c20-9,60-33,89-55s71-49,93-61s55-33,73-46c32-23,188-180,266-267c71-79,48-23-53,128
		c-54,82-102,159-106,172c-8,27,9,29,46,4c41-26,338-364,345-391c6-19,0-30-27-52c-30-25-43-28-100-29c-133,0-204,50-288,205
		c-28,51-64,100-102,136c-57,54-175,123-254,149c-45,14-75,37-75,57c0,32-28,8-58-49c-64-126-120-318-137-463c-12-114,22-398,59-487
		c9-21,16-66,16-102c0-65,0-65,56-125c33-37,54-67,52-78c-2-10-22-28-46-41c-23-13-42-28-42-33s221-9,554-9h554l5,32
		c3,18,4,74,3,124c-1,69-5,96-19,115c-51,70-97,146-97,161c0,45,27,71,145,141c109,64,228,142,353,231c178,127,436,236,560,236
		c57,0,100,24,118,65c22,53,40,58,129,35c116-30,379-68,650-96c186-18,662-21,832-4c344,34,650,97,916,191c152,53,417,181,532,257
		c192,126,286,221,349,351c40,84,41,88,41,191c0,144-28,220-81,220c-30,0-32-10-27-115c6-115-9-232-37-290c-36-74-110-146-259-249
		c-302-209-554-304-1021-386c-36-6-85-15-110-20s-85-11-135-15c-49-3-133-8-185-12c-178-13-719-5-847,12c-171,22-200,33-91,34
		c148,2,231,31,214,77c-5,14-17,15-89,10c-136-12-268-8-345,8c-40,9-89,16-108,16c-32,0-35-2-29-22c10-33,17-38,77-59l53-19l-50,5
		c-27,3-72,10-100,15c-27,5-79,14-115,20c-76,13-362,91-356,97c2,2,31-3,64-11c72-19,233-21,250-4c29,29,7,78-35,78
		c-12,0-57,9-100,19c-43,11-125,31-182,45c-68,17-134,42-190,72c-95,50-144,56-149,17c-5-32,42-77,133-128c44-25,76-45,72-45
		c-25,0-212,82-337,146c-174,91-244,138-330,224c-157,157-165,297-23,450c41,45,75,68,158,109c57,29,107,57,111,62c6,11-4,49-14,48
		C1688,2439,1663,2431,1635,2421z M449,2188c55-12,71-32,41-48c-15-8-20-21-20-50c0-28-4-40-14-40c-25,0-74-49-81-80
		c-10-46-36-55-91-30c-56,24-54,24-54,3c1-10,14-34,30-53c37-42,38-78,4-115c-26-28-47-29-132-8c-36,9-27-21,15-48
		c46-30,50-59,10-74c-26-9-32-6-62,27c-40,43-55,92-55,173c1,70,15,114,61,191c37,62,93,105,179,141C342,2203,377,2205,449,2188z
		 M590,1995c0-6-32-52-71-101c-40-49-85-118-101-154c-17-36-41-77-55-92c-24-25-28-26-53-13c-48,25-53,69-14,106c14,13,44,62,67,107
		c41,86,110,160,159,173C549,2028,590,2012,590,1995z M420,1240c-24-45-100-45-100,0c0,18,7,20,55,20C428,1260,430,1259,420,1240z
		 M2000,1202c0-65-78-164-162-208c-17-9-63-20-102-25s-87-15-106-23c-142-56-148-58-172-45c-31,16-29,14-22,33
		c10,25,215,207,250,222c18,7,67,21,109,29c43,9,98,25,124,35C1990,1249,2000,1247,2000,1202z M2947,1214c-3-3-12-4-19-1
		c-8,3-5,6,6,6C2945,1220,2951,1217,2947,1214z M1335,1157c33-72,43-158,20-180c-24-25-48-7-75,55c-28,65-35,115-21,151
		C1277,1229,1307,1219,1335,1157z M630,1144c72-25,79-54,25-97l-36-29l-104,32c-57,17-109,29-115,25c-19-12-10-43,18-63
		c20-15,49-21,115-24c71-4,93-9,118-27c17-13,52-26,77-30c35-4,48-11,50-25c6-28-15-36-93-35c-91,0-164,19-247,64
		c-72,38-85,33-42-18c45-54,192-137,242-137c16,0,46,7,65,15c45,19,104,19,159,1c24-8,85-17,137-21c147-11,164-41,117-204
		c-28-97-41-116-32-46c18,148,19,155,7,155c-19,0-54-91-55-144c-2-94-39-64-89,70c-22,59-38,90-50,92c-28,6-21-26,42-179
		c51-125,57-146,45-159c-13-13-20-12-60,9c-65,35-126,92-170,159c-49,77-87,102-164,109c-50,5-65,11-91,37c-17,17-40,49-51,71
		c-22,42-73,108-146,188c-42,46-44,51-38,93c13,99,68,132,221,133C551,1160,600,1154,630,1144z M297,870c26-29,104-157,192-317
		c38-68,79-127,105-151c39-36,50-40,132-52c116-16,132-23,174-70c19-22,50-45,69-50c29-8,36-6,54,14c20,23,22,23,54,8
		c26-12,40-14,62-6c16,7,37,7,50,2c15-5,29-3,44,7c12,8,32,15,46,15c24,0,24-1,17-72c-7-79-12-88-64-120c-40-24-87-25-507-10l-180,7
		l-70,47c-112,75-195,187-151,204c22,8,95-22,128-53c21-20,41-27,85-31c36-3,69-12,87-25c16-11,51-22,78-25c45-4,50-3,46,14
		c-2,13-55,45-178,105c-196,97-214,113-278,237c-53,103-72,174-72,269C220,929,235,939,297,870z M1310,813c0-21-9-58-20-82
		c-16-35-19-56-14-106c6-59,5-63-15-70c-28-9-45,12-66,80c-23,72-30,142-16,159c6,7,32,19,56,26c25,7,48,17,51,21
		C1298,861,1310,847,1310,813z M605,567c8-13,18-38,21-55c6-29,5-32-14-25c-39,15-72,52-72,81c0,16,3,32,6,35
		C556,612,588,592,605,567z M712,515c24-51,25-55,7-55c-22,0-46,34-55,78C653,590,682,577,712,515z M1195,490c0-18-33-26-47-12
		c-6,6-7,15-3,22C1155,516,1195,508,1195,490z"/>
	<path class="st0" d="M1413,2073c-11-16-19-52-21-94c-4-56,0-77,21-123s30-56,50-56c36,0,38,19,10,85c-23,53-25,69-19,138
		c5,65,4,77-9,77C1437,2100,1423,2088,1413,2073z"/>
	<path class="st0" d="M2450,1899c0-26-3-29-20-24c-20,6-59-9-72-29c-4-6-8-32-8-58c0-35,6-54,20-68c20-20,64-27,74-11c3,4,17,6,31,3
		l25-4v111v111h-25C2454,1930,2450,1925,2450,1899z M2448,1797c4-36-15-62-34-46c-15,12-19,61-7,73C2422,1839,2445,1824,2448,1797z"
		/>
	<path class="st0" d="M2530,1905c0-20,5-25,25-25s25,5,25,25s-5,25-25,25S2530,1925,2530,1905z"/>
	<path class="st0" d="M2690,1820v-110h24c23,0,25,5,28,48l3,47l31-30c17-16,35-38,40-48c8-13,20-18,42-15l32,3l-30,44
		c-28,44-29,45-10,58c26,18,27,74,2,96c-14,13-38,17-90,17h-72V1820z M2805,1877c25-19,10-37-31-37c-30,0-34,3-34,25
		c0,19,5,25,23,25C2776,1890,2794,1884,2805,1877z"/>
	<path class="st0" d="M2900,1905c0-20,5-25,25-25s25,5,25,25s-5,25-25,25S2900,1925,2900,1905z"/>
	<path class="st0" d="M3670,1901c0-27-3-29-36-28c-47,1-74-30-74-85c0-54,38-93,82-84c17,3,41,6,54,6c24,0,24,1,24,110v110h-25
		C3674,1930,3670,1925,3670,1901z M3665,1810c9-29-4-60-25-60c-10,0-22,9-25,20c-9,29,4,60,25,60C3650,1830,3662,1821,3665,1810z"/>
	<path class="st0" d="M4240,1820v-110h25c23,0,25,4,25,45v45h45c38,0,45,3,45,20s-7,20-45,20c-41,0-45,2-45,25c0,24,3,25,55,25
		c48,0,55,2,55,20s-7,20-80,20h-80V1820z"/>
	<path class="st0" d="M3013,1870c-28-12-43-40-43-85c0-71,83-112,130-65c27,27,25,47-5,52c-17,4-25,1-25-9c0-9-8-13-22-11
		c-18,2-24,11-26,36c-4,35,20,54,41,33c14-14,44-14,53,0c9,15-25,46-56,53C3046,1877,3025,1875,3013,1870z"/>
	<path class="st0" d="M3173,1870c-28-12-43-40-43-85c0-71,83-112,130-65c27,27,25,47-5,52c-17,4-25,1-25-9c0-9-8-13-22-11
		c-18,2-24,11-26,36c-4,35,20,54,41,33c14-14,44-14,53,0c9,15-25,46-56,53C3206,1877,3185,1875,3173,1870z"/>
	<path class="st0" d="M3335,1873c-19-5-45-30-45-44c0-4,10-9,23-13l22-6l-22-15c-29-21-31-70-3-85c11-6,42-8,72-4l53,6l-3,68
		c-2,38-9,73-15,79C3401,1872,3360,1879,3335,1873z M3380,1820c0-5-9-10-20-10s-20,5-20,10c0,6,9,10,20,10S3380,1826,3380,1820z
		 M3372,1748c-11-11-32-3-32,12c0,12,34,18,39,7C3381,1762,3378,1754,3372,1748z"/>
	<path class="st0" d="M3493,1873l-33-4v-80c0-77,1-79,25-79c22,0,24,4,27,58c3,49,6,57,23,57c23,0,33,34,13,46c-7,5-15,8-18,7
		S3510,1875,3493,1873z"/>
	<path class="st0" d="M3793,1873c-33-6-53-41-53-89c0-34,5-47,26-63c59-47,134-8,134,69c0,38-26,80-49,80c-5,0-15,2-23,4
		C3821,1876,3805,1875,3793,1873z M3846,1805c9-36-2-57-28-53c-39,5-38,78,1,78C3833,1830,3842,1821,3846,1805z"/>
	<path class="st0" d="M4033,1870c-28-12-43-40-43-85c0-71,83-112,130-65c11,11,20,25,20,30c0,14-44,12-58-2c-9-9-16-8-29,5
		c-16,16-14,17,35,17c51,0,52,1,52,29C4140,1853,4083,1891,4033,1870z M4085,1820c4-6-5-10-20-10s-24,4-20,10c3,6,12,10,20,10
		S4082,1826,4085,1820z"/>
	<path class="st0" d="M4453,1873l-33-4v-80c0-77,1-79,25-79c22,0,24,4,27,58c3,49,6,57,23,57c23,0,33,34,13,46c-7,5-15,8-18,7
		S4470,1875,4453,1873z"/>
	<path class="st0" d="M4563,1870c-12-5-26-18-32-28c-9-17-7-21,12-26c12-3,24-1,25,4c4,12,42,13,42,2c0-5-16-13-37-18
		c-43-11-58-31-50-66c9-33,27-39,91-32l52,6l-4,67c-2,36-9,71-16,78C4630,1874,4588,1881,4563,1870z M4602,1748c-11-11-32-3-32,12
		c0,12,34,18,39,7C4611,1762,4608,1754,4602,1748z"/>
	<path class="st0" d="M4733,1873l-43-4v-80c0-77,1-79,25-79c22,0,24,4,27,58c3,49,6,57,23,57s20-8,23-57c3-54,5-58,27-58
		c24,0,25,3,25,63C4840,1863,4822,1880,4733,1873z"/>
	<path class="st0" d="M4910,1873c-37-14-50-36-50-84c0-39,4-51,26-68c15-12,38-21,51-21c24,0,73,40,73,59c0,16-44,17-56,2
		c-18-23-44-6-44,29c0,33,24,50,43,31c13-13,44-15,51-2C5020,1845,4946,1887,4910,1873z"/>
	<path class="st0" d="M5060,1867c-39-20-55-62-41-108c12-41,35-59,73-59c29,0,68,26,68,46c0,17-41,19-57,3c-12-12-33-4-33,12
		c0,5,20,9,45,9c44,0,45,0,45,33C5160,1857,5107,1891,5060,1867z M5110,1820c0-5-9-10-20-10s-20,5-20,10c0,6,9,10,20,10
		S5110,1826,5110,1820z"/>
	<path class="st0" d="M5210,1867c-30-15-41-73-16-83c23-9,20-24-4-24c-45,0-8-48,42-57c54-8,90,17,86,60c-3,27-9,34-47,48
		c-24,9-40,19-35,22c6,3,16,2,24-4c18-11,60-12,60-1C5320,1864,5251,1888,5210,1867z M5263,1760c8,0,7-4-1-12c-9-9-16-8-30,6
		c-16,18-16,19,1,12C5243,1763,5257,1760,5263,1760z"/>
	<path class="st0" d="M5390,1873c-37-14-50-36-50-84c0-39,4-51,26-68c15-12,37-21,49-21c26,0,75,36,75,55s-43,23-56,6
		c-18-23-44-6-44,29c0,33,24,50,43,31c13-13,44-15,51-2C5500,1845,5426,1887,5390,1873z"/>
	<path class="st0" d="M5540,1873c-16-6-40-32-40-44c0-4,10-10,23-13l22-7l-22-11c-17-8-23-20-23-43c0-47,17-56,86-49l59,6l-5,71
		c-4,64-8,73-30,84C5584,1880,5565,1882,5540,1873z M5585,1820c-3-5-13-10-21-10s-14,5-14,10c0,6,9,10,21,10
		C5582,1830,5588,1826,5585,1820z M5580,1755c-16-19-30-19-30-1c0,8,8,16,18,18C5592,1778,5595,1773,5580,1755z"/>
	<path class="st0" d="M2530,1790c0-79,0-80,25-80s25,1,25,80s0,80-25,80S2530,1869,2530,1790z"/>
	<path class="st0" d="M2900,1790c0-79,0-80,25-80s25,1,25,80s0,80-25,80S2900,1869,2900,1790z"/>
	<path class="st0" d="M4653,1468c-45-22-21-68,34-68c39,0,60,28,43,60C4718,1482,4688,1485,4653,1468z"/>
	<path class="st0" d="M4160,1411c-29-17-205-60-280-69c-41-5-112-7-157-4c-79,4-83,4-83-16c0-73,217-80,442-14c48,13,96,33,108,44
		c24,22,26,53,4,62C4175,1421,4179,1421,4160,1411z"/>
	<path class="st0" d="M4528,1365c-54-30-211-65-288-65c-41,0-82-5-90-10c-23-15,0-43,44-54c54-14,233,17,326,57c65,28,75,36,78,60
		c3,23,0,27-20,27C4565,1379,4543,1373,4528,1365z"/>
	<path class="st0" d="M2080,515V400h75c60,0,75,3,75,15s-13,15-55,15h-55v100c0,93-1,100-20,100S2080,623,2080,515z"/>
	<path class="st0" d="M3010,515c0-108,1-115,20-115s20,7,20,115s-1,115-20,115S3010,623,3010,515z"/>
	<path class="st0" d="M3080,610c0-13,7-20,20-20s20,7,20,20s-7,20-20,20S3080,623,3080,610z"/>
	<path class="st0" d="M3270,623c1-16,28-43,44-43c19,0,20,4,6,31C3310,629,3270,639,3270,623z"/>
	<path class="st0" d="M3640,610c0-13,7-20,20-20s20,7,20,20s-7,20-20,20S3640,623,3640,610z"/>
	<path class="st0" d="M3163,613c-7-2-13-13-13-24c0-10-4-19-10-19c-5,0-10-7-10-15s5-15,10-15c6,0,10-26,10-59c0-64,15-91,51-91
		c12,0,19,7,19,20c0,11-7,20-15,20c-12,0-15,13-15,55s3,55,15,55c8,0,15,7,15,15s-7,15-15,15c-9,0-15,9-15,25
		C3190,620,3186,623,3163,613z"/>
	<path class="st0" d="M2272,554c-27-19-29-44-2-44c11,0,20,4,20,9c0,13,27,21,45,15c24-10,18-34-9-34c-68,0-101-41-71-86
		c15-23,22-25,53-20c21,3,48,6,62,6c25,0,25,0,20,75c-3,52-10,79-20,85C2347,575,2297,572,2272,554z M2350,455c0-18-34-37-54-29
		c-21,8-20,21,2,33C2323,474,2350,472,2350,455z"/>
	<path class="st0" d="M2519,549c-14-14-19-33-19-68c0-42,4-53,27-71c19-15,36-20,55-16c26,5,28,3,28-29c0-24,5-35,15-35
		c12,0,15,20,15,118v119l-51,1C2552,569,2534,564,2519,549z M2594,518c21-29,20-51-1-77c-16-19-20-20-37-8c-22,16-26,68-6,91
		C2567,545,2576,544,2594,518z"/>
	<path class="st0" d="M2671,513c1-32,4-69,8-83c8-28,49-47,77-35c11,4,27,7,37,6c15-2,17,8,17,83c0,79-2,86-20,86c-17,0-19-8-22-67
		c-3-65-4-68-28-68s-25,3-28,68c-3,59-5,67-22,67C2672,570,2670,563,2671,513z"/>
	<path class="st0" d="M2862,554c-27-19-29-44-2-44c11,0,20,4,20,9c0,13,27,21,45,15c26-10,17-34-13-34c-41,0-72-26-72-61
		c0-36,34-56,77-44c15,5,37,7,48,6c19-2,20,3,17,71c-3,52-8,77-20,86C2940,575,2889,573,2862,554z M2940,455c0-8-10-19-21-26
		c-17-9-25-8-37,5c-14,14-13,16,9,25C2926,473,2940,472,2940,455z"/>
	<path class="st0" d="M3080,485c0-78,2-85,20-85s20,7,20,85s-2,85-20,85S3080,563,3080,485z"/>
	<path class="st0" d="M3252,554c-27-19-29-44-2-44c11,0,20,4,20,9c0,13,27,21,45,15c29-12,15-31-26-37c-23-3-45-9-49-14
		c-38-40-2-100,53-89c18,4,43,6,57,6c25,0,25,1,22,73c-2,52-8,75-20,85C3330,575,3279,573,3252,554z M3330,455c0-8-10-19-21-26
		c-17-9-25-8-37,5c-14,14-13,16,9,25C3316,473,3330,472,3330,455z"/>
	<path class="st0" d="M3471,563c0-5,12-42,28-83c20-56,32-76,48-78c17-2,24,9,47,70c30,85,32,101,9,96c-9-2-23-23-32-50
		c-9-26-19-49-22-52s-13,19-23,49c-13,42-22,55-37,55C3479,570,3470,567,3471,563z"/>
	<path class="st0" d="M3640,485c0-78,2-85,20-85s20,7,20,85s-2,85-20,85S3640,563,3640,485z"/>
	<path class="st0" d="M3710,483c0-67,3-83,15-83c11,0,15,12,15,49c0,61,28,103,54,82c11-10,16-30,16-72c0-46,3-59,15-59s15,15,15,75
		c0,86-7,94-83,93l-47-1V483z"/>
	<path class="st0" d="M3891,544c-62-79,19-193,97-138c24,16,30,54,9,54c-7,0-20-9-30-20c-27-32-57-11-57,40c0,50,30,72,56,41
		c18-20,44-18,44,4c0,21-35,45-68,45C3921,570,3905,562,3891,544z"/>
	<path class="st0" d="M4045,545c-53-52-18-155,53-155c38,0,78,31,69,53c-7,18-37,24-37,7c0-5-9-14-19-20c-15-7-23-6-35,6
		c-27,26-18,34,39,34c54,0,55,0,55,30C4170,565,4092,593,4045,545z M4118,528c20-20,14-28-23-28c-38,0-46,13-17,29
		C4100,542,4104,542,4118,528z"/>
	<path class="st0" d="M4298,559c-21-12-24-62-5-77c6-5,27-13,45-17c33-7,43-29,17-39c-9-3-25,4-36,15c-20,20-49,20-49-1
		c0-20,40-50,68-50c41,0,72,26,72,61c0,19-6,32-17,36c-74,26-88,34-71,44c18,10,48,2,48-12c0-5,9-9,20-9s20,5,20,10c0,6-9,19-20,30
		C4369,571,4326,576,4298,559z"/>
	<path class="st0" d="M4452,547c-33-35-31-109,4-136c15-12,37-21,49-21c24,0,75,35,75,51c0,20-29,20-49,0c-23-23-46-19-62,10
		c-9,18-5,19,51,19c58,0,60,1,60,25c0,35-42,75-78,75C4485,570,4465,561,4452,547z M4521,530c30-16,23-30-16-30c-37,0-43,8-23,28
		C4497,543,4497,543,4521,530z"/>
	<path class="st0" d="M4600,484c0-77,2-84,20-84s20,7,20,54c0,37,5,60,16,71c27,27,44,1,44-66c0-46,3-59,15-59c11,0,15,13,15,54
		c0,58,18,90,45,80c11-5,15-23,15-70c0-57,2-64,20-64s20,7,20,63c0,92-33,127-90,97c-12-6-21-7-25,0c-3,5-30,9-60,9l-55-1V484z"/>
	<path class="st0" d="M4860,449c0-99,3-119,15-119c10,0,15,11,15,35c0,32,2,34,28,29c19-4,36,1,55,16c23,18,27,29,27,71
		c0,67-22,89-90,88l-50-2V449z M4955,516c32-49-16-121-49-74c-20,28-20,48,0,76C4925,546,4936,546,4955,516z"/>
	<path class="st0" d="M5030,484c0-68,3-84,15-84c11,0,15,12,15,46c0,55,14,84,41,84c14,0,19,5,17,18s-14,17-46,19l-42,2V484z"/>
	<path class="st0" d="M5145,545c-54-53-18-155,55-155c29,0,70,29,70,50c0,16-33,26-38,12c-8-24-40-33-56-16c-27,26-18,34,39,34
		c54,0,55,0,55,30C5270,565,5192,593,5145,545z M5218,528c20-20,14-28-23-28c-38,0-46,13-17,29C5200,542,5204,542,5218,528z"/>
</g>
</svg>
