<svg xmlns="http://www.w3.org/2000/svg" viewBox="0 0 506.17 427.68"><defs><style>.cls-1{fill:#e7001e;}.cls-2{fill:#8a8895;}.cls-3{fill:#5c546a;}.cls-4{fill:#7e5c62;}.cls-5{fill:#ffe0b1;}.cls-6{fill:#ff4f19;}</style></defs><title>s1</title><g id="Capa_1" data-name="Capa 1"><polygon class="cls-1" points="202.17 227.69 226.87 103.19 266.17 171.69 262.77 187.69 257.97 211.69 202.17 227.69"/><path class="cls-2" d="M408,249.8a24,24,0,0,0-24,25.3c.7,13,12.3,22.7,25.3,22.7h6.6a8,8,0,0,0,8-8v-32a8,8,0,0,0-8-8Z" transform="translate(2.17 -38.12)"/><path class="cls-3" d="M448,353.8a56,56,0,1,0,56,56A56,56,0,0,0,448,353.8Zm0,88a32,32,0,1,1,32-32A32,32,0,0,1,448,441.8Z" transform="translate(2.17 -38.12)"/><path class="cls-2" d="M448,417.8a8.46,8.46,0,0,1-5.7-2.3l-72-72a8,8,0,1,1,11.3-11.3l72,72a8,8,0,0,1,0,11.3A7.63,7.63,0,0,1,448,417.8Z" transform="translate(2.17 -38.12)"/><path class="cls-1" d="M296,409.8h0a48,48,0,0,1-48-48v-48H144v96H296Z" transform="translate(2.17 -38.12)"/><path class="cls-1" d="M307.4,417.8H184a8,8,0,0,1,0-16H307.4a16.22,16.22,0,0,0,13.2-6.9l52.6-76a32,32,0,0,0,3.4-30.1l-20-50a8,8,0,0,0-7.4-5H328a8,8,0,0,1,0-16h21.2a23.87,23.87,0,0,1,22.3,15.1l20,50a47.73,47.73,0,0,1-5.1,45.1l-52.6,76A32,32,0,0,1,307.4,417.8Z" transform="translate(2.17 -38.12)"/><path class="cls-4" d="M256,313.8H104a16,16,0,0,1-16-16h0a16,16,0,0,1,16-16H256a16,16,0,0,1,16,16h0A16,16,0,0,1,256,313.8Z" transform="translate(2.17 -38.12)"/><path class="cls-5" d="M152,281.8H16a16,16,0,0,1-16-16v-80a16,16,0,0,1,16-16H152a16,16,0,0,1,16,16v80A16,16,0,0,1,152,281.8Z" transform="translate(2.17 -38.12)"/><path class="cls-6" d="M368,417.8a8,8,0,0,1-8-8,88,88,0,0,1,132-76.2,8,8,0,1,1-8,13.8,72.06,72.06,0,0,0-108,62.4A8,8,0,0,1,368,417.8Z" transform="translate(2.17 -38.12)"/><path class="cls-6" d="M328,225.8H272a15.92,15.92,0,0,1-14.3-8.8l-32-64a16.12,16.12,0,0,1,7.2-21.5,16,16,0,0,1,21.5,7.2L282,193.9h46a16,16,0,1,1,0,31.9Z" transform="translate(2.17 -38.12)"/><path class="cls-3" d="M203.2,249.8H313.3a32.07,32.07,0,0,1,30.2,42.8L304.9,392A16.07,16.07,0,0,1,290,402.2a17,17,0,0,1-5.8-1.1,16,16,0,0,1-9.1-20.7l38.4-98.9L216,282a16,16,0,0,1-16-16" transform="translate(2.17 -38.12)"/><path class="cls-5" d="M295.3,74.1a7.85,7.85,0,0,0-7.3-4c-59.3,3.1-59.3,7.2-59.3,14.7,0,4.2,2.4,29.1,2.8,34.1a7.61,7.61,0,0,0,2.7,5.2,40,40,0,0,0,66.5-30A40.26,40.26,0,0,0,295.3,74.1Z" transform="translate(2.17 -38.12)"/><path class="cls-3" d="M160,409.8a32,32,0,1,1-64,0H72a56,56,0,1,0,112,0Z" transform="translate(2.17 -38.12)"/><path class="cls-6" d="M129.5,314.5a112,112,0,0,0-93.9,83.3c-2.6,10,5.2,19.8,15.6,19.8H208.4a72,72,0,0,0,7.2-39.3C211.4,336.6,171,309.1,129.5,314.5Z" transform="translate(2.17 -38.12)"/><path class="cls-1" d="M310.2,68.1c-12.3-23.4-39.1-35.3-65.7-27.7a55.91,55.91,0,0,0-32.1,82,7.71,7.71,0,0,0,6.8,3.7h23.5a11.58,11.58,0,0,0,9.9-5.6L270.9,90a8.06,8.06,0,0,1,6.9-3.9h21.5a12.27,12.27,0,0,0,10.9-18Z" transform="translate(2.17 -38.12)"/></g><g id="Layer_2" data-name="Layer 2"><path d="M62.68,185.46a80.13,80.13,0,0,1-8.3.36l-8.11.14-.08,2.78c-.06,2.11,0,2.91.33,3.33.64.86,1.39.22,1.5-1.19.08-.94.22-1.19.72-1.33a81.59,81.59,0,0,1,10.58.22c.39.39-12.16,18.52-12.85,18.54-.39,0-.89,1.11-.89,1.94,0,.53.25.53,6.88.36a89.09,89.09,0,0,1,9.49.17,9.67,9.67,0,0,0,2.8.08,28,28,0,0,0,.36-4.16c.14-3.75.14-3.94-.36-3.94-.83,0-1.33.69-1.53,2.17-.31,2.42-.08,2.33-6.69,2.3-3.19,0-5.83-.08-5.86-.11s6.55-9.94,10.1-14.85c2-2.8,3.78-5.27,3.86-5.5C65,185.93,63.32,184.85,62.68,185.46Z" transform="translate(2.17 -38.12)"/><path d="M115.81,188.73v2.91H118l.08-1.61.08-1.58,2.86-.08,2.83-.08v9.85c0,7.58-.08,9.91-.33,10.08a10.93,10.93,0,0,1-1.89.5c-1.44.25-1.53.33-1.53,1.11v.83l5.5,0h5.5l.17-.67c.19-.81-.17-1.08-1.72-1.3-2.3-.36-2.08.72-2.08-10.44v-10h2.33c2.61,0,2.66,0,2.66,2.11v1.25l1-.08,1-.08v-1.94c0-1.08,0-2.36-.06-2.86l0-.89h-18.6Z" transform="translate(2.17 -38.12)"/><path d="M76.83,190.4a2.27,2.27,0,0,1-1.72.22c-1.78-.22-3,.69-5.08,3.83-2.8,4.28-4.19,8.22-4.19,12,0,2.55.53,3.94,1.72,4.52,1.75.83,3.61-.64,5.52-4.36L74.48,204l-.17,2.64c-.08,1.44-.22,3.05-.31,3.53-.22,1.22.42,1.44,1.61.61a11.13,11.13,0,0,1,2.3-1.14c1.22-.42,1.39-.56,1.39-1.25s-.11-.81-1-.92l-1-.14-.08-1.67c0-.92.17-4.72.47-8.47s.47-6.88.42-7C77.95,189.87,77.42,190,76.83,190.4Zm-2,2.8c.89,2.36-1.58,10.58-4,13.13-1,1.08-1.33,1.08-1.64-.06-.69-2.5,1.58-9.94,3.8-12.49C74,192.67,74.56,192.51,74.84,193.2Z" transform="translate(2.17 -38.12)"/><path d="M142.63,190.4a2.27,2.27,0,0,1-1.72.22c-1.78-.22-3,.69-5.08,3.83-2.8,4.28-4.19,8.22-4.19,12,0,2.53.53,4,1.67,4.5,1.78.83,3.66-.61,5.58-4.33l1.39-2.66-.17,2.5c-.08,1.36-.22,2.94-.31,3.53-.22,1.36.36,1.64,1.61.75a11.13,11.13,0,0,1,2.3-1.14c1.22-.42,1.39-.56,1.39-1.25s-.11-.81-1-.92-1-.17-1.05-1.53c-.06-.78.11-4.14.36-7.5.64-8.24.64-8.3.14-8.38A1.56,1.56,0,0,0,142.63,190.4Zm-1.94,3.08c.72,2.83-2.08,11.3-4.36,13.21-.83.69-1,.64-1.33-.5-.69-2.53,1.58-9.83,3.89-12.46C139.91,192.56,140.43,192.51,140.68,193.48Z" transform="translate(2.17 -38.12)"/><path d="M85.47,190.65a8.77,8.77,0,0,0-5.3,6,25.71,25.71,0,0,0-.72,8.63c.31,2.47.44,2.89,1.3,4.08a4,4,0,0,0,4,1.67A3.19,3.19,0,0,0,87.36,210a7.54,7.54,0,0,0,2.36-5.33c0-1.17-.11-1.61-.36-1.61-.56,0-1.17.83-1.58,2.19s-1.89,3.08-2.58,3.08-1.8-1.58-2.17-3.25a30.4,30.4,0,0,1,.31-8.83c.58-2.14,1.17-3.19,1.89-3.39s1.17.25,1.17,1.47a12.42,12.42,0,0,0,.17,1.75c.17.83.25.86,1.53.86h1.36v-5.8l-.83-.44A3.52,3.52,0,0,0,85.47,190.65Z" transform="translate(2.17 -38.12)"/><path d="M102.32,190.54a5.46,5.46,0,0,0-1.44,1.22c-2.11,2.42-3.14,5.91-3.14,10.85,0,6.58,1.44,8.63,6,8.49.89,0,1.28-.22,2.17-1.14a7.76,7.76,0,0,0,2.3-4.91c.33-2.83-1.08-2.55-2,.39-1.5,4.75-5,3.3-5.55-2.25l-.14-1.72,2.17-.5c4.61-1.08,4.66-1.14,4.66-5.3,0-3.78-1.08-5.44-3.53-5.39A4.52,4.52,0,0,0,102.32,190.54Zm1.47,1.89c.67.42,1,1.83.78,3.72-.22,2.19-.67,2.72-2.53,2.94l-1.3.14.19-1.75c.25-2.11,1.14-4.61,1.78-5S103.37,192.15,103.79,192.42Z" transform="translate(2.17 -38.12)"/><path d="M151.26,190.65a8.85,8.85,0,0,0-5.3,5.94,26.44,26.44,0,0,0-.72,8.88c.36,2.55.81,3.64,1.92,4.58a4.15,4.15,0,0,0,3.66,1c1.67-.17,2.94-1.25,4-3.39.81-1.58,1-4.61.33-4.61s-1.22.86-1.61,2.19-1.86,3.08-2.55,3.08-1.8-1.55-2.11-3.05c-1-4.61.47-12.49,2.3-12.49.72,0,1,.47,1,1.67a11.7,11.7,0,0,0,.17,1.64c.17.83.25.86,1.53.86h1.36v-5.8l-.83-.44A3.52,3.52,0,0,0,151.26,190.65Z" transform="translate(2.17 -38.12)"/><path d="M43.22,199.11a20,20,0,0,0-7.55,4.58c-2.33,2.33-2.66,3.22-2.64,7,0,3.53,1,6.14,3.78,9.83a46.32,46.32,0,0,0,8,6.86,1.93,1.93,0,0,1,1.17,2.05c-.17.67-1.69,1.55-3.78,2.22s-2,.64-7.41.11c-1.78-.17-1.83-.14-3.5,1a7.64,7.64,0,0,1-2.17,1.14,13.11,13.11,0,0,1-3-2.53,34.66,34.66,0,0,0-4.05-3.5l-1.47-.94.75-.81c.75-.78.75-.83.56-3.39s-.17-2.61.53-3.25a1.66,1.66,0,0,0-.14-2.83c-1.14-.81-1.69-2.17-1.89-4.66s-.53-2.8-2.22-2.25a2.79,2.79,0,0,1-2.39-.11c-.94-.39-1.28-.67-1.42-1.22-.78-3.66-1.36-4.05-5.66-3.78a10.67,10.67,0,0,0-4.33.86,11.45,11.45,0,0,0-4.69,4.08,9.56,9.56,0,0,0-1.8,6.3,7.93,7.93,0,0,0,.81,4.25c1.14,2.5,2.28,3,4.52,1.8,1.08-.56,1.17-.56,2.17-.11a8.49,8.49,0,0,1,2.08,1.53c1,1,1,1.17.86,2.25s-.14,1.14.31.94a2.44,2.44,0,0,1,2.39-.06A15.87,15.87,0,0,1,13.43,228,25.19,25.19,0,0,0,16,229.65a23.13,23.13,0,0,1,2,1.28,102,102,0,0,1,7.38,7.41c2,2.19,1.33.64-1.47-3.55A53.48,53.48,0,0,1,21,230c-.22-.75.25-.81,1.28-.11s9.38,10.1,9.58,10.85c.17.53,0,.83-.75,1.44s-1.19.78-2.78.81c-3.69,0-5.66-1.39-8-5.69a15.81,15.81,0,0,0-2.83-3.78,22.92,22.92,0,0,0-7.05-4.14c-1.25-.39-2.08-1-2.08-1.58,0-.89-.78-.22-1.61,1.36A43,43,0,0,0,3,242c-.33,3.16.61,11,1.64,13.52A8.77,8.77,0,0,1,5,258.38c0,1.8,0,1.8,1.55,3.47.92,1,1.5,1.86,1.44,2.17s-.61.78-1.28,1.14-1.17.78-1.17.92,6.14.25,15.38.25H36.36l.14-.89a28.75,28.75,0,0,0,.08-3.44c0-1.92-.14-2.66-.53-3.19a19.63,19.63,0,0,1-2.69-4.47c0-1.25.75-2,4-3.91,3-1.78,6.33-3.94,9.8-6.41,4.94-3.53,12.1-6.55,15.55-6.55a3.34,3.34,0,0,0,3.28-1.8c.61-1.47,1.11-1.61,3.58-1a157.41,157.41,0,0,0,18,2.66,183.57,183.57,0,0,0,23.1.11,108.62,108.62,0,0,0,25.43-5.3A87.88,87.88,0,0,0,150.93,225c5.33-3.5,7.94-6.14,9.69-9.74,1.11-2.33,1.14-2.44,1.14-5.3,0-4-.78-6.11-2.25-6.11-.83,0-.89.28-.75,3.19.17,3.19-.25,6.44-1,8.05-1,2.05-3.05,4.05-7.19,6.91-8.38,5.8-15.38,8.44-28.34,10.72-1,.17-2.36.42-3.05.56s-2.36.31-3.75.42-3.69.22-5.14.33a216,216,0,0,1-23.51-.33c-4.75-.61-5.55-.92-2.53-.94,4.11-.06,6.41-.86,5.94-2.14-.14-.39-.47-.42-2.47-.28a37.09,37.09,0,0,1-9.58-.22,18.53,18.53,0,0,0-3-.44c-.89,0-1,.06-.81.61.28.92.47,1.05,2.14,1.64l1.47.53-1.39-.14c-.75-.08-2-.28-2.78-.42l-3.19-.56c-2.11-.36-10-2.53-9.88-2.69a7.33,7.33,0,0,1,1.78.31c2,.53,6.47.58,6.94.11a1.28,1.28,0,0,0-1-2.17,22.42,22.42,0,0,1-2.78-.53c-1.19-.31-3.47-.86-5.05-1.25a23.35,23.35,0,0,1-5.27-2c-2.64-1.39-4-1.55-4.14-.47-.14.89,1.17,2.14,3.69,3.55a12.19,12.19,0,0,1,2,1.25c-.69,0-5.89-2.28-9.36-4.05-4.83-2.53-6.77-3.83-9.16-6.22-4.36-4.36-4.58-8.24-.64-12.49a12.51,12.51,0,0,1,4.39-3,27,27,0,0,0,3.08-1.72c.17-.31-.11-1.36-.39-1.33A12.82,12.82,0,0,0,43.22,199.11Zm-32.92,6.47c1.53.33,2,.89,1.14,1.33-.42.22-.56.58-.56,1.39s-.11,1.11-.39,1.11c-.69,0-2.05,1.36-2.25,2.22-.28,1.28-1,1.53-2.53.83s-1.5-.67-1.5-.08A3.89,3.89,0,0,0,5,213.86c1,1.17,1.05,2.17.11,3.19-.72.78-1.3.81-3.66.22-1-.25-.75.58.42,1.33s1.39,1.64.28,2.05c-.72.25-.89.17-1.72-.75-1.11-1.19-1.53-2.55-1.53-4.8a9.29,9.29,0,0,1,1.69-5.3,9.68,9.68,0,0,1,5-3.91A6.31,6.31,0,0,1,10.29,205.58Zm3.91,5.36a17.29,17.29,0,0,1-2,2.8A24.09,24.09,0,0,0,9.43,218a12.77,12.77,0,0,1-1.53,2.55c-.67.69-.78.72-1.47.36A1.66,1.66,0,0,1,6,218a15.25,15.25,0,0,0,1.86-3c1.14-2.39,3.05-4.44,4.41-4.8C13.07,210,14.21,210.47,14.21,210.94Zm-4.72,21c-.67,1.25-2.78,1.25-2.78,0,0-.5.19-.56,1.53-.56S9.77,231.37,9.49,231.9ZM53.35,233c0,1.8-2.17,4.55-4.5,5.77a11,11,0,0,1-2.83.69,15,15,0,0,0-2.94.64c-3.94,1.55-4.11,1.61-4.77,1.25-.86-.44-.81-.39-.61-.92.28-.69,6-5.75,6.94-6.16a22.1,22.1,0,0,1,3-.81,27.32,27.32,0,0,0,3.44-1C53.07,231.65,53.35,231.71,53.35,233Zm26.29-.33a.56.56,0,0,1-.53,0c-.22-.08-.14-.17.17-.17S79.75,232.54,79.64,232.62ZM34.89,234.2c.92,2,1.19,4.39.56,5s-1.33.19-2.08-1.53-1-3.19-.58-4.19C33.28,232.2,34.11,232.48,34.89,234.2Zm-19.57.36c2,.69,2.19,1.5.69,2.69l-1,.81-2.89-.89a11.71,11.71,0,0,0-3.19-.69c-.53.33-.28,1.19.5,1.75.56.42,1.36.58,3.19.67s2.58.25,3.28.75a5.65,5.65,0,0,0,2.14.83c1,.11,1.33.31,1.39.69.17.78-.42,1-2.58,1A13.46,13.46,0,0,1,10,240.37c-2-1.05-2.36-.92-1.17.5s5.33,3.8,6.72,3.8a5.8,5.8,0,0,0,1.8-.42,6.49,6.49,0,0,1,4.41,0,21.27,21.27,0,0,0,3.8.58c4.08.31,4.55,1.14,3.25,5.66-.78,2.69-1.14,3.22-.89,1.28.5-4.11.53-4.3.19-4.3-.53,0-1.5,2.53-1.53,4-.06,2.61-1.08,1.78-2.47-1.94-.61-1.64-1.05-2.5-1.39-2.55-.78-.17-.58.72,1.17,5,1.42,3.47,1.58,4.05,1.25,4.41s-.56.33-1.67-.25a13.48,13.48,0,0,1-4.72-4.41c-1.36-2.14-2.42-2.83-4.55-3a3.25,3.25,0,0,1-2.53-1,9.12,9.12,0,0,1-1.42-2,29.83,29.83,0,0,0-4.05-5.22C5,239.15,5,239,5.16,237.84c.36-2.75,1.89-3.66,6.14-3.69A13.08,13.08,0,0,1,15.32,234.56Zm-9.24,7.61A78.47,78.47,0,0,1,11.4,251a20,20,0,0,0,2.91,4.19c1.08,1,1.39,1.11,3.66,1.44,3.22.44,3.66.64,4.83,1.94a4.92,4.92,0,0,0,1.92,1.39c.81.22,1,.17,1.5-.39s.61-.64,1.5-.22a1.93,1.93,0,0,0,1.72.17,2,2,0,0,1,1.39-.06,1.32,1.32,0,0,0,1.22-.19,2.68,2.68,0,0,1,1.28-.42c.67,0,.67,0,.47,2-.19,2.19-.33,2.44-1.78,3.33-1.11.67-2.42.69-14.07.28l-5-.19L11,262.94c-3.11-2.08-5.41-5.19-4.19-5.66.61-.22,2.64.61,3.55,1.47a3.37,3.37,0,0,0,2.36.86,5.2,5.2,0,0,1,2.42.69,5.68,5.68,0,0,0,2.17.69c1.25.11,1.39.08,1.28-.39s-1.53-1.25-4.94-2.91c-5.44-2.69-5.94-3.14-7.72-6.58a14.81,14.81,0,0,1-2-7.47C3.94,240.53,4.35,240.26,6.07,242.17Zm28.12,1.58a6.64,6.64,0,0,1-.56,2.28,4.73,4.73,0,0,0-.39,2.94c.17,1.64.14,1.75-.42,1.94-.78.25-1.25-.33-1.83-2.22s-.83-3.94-.44-4.41a4.51,4.51,0,0,1,1.55-.72,4.63,4.63,0,0,0,1.42-.58C33.86,242.42,34.19,242.81,34.19,243.75Zm-19.57,6.83a5.29,5.29,0,0,1,.58,1.53c.17.81.14.89-.39.69a3,3,0,0,1-2-2.25,2.14,2.14,0,0,1,.17-1C13.26,249.33,14.15,249.89,14.62,250.58Zm3,1.44c.67,1.42.69,1.53.19,1.53s-1.28-.94-1.53-2.17C16,249.94,16.76,250.3,17.59,252Zm13.41.69c0,.5-.92.72-1.3.33a.51.51,0,0,1-.08-.61C29.89,252,31,252.22,31,252.72Z" transform="translate(2.17 -38.12)"/><path d="M37.05,208.78a5.82,5.82,0,0,0-.58,2.61,5.6,5.6,0,0,0,.58,3.41c.58,1.28.83,1.55,1.39,1.55,1,0,1.05-.53.28-2.36a6,6,0,0,1-.53-3.83c.14-1.8.11-2.14-.25-2.14S37.33,208.36,37.05,208.78Z" transform="translate(2.17 -38.12)"/><path d="M65.84,213.61c0,.72-.08.81-.56.67a2.22,2.22,0,0,0-2,.81,4.49,4.49,0,0,0-.22,1.61,2.44,2.44,0,0,0,.56,1.89c.56.56,1.78.75,2.05.31a1.1,1.1,0,0,1,.86-.08l.69.11v-6.16h-.69C66,212.74,65.84,212.88,65.84,213.61Zm-.06,2.83c.11,1-.42,1.72-.94,1.28a2,2,0,0,1-.19-2C65.06,215.27,65.7,215.69,65.79,216.44Z" transform="translate(2.17 -38.12)"/><path d="M68.06,213.44c0,.56.14.69.69.69s.69-.14.69-.69-.14-.69-.69-.69S68.06,212.88,68.06,213.44Z" transform="translate(2.17 -38.12)"/><path d="M72.5,215.8v3.05h.67c.64,0,.69-.14.78-1.33l.08-1.3.86.83A6.6,6.6,0,0,1,76,218.38c.22.36.56.5,1.17.42l.89-.08-.83-1.22c-.78-1.22-.81-1.25-.28-1.61a1.94,1.94,0,0,0,.06-2.66c-.39-.36-1.05-.47-2.5-.47h-2Zm3.19-1.58c.69.53.28,1-.86,1-.83,0-.94-.08-.94-.69s.14-.69.64-.69A2.5,2.5,0,0,1,75.7,214.22Z" transform="translate(2.17 -38.12)"/><path d="M78.33,213.44c0,.56.14.69.69.69s.69-.14.69-.69-.14-.69-.69-.69S78.33,212.88,78.33,213.44Z" transform="translate(2.17 -38.12)"/><path d="M99.71,213.55c0,.75-.08.81-1,.78-1.3,0-2.05.83-2.05,2.36s1.05,2.58,2.28,2.33a10.73,10.73,0,0,1,1.5-.17c.67,0,.67,0,.67-3.05v-3.05h-.69C99.82,212.74,99.71,212.88,99.71,213.55Zm-.14,2.53c.25.81-.11,1.67-.69,1.67a.8.8,0,0,1-.69-.56c-.25-.81.11-1.67.69-1.67A.8.8,0,0,1,99.57,216.08Z" transform="translate(2.17 -38.12)"/><path d="M115.53,215.8v3.05h.69c.64,0,.69-.11.69-1.25v-1.25h1.25c1.05,0,1.25-.08,1.25-.56s-.19-.56-1.25-.56-1.25-.06-1.25-.69.08-.69,1.53-.69,1.53-.06,1.53-.56-.19-.56-2.22-.56h-2.22Z" transform="translate(2.17 -38.12)"/><path d="M81.47,214.41a2.28,2.28,0,0,0-1.19,2.36c0,2,2.3,3.11,3.61,1.8.75-.75.69-1.3-.14-1.44-.47-.11-.69,0-.69.25s-.22.36-.61.31-.67-.31-.72-1c-.11-1,.56-1.5,1.14-.92a1.07,1.07,0,0,0,1.47,0c.25-.42-.69-1.28-1.55-1.47A2.57,2.57,0,0,0,81.47,214.41Z" transform="translate(2.17 -38.12)"/><path d="M85.91,214.41a2.28,2.28,0,0,0-1.19,2.36c0,2,2.3,3.11,3.61,1.8.75-.75.69-1.3-.14-1.44-.47-.11-.69,0-.69.25s-.22.36-.61.31-.67-.31-.72-1c-.11-1,.56-1.5,1.14-.92a1.07,1.07,0,0,0,1.47,0c.25-.42-.69-1.28-1.55-1.47A2.57,2.57,0,0,0,85.91,214.41Z" transform="translate(2.17 -38.12)"/><path d="M90.41,214.33c-.53.14-1.25.83-1.25,1.22,0,.11.28.25.64.36l.61.17-.61.42a1.47,1.47,0,0,0-.08,2.36,4.26,4.26,0,0,0,2,.11l1.47-.17-.08-1.89a5.61,5.61,0,0,0-.42-2.19A3.26,3.26,0,0,0,90.41,214.33Zm1.25,1.47c0,.14-.25.28-.56.28s-.56-.14-.56-.28.25-.28.56-.28S91.66,215.63,91.66,215.8Zm-.22,2a.53.53,0,0,1-.89-.33c0-.33.94-.5,1.08-.19A.56.56,0,0,1,91.44,217.8Z" transform="translate(2.17 -38.12)"/><path d="M94.8,214.33l-.92.11v2.22c0,2.14,0,2.19.69,2.19s.67-.11.75-1.61.17-1.58.64-1.58a.71.71,0,0,0,.36-1.28.81.81,0,0,0-.5-.19C95.74,214.22,95.27,214.27,94.8,214.33Z" transform="translate(2.17 -38.12)"/><path d="M103.12,214.33c-.92.17-1.47,1.14-1.47,2.47,0,.94.14,1.3.72,1.75a2.25,2.25,0,0,0,3.72-1.92c0-1.05-.72-2.22-1.36-2.22a3.43,3.43,0,0,1-.64-.11A2.93,2.93,0,0,0,103.12,214.33Zm1.47,1.89c.25,1-.06,1.58-.78,1.47-1.08-.14-1.05-2.17,0-2.17C104.23,215.52,104.48,215.77,104.6,216.21Z" transform="translate(2.17 -38.12)"/><path d="M109.79,214.41a2.28,2.28,0,0,0-1.19,2.36c0,2,2.3,3.11,3.61,1.8a2,2,0,0,0,.56-.83c0-.39-1.22-.33-1.61.06s-.44.22-.81-.14-.39-.47,1-.47,1.44,0,1.44-.81A2.16,2.16,0,0,0,109.79,214.41Zm1.44,1.39c.11.17-.14.28-.56.28s-.67-.11-.56-.28a.69.69,0,0,1,1.11,0Z" transform="translate(2.17 -38.12)"/><path d="M121.45,214.33l-.92.11v2.22c0,2.14,0,2.19.69,2.19s.67-.11.75-1.61.17-1.58.64-1.58a.71.71,0,0,0,.36-1.28.81.81,0,0,0-.5-.19C122.39,214.22,121.92,214.27,121.45,214.33Z" transform="translate(2.17 -38.12)"/><path d="M124.5,214.41a2.21,2.21,0,0,0-.89.78c-.25.47-.19.58.33.72.33.08.67,0,.69-.11.11-.33,1.17-.36,1.17-.06,0,.14-.44.36-1,.5-1.19.31-1.61.86-1.39,1.83s.75,1.08,2.53.89l1.44-.17-.11-1.86a5.17,5.17,0,0,0-.44-2.17A2.4,2.4,0,0,0,124.5,214.41Zm1.08,3.39a.53.53,0,0,1-.89-.33c0-.33.94-.5,1.08-.19A.56.56,0,0,1,125.58,217.8Z" transform="translate(2.17 -38.12)"/><path d="M129.22,214.33l-1.19.11v2.22c0,2.14,0,2.19.69,2.19s.67-.11.75-1.61.17-1.58.64-1.58.56.22.64,1.58.14,1.61.75,1.61.69-.08.69-1.75C132.19,214.6,131.69,214.13,129.22,214.33Z" transform="translate(2.17 -38.12)"/><path d="M134.13,214.33c-1,.39-1.39,1-1.39,2.33,0,1.08.11,1.42.72,1.89a2.76,2.76,0,0,0,1.42.58c.67,0,2-1.11,2-1.64s-1.22-.47-1.55-.06c-.5.64-1.22.17-1.22-.81s.67-1.39,1.19-.86c.36.36,1.22.42,1.42.06C137.19,215.1,135.13,213.94,134.13,214.33Z" transform="translate(2.17 -38.12)"/><path d="M138.3,214.49a2.4,2.4,0,0,0-1.14,3,1.94,1.94,0,0,0,2,1.64c.81,0,1.89-.72,1.89-1.28s-1.14-.53-1.58-.08a.53.53,0,0,1-.92-.33c0-.14.56-.25,1.25-.25,1.22,0,1.25,0,1.25-.92A1.91,1.91,0,0,0,138.3,214.49Zm1.39,1.3c0,.14-.25.28-.56.28s-.56-.14-.56-.28.25-.28.56-.28S139.68,215.63,139.68,215.8Z" transform="translate(2.17 -38.12)"/><path d="M142.46,214.49c-.83.42-1.14,2-.44,2.3s.56.67-.11.67c-1.25,0-.22,1.33,1.17,1.58s2.5-.47,2.39-1.67c-.08-.75-.25-.94-1.3-1.33-.67-.25-1.11-.53-1-.61a.68.68,0,0,1,.67.11c.5.31,1.67.33,1.67,0C145.51,214.58,143.6,213.91,142.46,214.49Zm1.47,3c.22,0,.19.11,0,.33s-.44.22-.83-.17-.44-.53,0-.33A4,4,0,0,0,143.93,217.46Z" transform="translate(2.17 -38.12)"/><path d="M147.46,214.33c-1,.39-1.39,1-1.39,2.33,0,1.08.11,1.42.72,1.89a2.69,2.69,0,0,0,1.36.58c.72,0,2.08-1,2.08-1.53s-1.19-.64-1.55-.17c-.5.64-1.22.17-1.22-.81s.67-1.39,1.19-.86c.36.36,1.22.42,1.42.06C150.51,215.1,148.46,213.94,147.46,214.33Z" transform="translate(2.17 -38.12)"/><path d="M151.62,214.33c-.44.17-1.11.89-1.11,1.22,0,.11.28.28.64.36l.61.19-.61.31c-.47.22-.64.56-.64,1.19,0,1.3.47,1.55,2.39,1.36l1.64-.17-.14-2c-.11-1.78-.22-2-.83-2.33A2.2,2.2,0,0,0,151.62,214.33Zm1.25,1.47a.78.78,0,0,1-.58.28c-.22,0-.39-.14-.39-.28s.25-.28.58-.28S153,215.63,152.87,215.8Zm-.14,1.8c-.44.53-.83.53-.83,0a.59.59,0,0,1,.5-.5C153.06,217,153.15,217.1,152.73,217.6Z" transform="translate(2.17 -38.12)"/><path d="M68.06,216.63c0,2.19,0,2.22.69,2.22s.69,0,.69-2.22,0-2.22-.69-2.22S68.06,214.44,68.06,216.63Z" transform="translate(2.17 -38.12)"/><path d="M78.33,216.63c0,2.19,0,2.22.69,2.22s.69,0,.69-2.22,0-2.22-.69-2.22S78.33,214.44,78.33,216.63Z" transform="translate(2.17 -38.12)"/><path d="M127,225.57c-1.25.61-.58,1.89.94,1.89,1.08,0,1.67-.78,1.19-1.67C128.8,225.18,128,225.1,127,225.57Z" transform="translate(2.17 -38.12)"/><path d="M113.31,227.15a40.58,40.58,0,0,1-7.77,1.92,28.21,28.21,0,0,1-4.36.11c-2.19-.11-2.3-.11-2.3.44,0,2,6,2.22,12.27.39a10.28,10.28,0,0,0,3-1.22c.67-.61.72-1.47.11-1.72S113.84,226.87,113.31,227.15Z" transform="translate(2.17 -38.12)"/><path d="M123.53,228.43a23.64,23.64,0,0,1-8,1.8,8.23,8.23,0,0,0-2.5.28c-.64.42,0,1.19,1.22,1.5,1.5.39,6.47-.47,9-1.58,1.8-.78,2.08-1,2.17-1.67s0-.75-.56-.75A4.13,4.13,0,0,0,123.53,228.43Z" transform="translate(2.17 -38.12)"/><path d="M55.57,252v3.19h2.08c1.67,0,2.08-.08,2.08-.42s-.36-.42-1.53-.42H56.68v-2.78c0-2.58,0-2.78-.56-2.78S55.57,249,55.57,252Z" transform="translate(2.17 -38.12)"/><path d="M81.39,252c0,3,0,3.19.56,3.19s.56-.19.56-3.19,0-3.19-.56-3.19S81.39,249,81.39,252Z" transform="translate(2.17 -38.12)"/><path d="M83.33,249.39a.56.56,0,1,0,.56-.56A.5.5,0,0,0,83.33,249.39Z" transform="translate(2.17 -38.12)"/><path d="M88.61,249a1.71,1.71,0,0,0,1.22,1.19c.53,0,.56-.11.17-.86C89.72,248.86,88.61,248.58,88.61,249Z" transform="translate(2.17 -38.12)"/><path d="M98.88,249.39a.56.56,0,1,0,.56-.56A.5.5,0,0,0,98.88,249.39Z" transform="translate(2.17 -38.12)"/><path d="M85.63,249.31a.71.71,0,0,0-.36.67c0,.28-.11.53-.28.53s-.28.19-.28.42.14.42.28.42.28.72.28,1.64c0,1.78.42,2.53,1.42,2.53a.49.49,0,0,0,.53-.56c0-.31-.19-.56-.42-.56s-.42-.36-.42-1.53.08-1.53.42-1.53a.42.42,0,1,0,0-.83c-.25,0-.42-.25-.42-.69C86.38,249.11,86.27,249,85.63,249.31Z" transform="translate(2.17 -38.12)"/><path d="M60.9,250.94c-.75.53-.81,1.22-.06,1.22.31,0,.56-.11.56-.25,0-.36.75-.58,1.25-.42.67.28.5.94-.25.94-1.89,0-2.8,1.14-2,2.39.42.64.61.69,1.47.56a15.42,15.42,0,0,1,1.72-.17c.69,0,.69,0,.56-2.08-.08-1.44-.28-2.19-.56-2.36A2.89,2.89,0,0,0,60.9,250.94Zm2.17,2.75c0,.5-.94,1-1.5.81s-.56-.58.06-.92S63.07,253.22,63.07,253.69Z" transform="translate(2.17 -38.12)"/><path d="M67.76,251.08a2.44,2.44,0,0,0-.53,1.89c0,1.17.11,1.47.75,2a1.75,1.75,0,0,0,1.53.44c.72-.14.78-.08.78.81,0,.67.14,1,.42,1s.42-.56.42-3.28v-3.3l-1.42,0A2.34,2.34,0,0,0,67.76,251.08Zm2.08.86a1.52,1.52,0,0,1,0,2.14c-.44.53-.56.56-1,.22a2,2,0,0,1-.17-2.53C69.09,251.19,69.34,251.22,69.84,251.94Z" transform="translate(2.17 -38.12)"/><path d="M72,252.08a13.33,13.33,0,0,0,.22,2.3,1.71,1.71,0,0,0,2.14,1,2.74,2.74,0,0,1,1-.17c.42.06.47-.22.47-2.3s-.06-2.39-.56-2.39-.53.22-.61,1.86c-.08,1.8-.11,1.89-.78,1.89s-.69-.08-.78-1.89c-.08-1.64-.14-1.86-.61-1.86S71.95,250.69,72,252.08Z" transform="translate(2.17 -38.12)"/><path d="M77.28,250.94c-.75.53-.81,1.22-.06,1.22.31,0,.56-.11.56-.25,0-.36.75-.58,1.25-.42.72.28.47.94-.36.94a1.82,1.82,0,0,0-2,1.69c0,1,.94,1.55,2.14,1.22a4,4,0,0,1,1.33-.17c.53.06.56-.08.47-2-.08-1.44-.22-2.14-.56-2.39A2.77,2.77,0,0,0,77.28,250.94Zm2.17,2.75c0,.22-.28.53-.58.72-.47.25-.69.22-1-.14s-.36-.44.25-.69C79.06,253.19,79.44,253.22,79.44,253.69Z" transform="translate(2.17 -38.12)"/><path d="M83.33,252.86c0,2.17.06,2.36.56,2.36s.56-.19.56-2.36-.06-2.36-.56-2.36S83.33,250.69,83.33,252.86Z" transform="translate(2.17 -38.12)"/><path d="M88.11,250.94c-.75.53-.81,1.22-.06,1.22.31,0,.56-.11.56-.25,0-.36.75-.58,1.25-.42.81.33.42.86-.72,1a3.18,3.18,0,0,0-1.36.39,1.49,1.49,0,0,0,1.47,2.47,8.53,8.53,0,0,1,1.58-.17c.69,0,.69,0,.61-2-.06-1.44-.22-2.08-.56-2.36A2.77,2.77,0,0,0,88.11,250.94Zm2.17,2.75c0,.22-.28.53-.58.72-.47.25-.69.22-1-.14s-.36-.44.25-.69C89.88,253.19,90.27,253.22,90.27,253.69Z" transform="translate(2.17 -38.12)"/><path d="M94.19,250.69A17.27,17.27,0,0,0,95,253c.56,1.55.89,2.11,1.33,2.17s.67-.25,1.3-1.94c.83-2.36.89-2.8.25-2.66-.25.06-.64.64-.89,1.39a7.77,7.77,0,0,1-.61,1.44c-.08.08-.36-.53-.64-1.36-.36-1.17-.61-1.53-1-1.53S94.16,250.58,94.19,250.69Z" transform="translate(2.17 -38.12)"/><path d="M98.88,252.86c0,2.17.06,2.36.56,2.36s.56-.19.56-2.36-.06-2.36-.56-2.36S98.88,250.69,98.88,252.86Z" transform="translate(2.17 -38.12)"/><path d="M100.82,252.91c0,1.86.08,2.3.42,2.3s.42-.33.42-1.36c0-1.69.78-2.86,1.5-2.28.31.28.44.83.44,2s.08,1.64.42,1.64.42-.42.42-2.08c0-2.39-.19-2.61-2.3-2.58l-1.3,0Z" transform="translate(2.17 -38.12)"/><path d="M105.84,251.22c-1.72,2.19.53,5.36,2.69,3.83.67-.44.83-1.5.25-1.5a1.6,1.6,0,0,0-.83.56c-.75.89-1.58.31-1.58-1.11s.83-2,1.55-1.14c.5.56,1.22.5,1.22-.11s-1-1.25-1.89-1.25A1.68,1.68,0,0,0,105.84,251.22Z" transform="translate(2.17 -38.12)"/><path d="M110.12,251.19c-1.47,1.44-.5,4.3,1.47,4.3,1.05,0,2.17-.86,1.92-1.47s-1-.67-1-.19c0,.14-.25.39-.53.56a.71.71,0,0,1-1-.17c-.75-.72-.5-.94,1.08-.94s1.53,0,1.53-.83A2,2,0,0,0,110.12,251.19Zm2,.47c.56.56.39.78-.64.78s-1.28-.36-.47-.81C111.65,251.28,111.76,251.28,112.15,251.66Z" transform="translate(2.17 -38.12)"/><path d="M117.14,250.8a1.58,1.58,0,0,0-.14,2.14,4,4,0,0,0,1.25.47c.92.19,1.19.81.47,1.08a1.2,1.2,0,0,1-1-.42c-.56-.56-1.36-.56-1.36,0s1.11,1.39,1.89,1.39a1.82,1.82,0,0,0,2-1.69c0-.53-.17-.89-.47-1-2.05-.72-2.44-.94-2-1.22s1.33-.06,1.33.33c0,.14.25.25.56.25s.56-.14.56-.28a1.84,1.84,0,0,0-.56-.83A2.25,2.25,0,0,0,117.14,250.8Z" transform="translate(2.17 -38.12)"/><path d="M121.42,251.14a2.86,2.86,0,0,0,.11,3.78,2.69,2.69,0,0,0,1.36.58c.67,0,2.08-1,2.08-1.42s-.81-.56-1.36,0-1.28.53-1.72-.28c-.25-.5-.14-.53,1.42-.53s1.67,0,1.67-.69a2.42,2.42,0,0,0-2.17-2.08A2,2,0,0,0,121.42,251.14Zm1.92.47c.83.44.64.83-.44.83s-1.19-.22-.64-.78S122.67,251.25,123.33,251.61Z" transform="translate(2.17 -38.12)"/><path d="M125.53,252.89c0,2.14.06,2.33.56,2.33s.56-.19.56-1.5a2.91,2.91,0,0,1,.44-2c.75-.75,1.22,0,1.22,1.83,0,1.28.08,1.64.42,1.64s.42-.36.42-1.5c0-1.61.5-2.5,1.25-2.22.31.14.42.64.42,1.94,0,1.58.06,1.78.56,1.78s.56-.19.56-1.75c0-2.55-.92-3.53-2.5-2.69-.33.17-.58.19-.69,0a3.47,3.47,0,0,0-1.67-.25l-1.53,0Z" transform="translate(2.17 -38.12)"/><path d="M132.74,253.86c0,2.75.08,3.3.42,3.3s.42-.31.42-1c0-.89.06-.94.78-.81a1.75,1.75,0,0,0,1.53-.44c.64-.5.75-.81.75-2,0-1.86-.61-2.47-2.5-2.44l-1.39.06Zm2.64-1.86c.89,1.36-.44,3.36-1.36,2.05a1.54,1.54,0,0,1,0-2.11C134.55,251.17,134.85,251.17,135.38,252Z" transform="translate(2.17 -38.12)"/><path d="M137.46,252.89c0,1.89.08,2.33.42,2.33s.42-.33.42-1.28c0-1.53.39-2.33,1.14-2.33.39,0,.53-.14.47-.5s-.39-.47-1.28-.53l-1.17-.06Z" transform="translate(2.17 -38.12)"/><path d="M140.66,251.19c-1.5,1.47-.5,4.3,1.53,4.3.81,0,1.94-.81,1.94-1.39s-.92-.72-1.05-.33a1,1,0,0,1-1.55.44c-.75-.72-.5-.94,1.08-.94s1.53,0,1.53-.83A2,2,0,0,0,140.66,251.19Zm2,.47c.56.56.39.78-.64.78s-1.28-.36-.47-.81C142.18,251.28,142.29,251.28,142.68,251.66Z" transform="translate(2.17 -38.12)"/></g></svg>