<?xml version="1.0" encoding="iso-8859-1"?>
<!-- Generator: Adobe Illustrator 19.0.0, SVG Export Plug-In . SVG Version: 6.00 Build 0)  -->
<svg version="1.1" id="Capa_1" xmlns="http://www.w3.org/2000/svg" xmlns:xlink="http://www.w3.org/1999/xlink" x="0px" y="0px"
	 viewBox="0 0 163.868 163.868" style="enable-background:new 0 0 163.868 163.868;" xml:space="preserve">
<g>
	<g>
		<path style="fill:#010002;" d="M55.152,108.847h-7.603c0-0.186-0.004-41.129-0.011-42.034c-0.182-3.245-3.004-5.911-6.415-5.911
			c-3.349,0-6.163,2.606-6.408,5.94c-0.011,1.114-0.019,41.752-0.019,42.005h-7.603c0-15.727,0.007-42.168,0.045-42.614
			c0.531-7.232,6.679-12.935,13.986-12.935c7.448,0,13.603,5.821,14.011,13.262C55.152,66.931,55.152,108.431,55.152,108.847z"/>
		<path style="fill:#010002;" d="M55.089,76.235h-7.603c0-10.484,0-62.788,0.037-63.256C48.057,5.703,54.205,0,61.516,0
			c7.451,0,13.607,5.829,14.008,13.262c0.011,0.319,0.019,42.094,0.019,42.28h-7.603c0-0.186-0.007-41.322-0.011-42.042
			c-0.178-3.23-3-5.896-6.412-5.896c-3.349,0-6.167,2.614-6.412,5.948C55.096,14.747,55.089,75.983,55.089,76.235z"/>
		<path style="fill:#010002;" d="M116.414,82.22h-7.603c0-0.178-0.004-33.436-0.015-34.401c-0.178-3.267-2.992-5.933-6.404-5.933
			c-3.353,0-6.167,2.606-6.412,5.933c-0.011,0.921-0.022,25.075-0.022,25.32h-7.603c0-0.252,0-25.372,0.048-25.922
			c0.527-7.232,6.675-12.935,13.989-12.935c7.451,0,13.603,5.829,14.004,13.262C116.411,47.841,116.414,69.397,116.414,82.22z"/>
		<path style="fill:#010002;" d="M95.976,73.139h-7.603c0-0.186-0.007-41.129-0.015-42.034c-0.178-3.237-2.996-5.903-6.408-5.903
			c-3.349,0-6.167,2.606-6.412,5.94c-0.007,1.025-0.015,41.745-0.015,41.997H67.92c0-4.307,0-42.079,0.037-42.562
			c0.535-7.277,6.683-12.979,13.993-12.979c7.455,0,13.607,5.821,14.008,13.262C95.973,31.223,95.976,72.723,95.976,73.139z"/>
	</g>
	<path style="fill:#010002;" d="M82.202,163.868c-30.436,0-55.196-24.756-55.196-55.192h7.603c0,26.241,21.351,47.589,47.592,47.589
		c22.677,0,42.402-15.801,47.05-37.624c0-4.188,0.011-40.631,0-41.611c-0.174-3.26-2.992-5.925-6.404-5.925
		c-3.353,0-6.167,2.606-6.412,5.933c-0.149,2.042-2.079,3.839-3.921,3.534c-2.684-0.089-3.416-1.723-3.616-4.084h-0.045
		c0.007-0.097,0.015-0.193,0.022-0.282c-0.052-0.802-0.056-1.671-0.059-2.591l0.846-0.891c1.979-5.391,7.188-9.222,13.184-9.222
		c7.459,0,13.607,5.829,14.004,13.269c0.007,0.126,0.015,0.275,0.004,42.265c0,0.26-0.026,0.512-0.078,0.765
		C131.558,145.335,108.603,163.868,82.202,163.868z"/>
</g>
<g>
</g>
<g>
</g>
<g>
</g>
<g>
</g>
<g>
</g>
<g>
</g>
<g>
</g>
<g>
</g>
<g>
</g>
<g>
</g>
<g>
</g>
<g>
</g>
<g>
</g>
<g>
</g>
<g>
</g>
</svg>
