<?xml version="1.0" encoding="utf-8"?>
<!-- Generator: Adobe Illustrator 21.0.0, SVG Export Plug-In . SVG Version: 6.00 Build 0)  -->
<svg version="1.1" id="Layer_1" xmlns="http://www.w3.org/2000/svg" xmlns:xlink="http://www.w3.org/1999/xlink" x="0px" y="0px"
	 viewBox="0 0 720 361" style="enable-background:new 0 0 720 361;" xml:space="preserve">
<style type="text/css">
	.st0{fill:#465955;}
	.st1{fill:#FCAD00;}
	.st2{fill:#FDCB1A;}
	.st3{fill:#FFFFFF;}
	.st4{fill:#754C24;}
	.st5{fill:none;stroke:#754C24;stroke-width:1.1813;stroke-linecap:square;stroke-miterlimit:10;}
	.st6{fill:none;stroke:#754C24;stroke-width:1.1813;stroke-miterlimit:10;}
	.st7{fill:#603813;}
	.st8{fill:#8FEDD1;}
	.st9{fill:#7ED1B8;}
	.st10{fill:#736357;}
	.st11{fill:#534741;}
	.st12{fill:#68847D;}
	.st13{fill:#FDC17F;}
	.st14{fill:#754F38;}
	.st15{fill:#593C2B;}
	.st16{fill:#FED991;}
	.st17{fill:#E6C483;}
	.st18{fill:#F88A6B;}
	.st19{fill:#C6F81C;}
	.st20{fill:#85BC02;}
	.st21{fill:#E6E6E6;}
	.st22{fill:#998675;}
	.st23{fill:#FCAC99;}
	.st24{fill:#F58B67;}
	.st25{fill:#FFEABF;}
	.st26{fill:none;}
	.st27{fill:#333333;}
	.st28{fill:#C1272D;}
	.st29{fill:#BF3F12;}
	.st30{fill:#A62127;}
	.st31{fill:#5A736E;}
	.st32{fill:#D9A460;}
	.st33{fill:#F2D383;}
	.st34{fill:#B3874F;}
	.st35{fill:#E94F3D;}
	.st36{fill:#C24232;}
	.st37{fill:#E7001E;}
	.st38{fill:#8A8895;}
	.st39{fill:#C9C9C9;}
	.st40{fill:#7E5C62;}
	.st41{fill:#FFE0B1;}
	.st42{fill:#FF4F19;}
	.st43{fill:#5C546A;}
</style>
<g id="paesaggio">
	<g id="objects">
		<path id="wheel" class="st0" d="M261.8,155.6c3.1-1.3,4.6-4.9,3.2-8.1c-1.3-3.1-5-4.6-8.1-3.2c-3.1,1.3-4.5,4.9-3.2,8
			C255.1,155.5,258.7,156.9,261.8,155.6 M120.8,124.2c2.4-2.4,2.4-6.3,0-8.7c-2.4-2.4-6.3-2.4-8.7,0c-2.4,2.4-2.4,6.3,0,8.7
			C114.5,126.6,118.4,126.6,120.8,124.2 M95.8,152.1c3.1,1.3,6.7-0.3,8-3.4s-0.3-6.7-3.4-8s-6.7,0.3-8,3.4
			C91.1,147.3,92.7,150.8,95.8,152.1 M148.2,106.3c3.1-1.3,4.6-4.9,3.2-8.1c-1.4-3.1-4.9-4.5-8.1-3.2c-3.1,1.4-4.5,4.9-3.2,8
			C141.4,106.2,145.1,107.6,148.2,106.3 M176.5,101.1c3.4,0,6.1-2.7,6.1-6.1s-2.8-6.1-6.1-6.1c-3.4,0-6.1,2.8-6.1,6.1
			C170.4,98.4,173.1,101.1,176.5,101.1 M244.5,124.9c2.4-2.4,2.4-6.3,0-8.7c-2.4-2.4-6.3-2.4-8.6,0c-2.4,2.4-2.4,6.3,0,8.7
			C238.2,127.3,242.1,127.3,244.5,124.9 M96.2,182.5c0-3.4-2.7-6.1-6.1-6.1s-6.1,2.7-6.1,6.1s2.7,6.1,6.1,6.1S96.2,185.9,96.2,182.5
			 M210.1,107.6c3.1,1.3,6.7-0.3,8-3.4c1.2-3.1-0.3-6.7-3.4-8c-3.2-1.3-6.7,0.3-8,3.4C205.4,102.8,206.9,106.4,210.1,107.6
			 M235.6,240.3c-2.4,2.4-2.4,6.3,0,8.7s6.3,2.4,8.6,0c2.4-2.4,2.4-6.3,0-8.7C241.9,237.9,238,237.9,235.6,240.3 M260.3,210.9
			c-3.1-1.3-6.7,0.3-8,3.4c-1.3,3.2,0.3,6.7,3.4,8c3.2,1.3,6.7-0.3,8-3.4C265,215.7,263.5,212.1,260.3,210.9 M207.1,258.4
			c-3.1,1.3-4.5,4.9-3.2,8s4.9,4.6,8.1,3.2c3.1-1.4,4.5-4.9,3.2-8.1C213.8,258.5,210.2,257.1,207.1,258.4 M175.4,264.3
			c-3.1,1.3-4.5,4.9-3.2,8s4.9,4.6,8.1,3.2c3.1-1.4,4.5-4.9,3.2-8.1C182.1,264.5,178.5,263,175.4,264.3 M265.5,176
			c-3.4,0-6.1,2.7-6.1,6.1s2.7,6.1,6.1,6.1s6.1-2.7,6.1-6.1C271.7,178.7,268.9,176,265.5,176 M118.3,238.7c-2.4-2.4-6.3-2.4-8.7,0
			c-2.4,2.4-2.4,6.3,0,8.7s6.3,2.4,8.7,0S120.7,241.1,118.3,238.7 M92.9,207.2c-3.1,1.3-4.6,4.9-3.2,8c1.3,3.1,4.9,4.6,8.1,3.2
			c3.1-1.3,4.5-4.9,3.2-8C99.6,207.3,96,205.9,92.9,207.2 M192.7,263.5c16.3-3,31.3-10.8,43.3-22.8c15.6-15.6,24.2-36.3,24.2-58.3
			c0-45.5-37-82.5-82.5-82.5c-45.4,0-82.4,37-82.4,82.5c0,22,8.6,42.7,24.1,58.3c11.9,11.9,26.8,19.7,42.9,22.7l2.3,0.6l2.2,0.3
			l1-0.1l22.1-0.2L192.7,263.5l1.7,10.5L192.7,263.5z M183,186.9c0.2-0.2,0.3-0.4,0.5-0.6l56.8,25.5c-3.4,7.1-7.9,13.6-13.3,19.1
			L183,186.9z M225.8,232.2c-6.5,6.3-14.3,11.4-22.9,14.7l-21.7-57.2l-0.2-1.1c0.2-0.2,0.5-0.3,0.8-0.5L225.8,232.2z M184.3,184.7
			c0.1-0.4,0.2-0.8,0.3-1.2h62.3c-0.1,9.5-2.2,18.5-5.8,26.7L184.3,184.7z M184.6,181.6c0-0.3-0.1-0.6-0.1-0.8l58.2-22.1
			c2.6,7.2,4.1,14.9,4.2,23L184.6,181.6L184.6,181.6L184.6,181.6z M183.9,179.1c-0.2-0.4-0.5-0.7-0.7-1.1l44-44
			c6.4,6.5,11.5,14.3,14.9,22.9L183.9,179.1z M181.8,176.7c-0.2-0.2-0.5-0.3-0.7-0.4l25.5-56.8c7.1,3.3,13.6,7.8,19.2,13.2
			L181.8,176.7z M179.5,175.6c-0.4-0.1-0.8-0.2-1.2-0.2v-62.3c9.5,0.1,18.5,2.1,26.7,5.6L179.5,175.6z M185.7,254.9l0.8,5.8
			c-3,0.3-5.9,0.5-8.9,0.5c-3.2,0-6.3-0.2-9.4-0.6l0.8-5.8c2.8,0.3,5.6,0.5,8.5,0.5C180.4,255.4,183.1,255.2,185.7,254.9
			 M176.4,175.5c-0.3,0-0.5,0.1-0.7,0.2l-22.1-58.2c7.1-2.7,14.8-4.2,22.8-4.3V175.5z M174,176.4c-0.3,0.2-0.6,0.4-0.9,0.6l-44-44
			c6.5-6.4,14.2-11.5,22.8-14.9L174,176.4z M171.9,178.4c-0.1,0.2-0.3,0.4-0.4,0.5l-56.8-25.5c3.3-7.1,7.7-13.5,13.1-19.1
			L171.9,178.4z M170.8,180.6c-0.1,0.3-0.1,0.7-0.2,1h-62.3c0.1-9.4,2.1-18.4,5.6-26.5L170.8,180.6z M170.7,183.4
			c0,0.2,0.1,0.4,0.1,0.6l-58.2,22.1c-2.6-7.1-4.1-14.7-4.2-22.7L170.7,183.4L170.7,183.4z M171.5,185.7c0.2,0.3,0.3,0.6,0.5,0.9
			l-44,44c-6.3-6.5-11.3-14.2-14.7-22.8L171.5,185.7z M173.3,187.9c0.1,0.1,0.3,0.3,0.5,0.4l-25.6,56.9c-7-3.3-13.5-7.8-19-13.2
			L173.3,187.9z M191.2,254.1c33.8-6.4,59.4-36.1,59.4-71.7c0-40.2-32.7-73-73-73c-40.2,0-73,32.7-73,73c0,35.5,25.4,65.1,59,71.6
			l-0.9,5.8c-15.4-2.9-29.6-10.4-40.9-21.7c-14.9-14.9-23.1-34.7-23.1-55.7c0-43.4,35.4-78.8,78.8-78.8s78.8,35.4,78.8,78.8
			c0,21-8.2,40.8-23.1,55.7c-11.4,11.4-25.7,18.9-41.2,21.8L191.2,254.1z M147.1,264.4c1.3-3.1-0.3-6.7-3.4-7.9
			c-3.1-1.3-6.7,0.3-8,3.4s0.3,6.7,3.4,8C142.2,269.1,145.8,267.6,147.1,264.4 M201.4,247.6c-8.5,3.1-17.7,4.5-27,4l3.7-61.1
			l0.3-1.1c0.3-0.1,0.6-0.1,0.9-0.1L201.4,247.6z M173.8,250.6c-8.7-0.3-17.4-2.5-25.5-6.2l25.9-53.1l0.7-0.8
			c0.3,0.1,0.6,0.2,0.9,0.2L173.8,250.6z"/>
		<g id="baloon">
			<g>
				<rect x="599.3" y="107.6" class="st1" width="17.4" height="9.5"/>
				<path class="st2" d="M648,51.5c0-23-17.9-39.5-40-39.5s-40,16.6-40,39.5c0,9.9,3.6,18.8,8.9,26.2c5.9,8.3,22.4,31.5,22.4,31.5
					h17.4c0,0,16.5-23.3,22.4-31.6C644.4,70.3,648,61.4,648,51.5z"/>
				<path class="st3" d="M638.2,51.5c0-23-13.5-39.5-30.2-39.5s-30.2,16.6-30.2,39.5c0,9.9,2.8,18.9,6.7,26.2
					c4.5,8.4,16.9,31.5,16.9,31.5h13.1c0,0,12.4-23.2,16.9-31.6C635.4,70.4,638.2,61.4,638.2,51.5z"/>
				<path class="st2" d="M623.2,51.5c0-23-6.8-39.5-15.2-39.5s-15.2,16.6-15.2,39.5c0,9.9,1.4,18.9,3.4,26.2
					c2.3,8.4,8.5,31.5,8.5,31.5h6.6c0,0,6.2-23.1,8.5-31.6C621.8,70.4,623.2,61.4,623.2,51.5z"/>
			</g>
			<g>
				<g>
					<path class="st4" d="M636.1,77.8c-7.5,3-17.5,4.6-28.1,4.6s-20.6-1.6-28.1-4.6c-1.3-0.5-3.2-1.4-4.3-2c0,0.1,1.1,1.6,1.4,2
						c0.9,0.4,1.5,0.7,2.4,1.1c7.6,3,17.8,4.7,28.5,4.7c10.8,0,20.9-1.7,28.5-4.7c1-0.4,1.6-0.7,2.5-1.1c0.5-0.7,1.4-2,1.4-2
						C639.3,76.4,637.4,77.3,636.1,77.8z"/>
				</g>
				<g>
					<g>
						<line class="st5" x1="636.8" y1="78.8" x2="615.1" y2="126.8"/>
						<line class="st6" x1="619.7" y1="82.6" x2="611.9" y2="126.3"/>
					</g>
					<g>
						<line class="st5" x1="579.2" y1="78.8" x2="600.9" y2="126.8"/>
						<line class="st6" x1="596.3" y1="82.6" x2="604.1" y2="126.3"/>
					</g>
				</g>
				<g>
					<path class="st4" d="M617,141.6c0,1.1-0.9,2.1-2.1,2.1h-13.7c-1.1,0-2.1-0.9-2.1-2.1v-13.7c0-1.1,0.9-2.1,2.1-2.1h13.7
						c1.1,0,2.1,0.9,2.1,2.1V141.6z"/>
					<path class="st7" d="M617.6,128.5c0,0.5-0.4,0.9-0.9,0.9h-17.6c-0.5,0-0.9-0.4-0.9-0.9v-1.8c0-0.5,0.4-0.9,0.9-0.9h17.6
						c0.5,0,0.9,0.4,0.9,0.9V128.5z"/>
				</g>
			</g>
		</g>
		<g>
			<polygon class="st8" points="625.6,294.7 657.5,294.7 657.5,256.3 641.6,233 625.6,256.3 			"/>
			<polygon class="st3" points="581.6,294.7 613.5,294.7 613.5,256.3 597.5,233 581.6,256.3 			"/>
			<rect x="581.6" y="256.3" class="st9" width="44" height="38.4"/>
			<polygon class="st10" points="597.5,233 641.6,233 625.6,256.3 581.6,256.3 			"/>
			<polygon class="st11" points="623,256.3 625.6,256.3 641.6,233 638.9,233 			"/>
			<rect x="583.9" y="253.7" class="st11" width="41.5" height="2.6"/>
			<polygon class="st11" points="581.6,256.3 584.3,256.3 600.2,233 597.5,233 			"/>
			<g>
				<path class="st12" d="M594.9,284.6h-8.6v-15.8c0-2.4,1.9-4.3,4.3-4.3l0,0c2.4,0,4.3,1.9,4.3,4.3V284.6z"/>
				<path class="st12" d="M621,284.6h-8.6v-15.8c0-2.4,1.9-4.3,4.3-4.3l0,0c2.4,0,4.3,1.9,4.3,4.3V284.6z"/>
				<path class="st12" d="M608,284.6h-8.6v-15.8c0-2.4,1.9-4.3,4.3-4.3l0,0c2.4,0,4.3,1.9,4.3,4.3V284.6z"/>
			</g>
		</g>
		<g>
			<rect x="388.8" y="32.2" class="st0" width="86.7" height="262.5"/>
		</g>
		<g>
			<rect x="279.1" y="6.3" class="st0" width="94.8" height="288.5"/>
		</g>
		<g>
			<rect x="195.2" y="185.1" class="st13" width="73.5" height="109.6"/>
			<rect x="199.5" y="151.4" class="st14" width="65" height="29.5"/>
			<polygon class="st15" points="195.2,180.9 195.2,148 199.5,148 199.5,180.9 264.5,180.9 264.5,148 268.7,148 268.7,180.9
				268.7,180.9 268.7,185.1 195.2,185.1 			"/>
			<rect x="214.2" y="142.8" class="st13" width="8" height="21.7"/>
			<g>
				<path class="st12" d="M250.4,217.3h9.6v-18.2c0-2.7-2.1-4.8-4.8-4.8l0,0c-2.7,0-4.8,2.1-4.8,4.8V217.3L250.4,217.3z"/>
				<path class="st12" d="M234.9,217.3h9.6v-18.2c0-2.7-2.1-4.8-4.8-4.8l0,0c-2.7,0-4.8,2.1-4.8,4.8V217.3L234.9,217.3z"/>
				<path class="st12" d="M219.4,217.3h9.6v-18.2c0-2.7-2.1-4.8-4.8-4.8l0,0c-2.7,0-4.8,2.1-4.8,4.8V217.3z"/>
				<path class="st12" d="M204,217.3h9.6v-18.2c0-2.7-2.1-4.8-4.8-4.8l0,0c-2.7,0-4.8,2.1-4.8,4.8V217.3z"/>
			</g>
			<g>
				<path class="st12" d="M250.4,250.9h9.6v-18.2c0-2.7-2.1-4.8-4.8-4.8l0,0c-2.7,0-4.8,2.1-4.8,4.8V250.9L250.4,250.9z"/>
				<path class="st12" d="M234.9,250.9h9.6v-18.2c0-2.7-2.1-4.8-4.8-4.8l0,0c-2.7,0-4.8,2.1-4.8,4.8V250.9L234.9,250.9z"/>
				<path class="st12" d="M219.4,250.9h9.6v-18.2c0-2.7-2.1-4.8-4.8-4.8l0,0c-2.7,0-4.8,2.1-4.8,4.8V250.9z"/>
				<path class="st12" d="M204,250.9h9.6v-18.2c0-2.7-2.1-4.8-4.8-4.8l0,0c-2.7,0-4.8,2.1-4.8,4.8V250.9z"/>
			</g>
			<g>
				<path class="st12" d="M250.4,284.4h9.6v-18.2c0-2.7-2.1-4.8-4.8-4.8l0,0c-2.7,0-4.8,2.1-4.8,4.8V284.4L250.4,284.4z"/>
				<path class="st12" d="M234.9,284.4h9.6v-18.2c0-2.7-2.1-4.8-4.8-4.8l0,0c-2.7,0-4.8,2.1-4.8,4.8V284.4L234.9,284.4z"/>
				<path class="st12" d="M219.4,284.4h9.6v-18.2c0-2.7-2.1-4.8-4.8-4.8l0,0c-2.7,0-4.8,2.1-4.8,4.8V284.4z"/>
				<path class="st12" d="M204,284.4h9.6v-18.2c0-2.7-2.1-4.8-4.8-4.8l0,0c-2.7,0-4.8,2.1-4.8,4.8V284.4z"/>
			</g>
		</g>
		<g>
			<rect x="530.2" y="218.5" class="st3" width="73.5" height="76.3"/>
			<rect x="530.2" y="256.4" class="st13" width="73.5" height="38.3"/>
			<rect x="534.4" y="184.8" class="st14" width="65" height="29.5"/>
			<polygon class="st15" points="530.2,214.2 530.2,181.4 534.4,181.4 534.4,214.2 599.5,214.2 599.5,181.4 603.7,181.4
				603.7,214.2 603.7,214.2 603.7,218.5 530.2,218.5 			"/>
			<rect x="575.8" y="176.1" class="st3" width="8" height="21.7"/>
			<g>
				<path class="st12" d="M585.4,250.7h9.6v-18.2c0-2.7-2.1-4.8-4.8-4.8l0,0c-2.7,0-4.8,2.1-4.8,4.8V250.7z"/>
				<path class="st12" d="M569.9,250.7h9.6v-18.2c0-2.7-2.1-4.8-4.8-4.8l0,0c-2.7,0-4.8,2.1-4.8,4.8V250.7z"/>
				<path class="st12" d="M554.4,250.7h9.6v-18.2c0-2.7-2.1-4.8-4.8-4.8l0,0c-2.7,0-4.8,2.1-4.8,4.8V250.7z"/>
				<path class="st12" d="M539,250.7h9.6v-18.2c0-2.7-2.1-4.8-4.8-4.8l0,0c-2.7,0-4.8,2.1-4.8,4.8V250.7z"/>
			</g>
			<g>
				<path class="st12" d="M585.4,284.2h9.6V266c0-2.7-2.1-4.8-4.8-4.8l0,0c-2.7,0-4.8,2.1-4.8,4.8V284.2z"/>
				<path class="st12" d="M569.9,284.2h9.6V266c0-2.7-2.1-4.8-4.8-4.8l0,0c-2.7,0-4.8,2.1-4.8,4.8V284.2z"/>
				<path class="st12" d="M554.4,284.2h9.6V266c0-2.7-2.1-4.8-4.8-4.8l0,0c-2.7,0-4.8,2.1-4.8,4.8V284.2z"/>
				<path class="st12" d="M539,284.2h9.6V266c0-2.7-2.1-4.8-4.8-4.8l0,0c-2.7,0-4.8,2.1-4.8,4.8V284.2z"/>
			</g>
		</g>
		<g>
			<rect x="70.8" y="241.9" class="st16" width="73.5" height="52.9"/>
			<rect x="75.1" y="208.2" class="st14" width="65" height="29.5"/>
			<polygon class="st15" points="70.8,237.6 70.8,204.8 75.1,204.8 75.1,237.6 140.1,237.6 140.1,204.8 144.3,204.8 144.3,237.6
				144.3,237.6 144.3,241.9 70.8,241.9 			"/>
			<rect x="89.8" y="199.5" class="st16" width="8" height="21.7"/>
			<g>
				<path class="st12" d="M126,274.6h9.6v-18.2c0-2.7-2.1-4.8-4.8-4.8l0,0c-2.7,0-4.8,2.1-4.8,4.8V274.6z"/>
				<path class="st12" d="M110.5,274.6h9.6v-18.2c0-2.7-2.1-4.8-4.8-4.8l0,0c-2.7,0-4.8,2.1-4.8,4.8L110.5,274.6L110.5,274.6z"/>
				<path class="st12" d="M95,274.6h9.6v-18.2c0-2.7-2.1-4.8-4.8-4.8l0,0c-2.7,0-4.8,2.1-4.8,4.8C95,256.4,95,274.6,95,274.6z"/>
				<path class="st12" d="M79.6,274.6h9.6v-18.2c0-2.7-2.1-4.8-4.8-4.8l0,0c-2.7,0-4.8,2.1-4.8,4.8
					C79.6,256.4,79.6,274.6,79.6,274.6z"/>
			</g>
			<rect x="70.8" y="282.3" class="st17" width="73.5" height="12.4"/>
		</g>
		<g>
			<polygon class="st18" points="323.9,185.1 323.9,152.1 250.4,152.1 250.4,261.7 250.4,261.7 250.4,294.7 323.9,294.7 			"/>
			<path class="st12" d="M268.7,250.9h-9.6v-18.2c0-2.7,2.1-4.8,4.8-4.8l0,0c2.7,0,4.8,2.1,4.8,4.8L268.7,250.9L268.7,250.9z"/>
			<path class="st12" d="M284.2,250.9h-9.6v-18.2c0-2.7,2.1-4.8,4.8-4.8l0,0c2.7,0,4.8,2.1,4.8,4.8L284.2,250.9L284.2,250.9z"/>
			<path class="st12" d="M299.7,250.9h-9.6v-18.2c0-2.7,2.1-4.8,4.8-4.8l0,0c2.7,0,4.8,2.1,4.8,4.8L299.7,250.9L299.7,250.9z"/>
			<path class="st12" d="M315.1,250.9h-9.6v-18.2c0-2.7,2.1-4.8,4.8-4.8l0,0c2.7,0,4.8,2.1,4.8,4.8L315.1,250.9L315.1,250.9z"/>
			<rect x="259.2" y="261.4" class="st12" width="9.6" height="18.2"/>
			<rect x="274.6" y="261.4" class="st12" width="9.6" height="18.2"/>
			<rect x="290.1" y="261.4" class="st12" width="9.6" height="18.2"/>
			<rect x="305.6" y="261.4" class="st12" width="9.6" height="18.2"/>
			<rect x="248.3" y="284.2" class="st11" width="77.7" height="10.5"/>
			<rect x="254.6" y="118.4" class="st11" width="65" height="29.5"/>
			<polygon class="st10" points="250.4,147.9 250.4,115 254.6,115 254.6,147.9 319.7,147.9 319.7,115 323.9,115 323.9,147.9
				323.9,147.9 323.9,152.1 250.4,152.1 			"/>
			<rect x="299.2" y="109.8" class="st18" width="4" height="21.7"/>
			<rect x="306.4" y="109.8" class="st18" width="4" height="21.7"/>
			<path class="st12" d="M305.6,184.3h9.6v-18.2c0-2.7-2.1-4.8-4.8-4.8l0,0c-2.7,0-4.8,2.1-4.8,4.8L305.6,184.3L305.6,184.3z"/>
			<path class="st12" d="M290.1,184.3h9.6v-18.2c0-2.7-2.1-4.8-4.8-4.8l0,0c-2.7,0-4.8,2.1-4.8,4.8L290.1,184.3L290.1,184.3z"/>
			<path class="st12" d="M274.6,184.3h9.6v-18.2c0-2.7-2.1-4.8-4.8-4.8l0,0c-2.7,0-4.8,2.1-4.8,4.8L274.6,184.3L274.6,184.3z"/>
			<path class="st12" d="M259.2,184.3h9.6v-18.2c0-2.7-2.1-4.8-4.8-4.8l0,0c-2.7,0-4.8,2.1-4.8,4.8L259.2,184.3L259.2,184.3z"/>
			<path class="st12" d="M305.6,217.9h9.6v-18.2c0-2.7-2.1-4.8-4.8-4.8l0,0c-2.7,0-4.8,2.1-4.8,4.8L305.6,217.9L305.6,217.9z"/>
			<path class="st12" d="M290.1,217.9h9.6v-18.2c0-2.7-2.1-4.8-4.8-4.8l0,0c-2.7,0-4.8,2.1-4.8,4.8L290.1,217.9L290.1,217.9z"/>
			<path class="st12" d="M274.6,217.9h9.6v-18.2c0-2.7-2.1-4.8-4.8-4.8l0,0c-2.7,0-4.8,2.1-4.8,4.8L274.6,217.9L274.6,217.9z"/>
			<path class="st12" d="M259.2,217.9h9.6v-18.2c0-2.7-2.1-4.8-4.8-4.8l0,0c-2.7,0-4.8,2.1-4.8,4.8L259.2,217.9L259.2,217.9z"/>
			<path class="st12" d="M305.6,251.5h9.6v-18.2c0-2.7-2.1-4.8-4.8-4.8l0,0c-2.7,0-4.8,2.1-4.8,4.8L305.6,251.5L305.6,251.5z"/>
			<path class="st12" d="M290.1,251.5h9.6v-18.2c0-2.7-2.1-4.8-4.8-4.8l0,0c-2.7,0-4.8,2.1-4.8,4.8L290.1,251.5L290.1,251.5z"/>
			<path class="st12" d="M274.6,251.5h9.6v-18.2c0-2.7-2.1-4.8-4.8-4.8l0,0c-2.7,0-4.8,2.1-4.8,4.8L274.6,251.5L274.6,251.5z"/>
			<path class="st12" d="M259.2,251.5h9.6v-18.2c0-2.7-2.1-4.8-4.8-4.8l0,0c-2.7,0-4.8,2.1-4.8,4.8L259.2,251.5L259.2,251.5z"/>
		</g>
		<g>
			<path class="st19" d="M678.5,263.5c0,7.9-6.4,14.2-14.2,14.2s-14.2-6.4-14.2-14.2c0-7.9,6.4-14.2,14.2-14.2
				S678.5,255.6,678.5,263.5z"/>
			<g>
				<path class="st20" d="M664.3,277.7v-28.5c-7.9,0-14.2,6.4-14.2,14.2C650.1,271.3,656.4,277.7,664.3,277.7z"/>
			</g>
			<rect x="662.4" y="269.7" class="st4" width="3.8" height="25"/>
		</g>
		<g>
			<polygon class="st3" points="173.4,294.7 208.8,294.7 208.8,220.3 191.1,194.5 173.4,220.3 			"/>
			<polygon class="st3" points="124.6,294.7 160,294.7 160,220.3 142.3,194.5 124.6,220.3 			"/>
			<rect x="124.6" y="220.3" class="st21" width="48.8" height="74.4"/>
			<polygon class="st11" points="142.3,194.5 191.1,194.5 173.4,220.3 124.6,220.3 			"/>
			<rect x="173.4" y="289.4" class="st22" width="35.3" height="5.3"/>
			<rect x="124.6" y="289.4" class="st10" width="48.8" height="5.3"/>
			<rect x="146.4" y="189.4" class="st21" width="4" height="20.3"/>
			<rect x="154.1" y="189.4" class="st21" width="4" height="20.3"/>
			<g>
				<rect x="157" y="265.9" class="st12" width="7.1" height="20.5"/>
				<rect x="145.5" y="265.9" class="st12" width="7.1" height="20.5"/>
				<rect x="134" y="265.9" class="st12" width="7.1" height="20.5"/>
			</g>
			<g>
				<rect x="157" y="228.7" class="st12" width="7.1" height="20.5"/>
				<rect x="145.5" y="228.7" class="st12" width="7.1" height="20.5"/>
				<rect x="134" y="228.7" class="st12" width="7.1" height="20.5"/>
			</g>
			<polygon class="st10" points="170.5,220.3 173.4,220.3 191.1,194.5 188.2,194.5 			"/>
			<rect x="127.2" y="217.5" class="st10" width="46" height="2.9"/>
			<polygon class="st10" points="124.6,220.3 127.6,220.3 145.2,194.5 142.3,194.5 			"/>
			<circle class="st12" cx="191.1" cy="216.6" r="3.8"/>
		</g>
		<g>
			<polygon class="st23" points="519.5,294.7 551.3,294.7 551.3,231.3 535.4,208 519.5,231.3 			"/>
			<polygon class="st3" points="475.4,294.7 507.3,294.7 507.3,231.3 491.4,208 475.4,231.3 			"/>
			<rect x="475.4" y="231.3" class="st24" width="44" height="63.4"/>
			<polygon class="st10" points="491.4,208 535.4,208 519.5,231.3 475.4,231.3 			"/>
			<rect x="495" y="203.3" class="st23" width="3.6" height="18.3"/>
			<rect x="502" y="203.3" class="st23" width="3.6" height="18.3"/>
			<polygon class="st11" points="516.8,231.3 519.5,231.3 535.4,208 532.8,208 			"/>
			<rect x="477.7" y="228.7" class="st11" width="41.5" height="2.6"/>
			<polygon class="st11" points="475.4,231.3 478.1,231.3 494,208 491.4,208 			"/>
			<g>
				<path class="st12" d="M492.2,288.1h-8.7v-15.8c0-2.4,1.9-4.3,4.3-4.3l0,0c2.4,0,4.3,1.9,4.3,4.3v15.8H492.2z"/>
				<path class="st12" d="M511.3,288.1h-8.6v-15.8c0-2.4,1.9-4.3,4.3-4.3l0,0c2.4,0,4.3,1.9,4.3,4.3L511.3,288.1L511.3,288.1z"/>
			</g>
			<g>
				<path class="st12" d="M492.2,259.6h-8.7v-15.8c0-2.4,1.9-4.3,4.3-4.3l0,0c2.4,0,4.3,1.9,4.3,4.3v15.8H492.2z"/>
				<path class="st12" d="M511.3,259.6h-8.6v-15.8c0-2.4,1.9-4.3,4.3-4.3l0,0c2.4,0,4.3,1.9,4.3,4.3L511.3,259.6L511.3,259.6z"/>
			</g>
		</g>
		<g>
			<path class="st20" d="M149,284.2c-2.8,0-5.4,1.1-7.3,2.9c-2.5-4-7-6.6-12-6.6c-7.9,0-14.2,6.4-14.2,14.2h44.1
				C159.6,288.9,154.9,284.2,149,284.2z"/>
		</g>
		<g>
			<rect x="411.8" y="185.1" class="st8" width="73.5" height="109.6"/>
			<rect x="416.1" y="151.4" class="st14" width="65" height="29.5"/>
			<polygon class="st15" points="485.4,180.9 485.4,148 481.1,148 481.1,180.9 416.1,180.9 416.1,148 411.8,148 411.8,180.9
				411.9,180.9 411.9,185.1 485.4,185.1 			"/>
			<rect x="458.4" y="142.8" class="st15" width="8" height="21.7"/>
			<g>
				<path class="st12" d="M430.2,217.3h-9.6v-18.2c0-2.7,2.1-4.8,4.8-4.8l0,0c2.7,0,4.8,2.1,4.8,4.8L430.2,217.3L430.2,217.3z"/>
				<path class="st12" d="M445.7,217.3h-9.6v-18.2c0-2.7,2.1-4.8,4.8-4.8l0,0c2.7,0,4.8,2.1,4.8,4.8L445.7,217.3L445.7,217.3z"/>
				<path class="st12" d="M461.1,217.3h-9.6v-18.2c0-2.7,2.1-4.8,4.8-4.8l0,0c2.7,0,4.8,2.1,4.8,4.8L461.1,217.3L461.1,217.3z"/>
				<path class="st12" d="M476.6,217.3H467v-18.2c0-2.7,2.1-4.8,4.8-4.8l0,0c2.7,0,4.8,2.1,4.8,4.8L476.6,217.3L476.6,217.3z"/>
			</g>
			<g>
				<path class="st12" d="M430.2,250.9h-9.6v-18.2c0-2.7,2.1-4.8,4.8-4.8l0,0c2.7,0,4.8,2.1,4.8,4.8L430.2,250.9L430.2,250.9z"/>
				<path class="st12" d="M445.7,250.9h-9.6v-18.2c0-2.7,2.1-4.8,4.8-4.8l0,0c2.7,0,4.8,2.1,4.8,4.8L445.7,250.9L445.7,250.9z"/>
				<path class="st12" d="M461.1,250.9h-9.6v-18.2c0-2.7,2.1-4.8,4.8-4.8l0,0c2.7,0,4.8,2.1,4.8,4.8L461.1,250.9L461.1,250.9z"/>
				<path class="st12" d="M476.6,250.9H467v-18.2c0-2.7,2.1-4.8,4.8-4.8l0,0c2.7,0,4.8,2.1,4.8,4.8L476.6,250.9L476.6,250.9z"/>
			</g>
			<g>
				<rect x="420.6" y="261.4" class="st12" width="9.6" height="18.2"/>
				<rect x="436.1" y="261.4" class="st12" width="9.6" height="18.2"/>
				<rect x="451.5" y="261.4" class="st12" width="9.6" height="18.2"/>
				<rect x="467" y="261.4" class="st12" width="9.6" height="18.2"/>
			</g>
			<rect x="409.7" y="284.2" class="st9" width="77.7" height="10.5"/>
		</g>
		<g>
			<rect x="343.5" y="185.7" class="st25" width="73.1" height="109"/>
			<rect x="394.4" y="166.9" class="st11" width="7.9" height="18.9"/>
			<rect x="386.4" y="160.5" class="st11" width="5.2" height="25.2"/>
			<g>
				<path class="st12" d="M361.8,216.7h-9.5v-18.1c0-2.6,2.1-4.8,4.8-4.8l0,0c2.6,0,4.8,2.1,4.8,4.8L361.8,216.7L361.8,216.7z"/>
				<path class="st12" d="M377.2,216.7h-9.5v-18.1c0-2.6,2.1-4.8,4.8-4.8l0,0c2.6,0,4.8,2.1,4.8,4.8L377.2,216.7L377.2,216.7z"/>
				<path class="st12" d="M392.5,216.7H383v-18.1c0-2.6,2.1-4.8,4.8-4.8l0,0c2.6,0,4.8,2.1,4.8,4.8L392.5,216.7L392.5,216.7z"/>
				<path class="st12" d="M407.9,216.7h-9.5v-18.1c0-2.6,2.1-4.8,4.8-4.8l0,0c2.6,0,4.8,2.1,4.8,4.8L407.9,216.7L407.9,216.7z"/>
			</g>
			<g>
				<path class="st12" d="M361.8,252.1h-9.5V234c0-2.6,2.1-4.8,4.8-4.8l0,0c2.6,0,4.8,2.1,4.8,4.8L361.8,252.1L361.8,252.1z"/>
				<path class="st12" d="M377.2,252.1h-9.5V234c0-2.6,2.1-4.8,4.8-4.8l0,0c2.6,0,4.8,2.1,4.8,4.8L377.2,252.1L377.2,252.1z"/>
				<path class="st12" d="M392.5,252.1H383V234c0-2.6,2.1-4.8,4.8-4.8l0,0c2.6,0,4.8,2.1,4.8,4.8L392.5,252.1L392.5,252.1z"/>
				<path class="st12" d="M407.9,252.1h-9.5V234c0-2.6,2.1-4.8,4.8-4.8l0,0c2.6,0,4.8,2.1,4.8,4.8L407.9,252.1L407.9,252.1z"/>
			</g>
			<g>
				<rect x="352.2" y="261.6" class="st12" width="55.7" height="18.1"/>
			</g>
			<rect x="341.4" y="282.7" class="st22" width="77.3" height="12"/>
			<rect x="341.4" y="221.2" class="st22" width="77.3" height="3.7"/>
			<rect x="341.4" y="183.9" class="st22" width="77.3" height="3.7"/>
			<rect x="340" y="178.1" class="st10" width="80.2" height="6.9"/>
			<g>
				<g>
					<circle class="st3" cx="410.2" cy="271.6" r="2.2"/>
					<circle class="st1" cx="405.9" cy="271.6" r="2.2"/>
					<circle class="st3" cx="401.6" cy="271.6" r="2.2"/>
					<circle class="st1" cx="397.3" cy="271.6" r="2.2"/>
					<circle class="st3" cx="393" cy="271.6" r="2.2"/>
					<circle class="st1" cx="388.7" cy="271.6" r="2.2"/>
					<circle class="st3" cx="384.4" cy="271.6" r="2.2"/>
					<circle class="st1" cx="380.1" cy="271.6" r="2.2"/>
					<circle class="st3" cx="375.8" cy="271.6" r="2.2"/>
					<circle class="st1" cx="371.5" cy="271.6" r="2.2"/>
					<circle class="st3" cx="367.2" cy="271.6" r="2.2"/>
					<circle class="st1" cx="362.9" cy="271.6" r="2.2"/>
					<circle class="st3" cx="358.6" cy="271.6" r="2.2"/>
					<circle class="st1" cx="354.3" cy="271.6" r="2.2"/>
					<circle class="st3" cx="350" cy="271.6" r="2.2"/>
				</g>
				<rect x="347.8" y="257.8" class="st2" width="64.5" height="13.8"/>
			</g>
		</g>
		<g>
			<path class="st26" d="M435.3,285.7l1.9-0.2l-1.7-5.3l-2.1,2.7C434.2,283.7,434.9,284.7,435.3,285.7z"/>
			<path class="st26" d="M430.5,286.7l-0.5,0.7c0,0.1,0.1,0.1,0.1,0.2h4.3c0-0.4-0.1-0.8-0.2-1.2L430.5,286.7z"/>
			<path class="st26" d="M432.5,284.1l-1.6,2.1l2.9-0.3C433.5,285.2,433.1,284.5,432.5,284.1z"/>
			<path class="st26" d="M429.3,286.9L429.3,286.9l-0.4-0.1C429.1,286.9,429.2,286.9,429.3,286.9z"/>
			<path class="st26" d="M423.6,288c0,3,2.4,5.4,5.4,5.4c2.2,0,4.1-1.3,4.9-3.3l-5-0.5c-0.9,0-1.6-0.8-1.6-1.7s0.7-1.7,1.6-1.7
				l0.9-0.1l2.1-2.7c-0.8-0.6-1.9-0.9-3-0.9C426,282.7,423.6,285.1,423.6,288z"/>
			<path class="st26" d="M429,289.1l5.1,0.4c0.1-0.4,0.2-0.8,0.2-1.2H430C429.9,288.8,429.5,289.1,429,289.1z"/>
			<path class="st26" d="M445.5,288c0,3,2.4,5.4,5.4,5.4s5.4-2.4,5.4-5.4s-2.4-5.4-5.4-5.4c-1,0-1.9,0.3-2.7,0.7
				c0.8,1.4,1.7,2.7,2.3,3.6c0.1,0,0.2-0.1,0.4-0.1c0.6,0,1.1,0.5,1.1,1.1s-0.5,1.1-1.1,1.1s-1.1-0.5-1.1-1.1c0-0.2,0.1-0.4,0.1-0.5
				c-0.6-0.9-1.6-2.2-2.3-3.6C446.3,284.8,445.5,286.3,445.5,288z"/>
			<path class="st26" d="M438.1,289.9c-0.8-0.1-1.4-0.7-1.6-1.5h-0.9c0,0.5-0.1,0.9-0.2,1.3L438.1,289.9z"/>
			<path class="st26" d="M438,285.5h0.4l0,0c0.5,0,1,0.2,1.4,0.5l5.5-5.8h-9L438,285.5z"/>
			<path class="st26" d="M437.4,286.3l-0.1-0.2l-2,0.2c0.1,0.4,0.2,0.8,0.2,1.3h0.9C436.6,287,437,286.6,437.4,286.3z"/>
			<path class="st27" d="M435.8,278.7l-0.4-1.1c0.1,0,0.1,0,0.1-0.1c0.3-0.1,1.2,0,1.2,0c0.5,0,0.8,0,0.8-0.5l0,0
				c0-0.5-0.4-0.5-0.9-0.6c-0.7-0.1-2.3-0.3-2.6-0.3c-0.4,0-0.7,0.2-0.9,0.5c-0.1,0.2-0.2,0.4-0.2,0.6c0,0.6,0.4,0.9,1.2,0.9
				c0.2,0,0.4-0.1,0.6-0.1l0.3,1C435.1,278.7,435.7,278.5,435.8,278.7z"/>
			<path class="st27" d="M450.8,281.3c-1.2,0-2.3,0.3-3.3,0.9c0.1,0.2,0.2,0.5,0.4,0.7c0.9-0.5,1.9-0.8,2.9-0.8
				c3.2,0,5.9,2.6,5.9,5.9s-2.6,5.9-5.9,5.9s-5.9-2.6-5.9-5.9c0-1.9,0.9-3.6,2.3-4.7c-0.1-0.2-0.3-0.5-0.4-0.7
				c-1.7,1.2-2.7,3.2-2.7,5.4c0,3.7,3,6.7,6.7,6.7s6.7-3,6.7-6.7C457.5,284.3,454.5,281.3,450.8,281.3z"/>
			<path class="st27" d="M450.8,289.1c0.6,0,1.1-0.5,1.1-1.1s-0.5-1.1-1.1-1.1c-0.1,0-0.3,0-0.4,0.1c0.2,0.3,0.4,0.6,0.6,0.7
				c0.2,0.2,0.2,0.4,0,0.6c-0.1,0.1-0.2,0.1-0.3,0.1c-0.1,0-0.2,0-0.3-0.1c-0.1-0.1-0.4-0.4-0.6-0.8c-0.1,0.2-0.1,0.4-0.1,0.5
				C449.7,288.6,450.2,289.1,450.8,289.1z"/>
			<path class="st27" d="M429.8,287.6h0.2c0-0.1-0.1-0.1-0.1-0.2L429.8,287.6z"/>
			<path class="st27" d="M438.9,288.2c-0.1,0.2-0.4,0.1-0.5,0.1h-1.9c0.1,0.8,0.8,1.4,1.6,1.5l-2.6-0.2c0.1-0.4,0.2-0.9,0.2-1.3
				h-0.8c0,0.4-0.1,0.8-0.2,1.2h-0.5l-5.1-0.4c0.5,0,0.9-0.3,1.1-0.8h-1.1l0,0c-0.2,0-0.3,0-0.4-0.2c-0.1-0.1-0.1-0.3,0-0.4l0.7-0.9
				c-0.1,0-0.2-0.1-0.4-0.1h0.4l0.5-0.6l-0.9,0.1c-0.9,0-1.6,0.8-1.6,1.7s0.7,1.7,1.6,1.7l5,0.5l0.6,0.1c-0.9,2.2-3,3.7-5.5,3.7
				c-3.2,0-5.9-2.6-5.9-5.9s2.6-5.9,5.9-5.9c1.2,0,2.3,0.4,3.3,1l0.5-0.6c-1.1-0.7-2.4-1.2-3.8-1.2c-3.7,0-6.7,3-6.7,6.7
				s3,6.7,6.7,6.7c2.9,0,5.4-1.9,6.3-4.5l3.1,0.3l0,0l0,0l0.2,1.5h-0.2c-0.2,0-0.4,0.2-0.3,0.5l0,0c0,0.2,0.2,0.4,0.5,0.3l1.6-0.3
				c0.2,0,0.4-0.3,0.3-0.5l0,0c0-0.2-0.3-0.4-0.5-0.3l-0.6,0.1l-0.2-1.5c1-0.4,1.7-1.3,1.7-2.4c0-0.5-0.2-1-0.5-1.5L438.9,288.2z"/>
			<path class="st27" d="M436.5,287.6h1.3l-0.4-1.3C437,286.6,436.6,287,436.5,287.6z"/>
			<path class="st28" d="M448.2,283.4c0.8-0.4,1.7-0.7,2.7-0.7c3,0,5.4,2.4,5.4,5.4s-2.4,5.4-5.4,5.4s-5.4-2.4-5.4-5.4
				c0-1.7,0.8-3.2,2-4.2c-0.1-0.2-0.2-0.3-0.3-0.5c-1.4,1.1-2.3,2.8-2.3,4.7c0,3.3,2.6,5.9,5.9,5.9c3.2,0,5.9-2.6,5.9-5.9
				s-2.6-5.9-5.9-5.9c-1.1,0-2.1,0.3-2.9,0.8C448,283.1,448.1,283.2,448.2,283.4z"/>
			<path class="st29" d="M434.6,289.6c0.1-0.4,0.2-0.8,0.2-1.2h-0.5c0,0.4-0.1,0.8-0.2,1.2H434.6z"/>
			<path class="st29" d="M433.9,285.9l0.6-0.1c-0.3-0.8-0.9-1.6-1.5-2.2l-0.3,0.4C433.1,284.5,433.5,285.2,433.9,285.9z"/>
			<path class="st29" d="M434.1,286.4c0.1,0.4,0.2,0.8,0.2,1.2h0.5c0-0.4-0.1-0.8-0.2-1.2H434.1z"/>
			<path class="st28" d="M423.1,288c0,3.3,2.6,5.9,5.9,5.9c2.5,0,4.6-1.6,5.5-3.7l-0.6-0.1c-0.8,1.9-2.7,3.3-4.9,3.3
				c-3,0-5.4-2.4-5.4-5.4s2.4-5.4,5.4-5.4c1.1,0,2.1,0.3,3,0.9l0.3-0.4c-0.9-0.6-2.1-1-3.3-1C425.7,282.1,423.1,284.8,423.1,288z"/>
			<path class="st27" d="M446.6,278.4v-2.7c0-0.1-0.1-0.3-0.2-0.3c-0.1-0.1-0.2-0.1-0.4-0.1l-1.6,0.2c-0.1-0.1-0.2-0.1-0.3-0.1
				l-2.1,0.1c-0.3,0-0.5,0.3-0.5,0.6c0,0.2,0.2,0.4,0.4,0.5c0.1,0,0.1,0,0.2,0l2.1-0.1c0.1,0,0.2-0.1,0.3-0.1l1.2-0.1v2.6l0,0
				c0-0.2,0-0.4,0-0.4C445.8,278.2,446.6,278.2,446.6,278.4z"/>
			<path class="st30" d="M447.5,283.8c0.8,1.4,1.7,2.8,2.3,3.6c0.3,0.4,0.5,0.6,0.6,0.8c0.1,0.1,0.2,0.1,0.3,0.1
				c0.1,0,0.2,0,0.3-0.1c0.2-0.2,0.2-0.4,0-0.6c-0.1-0.1-0.4-0.4-0.6-0.7c-0.6-0.9-1.5-2.2-2.3-3.6c-0.1-0.2-0.2-0.3-0.3-0.5
				c-0.1-0.2-0.3-0.5-0.4-0.7c-0.5-0.9-0.8-1.8-0.9-2.4c0-0.1,0-0.2,0-0.2c0-0.4,0-1.1,0-1.1l0,0c-0.1-0.2-0.8-0.2-0.8,0
				c0,0,0,0.2,0,0.4c0,0.1,0,0.3,0,0.4H436l-0.2-0.6l0,0c-0.2-0.1-0.8,0.1-0.7,0.2l0,0l0.1,0.4c0,0-0.1,0-0.1,0.1l-2.4,3.1l-0.5,0.6
				l-0.3,0.4l-2.1,2.7l-0.5,0.6l-0.1,0.1l-0.7,0.9c-0.1,0.1-0.1,0.2,0,0.4c0.1,0.1,0.2,0.2,0.4,0.2l0,0h1.1h4.3h0.5h0.8h0.9h1.9
				c0,0,0.3,0,0.5-0.1l1.6-1.7l5.6-6c0.2,0.6,0.5,1.3,0.9,2.1c0.1,0.2,0.2,0.5,0.4,0.7C447.3,283.5,447.4,283.7,447.5,283.8z
				 M436.5,287.6h-0.9h-0.8h-0.5H430h-0.2l0.1-0.2l0.5-0.7l0.5-0.6l1.6-2.1l0.3-0.4l0.5-0.6l2.1-2.7l1.7,5.3l0.2,0.6l0.1,0.2
				l0.4,1.3L436.5,287.6z M439.8,285.9l-1.2,1.3l-0.6-1.7l-1.7-5.4h9L439.8,285.9z"/>
			<path class="st27" d="M437.4,286.1l-0.2-0.6l-1.9,0.2c-0.4-1.1-1-2-1.9-2.7l-0.5,0.6c0.7,0.6,1.2,1.3,1.5,2.2l-0.6,0.1l-2.9,0.3
				l-0.5,0.6l3.6-0.3h0.5c0.1,0.4,0.2,0.8,0.2,1.2h0.8c0-0.4-0.1-0.9-0.2-1.3L437.4,286.1z"/>
			<path class="st27" d="M438.4,285.4H438l0.6,1.7l1.2-1.3C439.4,285.6,438.9,285.4,438.4,285.4L438.4,285.4L438.4,285.4z"/>
		</g>
		<g>
			<circle class="st19" cx="489.8" cy="268.4" r="12"/>
			<g>
				<path class="st20" d="M489.8,280.4v-24c-6.6,0-12,5.4-12,12S483.2,280.4,489.8,280.4z"/>
			</g>
			<rect x="488.2" y="273.6" class="st4" width="3.2" height="21.1"/>
		</g>
		<g>
			<path class="st20" d="M514.4,285.9c-2.4,0-4.5,0.9-6.1,2.5c-2.1-3.3-5.8-5.6-10.1-5.6c-6.6,0-11.9,5.3-11.9,11.9h36.9
				C523.2,289.9,519.3,285.9,514.4,285.9z"/>
		</g>
		<g>
			<circle class="st19" cx="648.2" cy="268.4" r="12"/>
			<g>
				<path class="st20" d="M648.2,280.4v-24c-6.6,0-12,5.4-12,12C636.3,275,641.6,280.4,648.2,280.4z"/>
			</g>
			<rect x="646.6" y="273.6" class="st4" width="3.2" height="21.1"/>
		</g>
		<g>
			<path class="st20" d="M652,285.9c2.4,0,4.5,0.9,6.1,2.5c2.1-3.3,5.8-5.6,10.1-5.6c6.6,0,11.9,5.3,11.9,11.9h-36.9
				C643.1,289.9,647.1,285.9,652,285.9z"/>
		</g>
		<g>
			<circle class="st19" cx="333.7" cy="268.4" r="12"/>
			<g>
				<path class="st20" d="M333.7,280.4v-24c-6.6,0-12,5.4-12,12S327,280.4,333.7,280.4z"/>
			</g>
			<rect x="332.1" y="273.6" class="st4" width="3.2" height="21.1"/>
		</g>
		<g>
			<path class="st19" d="M328.6,263.5c0,7.9-6.4,14.2-14.2,14.2c-7.9,0-14.2-6.4-14.2-14.2c0-7.9,6.4-14.2,14.2-14.2
				S328.6,255.6,328.6,263.5z"/>
			<g>
				<path class="st20" d="M314.3,277.7v-28.5c-7.9,0-14.2,6.4-14.2,14.2C300.1,271.3,306.5,277.7,314.3,277.7z"/>
			</g>
			<rect x="312.5" y="269.7" class="st4" width="3.8" height="25"/>
		</g>
		<g>
			<path class="st19" d="M83.1,263.5c0,7.9-6.4,14.2-14.2,14.2c-7.9,0-14.2-6.4-14.2-14.2c0-7.9,6.4-14.2,14.2-14.2
				C76.8,249.3,83.1,255.6,83.1,263.5z"/>
			<g>
				<path class="st20" d="M68.9,277.7v-28.5c-7.9,0-14.2,6.4-14.2,14.2C54.7,271.3,61,277.7,68.9,277.7z"/>
			</g>
			<rect x="67" y="269.7" class="st4" width="3.8" height="25"/>
		</g>
		<g>
			<circle class="st19" cx="52" cy="268.4" r="12"/>
			<g>
				<path class="st20" d="M52,280.4v-24c-6.6,0-12,5.4-12,12S45.3,280.4,52,280.4z"/>
			</g>
			<rect x="50.4" y="273.6" class="st4" width="3.2" height="21.1"/>
		</g>
		<rect x="21.4" y="294.7" class="st31" width="677.2" height="10.1"/>
		<rect x="21.4" y="340.8" class="st31" width="677.2" height="10.1"/>
		<rect x="39.9" y="350.9" class="st20" width="640.3" height="10.1"/>
		<g>
			<rect y="304.8" class="st0" width="720" height="36"/>
			<g>
				<path class="st3" d="M640.6,322.8c0,0.9,0.7,1.6,1.6,1.6h9.7c0.9,0,1.6-0.7,1.6-1.6l0,0c0-0.9-0.7-1.6-1.6-1.6h-9.7
					C641.3,321.2,640.6,321.9,640.6,322.8L640.6,322.8z"/>
				<path class="st3" d="M665.6,322.8c0,0.9,0.7,1.6,1.6,1.6h9.7c0.9,0,1.6-0.7,1.6-1.6l0,0c0-0.9-0.7-1.6-1.6-1.6h-9.7
					C666.3,321.2,665.6,321.9,665.6,322.8L665.6,322.8z"/>
				<path class="st3" d="M690.5,322.8c0,0.9,0.7,1.6,1.6,1.6h9.7c0.9,0,1.6-0.7,1.6-1.6l0,0c0-0.9-0.7-1.6-1.6-1.6h-9.7
					C691.2,321.2,690.5,321.9,690.5,322.8L690.5,322.8z"/>
				<path class="st3" d="M615.6,322.8c0,0.9,0.7,1.6,1.6,1.6h9.7c0.9,0,1.6-0.7,1.6-1.6l0,0c0-0.9-0.7-1.6-1.6-1.6h-9.7
					C616.3,321.2,615.6,321.9,615.6,322.8L615.6,322.8z"/>
				<path class="st3" d="M590.7,322.8c0,0.9,0.7,1.6,1.6,1.6h9.7c0.9,0,1.6-0.7,1.6-1.6l0,0c0-0.9-0.7-1.6-1.6-1.6h-9.7
					C591.4,321.2,590.7,321.9,590.7,322.8L590.7,322.8z"/>
				<path class="st3" d="M565.7,322.8c0,0.9,0.7,1.6,1.6,1.6h9.7c0.9,0,1.6-0.7,1.6-1.6l0,0c0-0.9-0.7-1.6-1.6-1.6h-9.7
					C566.4,321.2,565.7,321.9,565.7,322.8L565.7,322.8z"/>
				<path class="st3" d="M540.8,322.8c0,0.9,0.7,1.6,1.6,1.6h9.7c0.9,0,1.6-0.7,1.6-1.6l0,0c0-0.9-0.7-1.6-1.6-1.6h-9.7
					C541.5,321.2,540.8,321.9,540.8,322.8L540.8,322.8z"/>
				<path class="st3" d="M515.8,322.8c0,0.9,0.7,1.6,1.6,1.6h9.7c0.9,0,1.6-0.7,1.6-1.6l0,0c0-0.9-0.7-1.6-1.6-1.6h-9.7
					C516.5,321.2,515.8,321.9,515.8,322.8L515.8,322.8z"/>
				<path class="st3" d="M490.9,322.8c0,0.9,0.7,1.6,1.6,1.6h9.7c0.9,0,1.6-0.7,1.6-1.6l0,0c0-0.9-0.7-1.6-1.6-1.6h-9.7
					C491.6,321.2,490.9,321.9,490.9,322.8L490.9,322.8z"/>
				<path class="st3" d="M465.9,322.8c0,0.9,0.7,1.6,1.6,1.6h9.7c0.9,0,1.6-0.7,1.6-1.6l0,0c0-0.9-0.7-1.6-1.6-1.6h-9.7
					C466.6,321.2,465.9,321.9,465.9,322.8L465.9,322.8z"/>
				<path class="st3" d="M440.9,322.8c0,0.9,0.7,1.6,1.6,1.6h9.7c0.9,0,1.6-0.7,1.6-1.6l0,0c0-0.9-0.7-1.6-1.6-1.6h-9.7
					C441.6,321.2,440.9,321.9,440.9,322.8L440.9,322.8z"/>
				<path class="st3" d="M416,322.8c0,0.9,0.7,1.6,1.6,1.6h9.7c0.9,0,1.6-0.7,1.6-1.6l0,0c0-0.9-0.7-1.6-1.6-1.6h-9.7
					C416.7,321.2,416,321.9,416,322.8L416,322.8z"/>
				<path class="st3" d="M391,322.8c0,0.9,0.7,1.6,1.6,1.6h9.7c0.9,0,1.6-0.7,1.6-1.6l0,0c0-0.9-0.7-1.6-1.6-1.6h-9.7
					C391.7,321.2,391,321.9,391,322.8L391,322.8z"/>
				<path class="st3" d="M366.1,322.8c0,0.9,0.7,1.6,1.6,1.6h9.7c0.9,0,1.6-0.7,1.6-1.6l0,0c0-0.9-0.7-1.6-1.6-1.6h-9.7
					C366.8,321.2,366.1,321.9,366.1,322.8L366.1,322.8z"/>
				<path class="st3" d="M341.1,322.8c0,0.9,0.7,1.6,1.6,1.6h9.7c0.9,0,1.6-0.7,1.6-1.6l0,0c0-0.9-0.7-1.6-1.6-1.6h-9.7
					C341.8,321.2,341.1,321.9,341.1,322.8L341.1,322.8z"/>
				<path class="st3" d="M316.2,322.8c0,0.9,0.7,1.6,1.6,1.6h9.7c0.9,0,1.6-0.7,1.6-1.6l0,0c0-0.9-0.7-1.6-1.6-1.6h-9.7
					C316.9,321.2,316.2,321.9,316.2,322.8L316.2,322.8z"/>
				<path class="st3" d="M291.2,322.8c0,0.9,0.7,1.6,1.6,1.6h9.7c0.9,0,1.6-0.7,1.6-1.6l0,0c0-0.9-0.7-1.6-1.6-1.6h-9.7
					C291.9,321.2,291.2,321.9,291.2,322.8L291.2,322.8z"/>
				<path class="st3" d="M266.2,322.8c0,0.9,0.7,1.6,1.6,1.6h9.7c0.9,0,1.6-0.7,1.6-1.6l0,0c0-0.9-0.7-1.6-1.6-1.6h-9.7
					C266.9,321.2,266.2,321.9,266.2,322.8L266.2,322.8z"/>
				<path class="st3" d="M241.3,322.8c0,0.9,0.7,1.6,1.6,1.6h9.7c0.9,0,1.6-0.7,1.6-1.6l0,0c0-0.9-0.7-1.6-1.6-1.6h-9.7
					C242,321.2,241.3,321.9,241.3,322.8L241.3,322.8z"/>
				<path class="st3" d="M216.3,322.8c0,0.9,0.7,1.6,1.6,1.6h9.7c0.9,0,1.6-0.7,1.6-1.6l0,0c0-0.9-0.7-1.6-1.6-1.6h-9.7
					C217,321.2,216.3,321.9,216.3,322.8L216.3,322.8z"/>
				<path class="st3" d="M191.4,322.8c0,0.9,0.7,1.6,1.6,1.6h9.7c0.9,0,1.6-0.7,1.6-1.6l0,0c0-0.9-0.7-1.6-1.6-1.6H193
					C192.1,321.2,191.4,321.9,191.4,322.8L191.4,322.8z"/>
				<path class="st3" d="M166.4,322.8c0,0.9,0.7,1.6,1.6,1.6h9.7c0.9,0,1.6-0.7,1.6-1.6l0,0c0-0.9-0.7-1.6-1.6-1.6H168
					C167.1,321.2,166.4,321.9,166.4,322.8L166.4,322.8z"/>
				<path class="st3" d="M141.5,322.8c0,0.9,0.7,1.6,1.6,1.6h9.7c0.9,0,1.6-0.7,1.6-1.6l0,0c0-0.9-0.7-1.6-1.6-1.6H143
					C142.2,321.2,141.5,321.9,141.5,322.8L141.5,322.8z"/>
				<path class="st3" d="M116.5,322.8c0,0.9,0.7,1.6,1.6,1.6h9.7c0.9,0,1.6-0.7,1.6-1.6l0,0c0-0.9-0.7-1.6-1.6-1.6h-9.7
					C117.2,321.2,116.5,321.9,116.5,322.8L116.5,322.8z"/>
				<path class="st3" d="M91.5,322.8c0,0.9,0.7,1.6,1.6,1.6h9.7c0.9,0,1.6-0.7,1.6-1.6l0,0c0-0.9-0.7-1.6-1.6-1.6h-9.7
					C92.2,321.2,91.5,321.9,91.5,322.8L91.5,322.8z"/>
				<path class="st3" d="M66.6,322.8c0,0.9,0.7,1.6,1.6,1.6h9.7c0.9,0,1.6-0.7,1.6-1.6l0,0c0-0.9-0.7-1.6-1.6-1.6h-9.7
					C67.3,321.2,66.6,321.9,66.6,322.8L66.6,322.8z"/>
				<path class="st3" d="M41.6,322.8c0,0.9,0.7,1.6,1.6,1.6h9.7c0.9,0,1.6-0.7,1.6-1.6l0,0c0-0.9-0.7-1.6-1.6-1.6h-9.7
					C42.3,321.2,41.6,321.9,41.6,322.8L41.6,322.8z"/>
				<path class="st3" d="M16.7,322.8c0,0.9,0.7,1.6,1.6,1.6H28c0.9,0,1.6-0.7,1.6-1.6l0,0c0-0.9-0.7-1.6-1.6-1.6h-9.7
					C17.4,321.2,16.7,321.9,16.7,322.8L16.7,322.8z"/>
			</g>
		</g>
		<g id="logo_x5F_palazzo">
			<path class="st3" d="M317.9,24c-1.5,0.2-3,0.2-4.5,0.2l-4.4,0.1l-0.1,1.5c-0.1,1.1,0,1.6,0.2,1.8c0.3,0.5,0.8,0.1,0.8-0.6
				c0.1-0.5,0.1-0.6,0.4-0.7c1.9-0.1,3.8-0.1,5.7,0.1c0.2,0.2-6.6,10-6.9,10c-0.2,0-0.5,0.6-0.5,1c0,0.3,0.1,0.3,3.7,0.2
				c1.7-0.1,3.4-0.1,5.1,0.1c0.5,0.1,1,0.1,1.5,0.1c0.1-0.8,0.2-1.5,0.2-2.3c0.1-2,0.1-2.1-0.2-2.1c-0.4,0-0.7,0.4-0.8,1.2
				c-0.2,1.3-0.1,1.2-3.6,1.2c-1.7,0-3.1-0.1-3.2-0.1s3.5-5.3,5.4-8c1.1-1.5,2-2.9,2.1-3C319.1,24.3,318.2,23.7,317.9,24z"/>
			<path class="st3" d="M346.5,25.8v1.6h1.2l0.1-0.9l0.1-0.9l1.6-0.1l1.5-0.1v5.3c0,4.1-0.1,5.3-0.2,5.4c-0.3,0.1-0.6,0.2-1,0.3
				c-0.8,0.1-0.8,0.2-0.8,0.6v0.4h3h3l0.1-0.4c0.1-0.4-0.1-0.6-0.9-0.7c-1.2-0.2-1.1,0.4-1.1-5.6v-5.4h1.2c1.4,0,1.5,0,1.5,1.1V27
				l0.5-0.1l0.5-0.1v-1c0-0.6,0-1.3-0.1-1.6v-0.5h-10L346.5,25.8z"/>
			<path class="st3" d="M325.5,26.7c-0.3,0.2-0.6,0.2-0.9,0.1c-1-0.1-1.6,0.4-2.7,2c-1.5,2.3-2.3,4.4-2.3,6.5c0,1.4,0.3,2.1,0.9,2.4
				c1,0.4,1.9-0.3,3-2.4l0.8-1.4l-0.1,1.4c-0.1,0.8-0.1,1.7-0.2,1.9c-0.1,0.6,0.2,0.8,0.9,0.3c0.4-0.3,0.8-0.4,1.2-0.6
				c0.6-0.2,0.8-0.3,0.8-0.6s-0.1-0.4-0.5-0.5l-0.5-0.1l-0.1-0.9c0-0.5,0.1-2.5,0.3-4.6c0.2-2,0.3-3.7,0.2-3.8
				C326.1,26.4,325.8,26.5,325.5,26.7z M324.4,28.2c0.5,1.3-0.9,5.7-2.2,7.1c-0.5,0.6-0.7,0.6-0.9-0.1c-0.4-1.3,0.9-5.3,2-6.7
				C324,27.9,324.3,27.8,324.4,28.2L324.4,28.2z"/>
			<path class="st3" d="M360.9,26.7c-0.3,0.2-0.6,0.2-0.9,0.1c-1-0.1-1.6,0.4-2.7,2c-1.5,2.3-2.3,4.4-2.3,6.5c0,1.3,0.3,2.2,0.9,2.4
				c1,0.4,2-0.3,3-2.3l0.8-1.5l-0.1,1.3c-0.1,0.8-0.1,1.6-0.2,1.9c-0.1,0.8,0.2,0.9,0.9,0.4c0.4-0.3,0.8-0.4,1.2-0.6
				c0.6-0.2,0.8-0.3,0.8-0.6s-0.1-0.4-0.5-0.5c-0.5-0.1-0.5-0.1-0.6-0.8c-0.1-0.4,0.1-2.2,0.2-4c0.3-4.4,0.3-4.5,0.1-4.5
				C361.2,26.5,361.1,26.6,360.9,26.7z M359.9,28.4c0.4,1.5-1.1,6.1-2.4,7.1c-0.4,0.4-0.5,0.3-0.7-0.3c-0.4-1.3,0.9-5.3,2.1-6.7
				C359.5,27.8,359.7,27.8,359.9,28.4L359.9,28.4z"/>
			<path class="st3" d="M330.2,26.8c-1.4,0.5-2.5,1.8-2.9,3.2c-0.4,1.5-0.5,3.1-0.4,4.6c0.2,1.3,0.2,1.6,0.7,2.2
				c0.5,0.7,1.3,1,2.2,0.9c0.5,0.1,1-0.2,1.4-0.5c0.8-0.8,1.2-1.8,1.3-2.9c0-0.6-0.1-0.9-0.2-0.9c-0.3,0-0.6,0.4-0.9,1.2
				c-0.2,0.8-1,1.7-1.4,1.7s-1-0.9-1.2-1.7c-0.2-1.6-0.1-3.2,0.2-4.7c0.3-1.1,0.6-1.7,1-1.8c0.4-0.1,0.6,0.1,0.6,0.8
				c0,0.3,0.1,0.6,0.1,1c0.1,0.4,0.1,0.5,0.8,0.5h0.8v-3.1l-0.4-0.2C331.3,26.6,330.7,26.5,330.2,26.8z"/>
			<path class="st3" d="M339.2,26.8c-0.3,0.2-0.5,0.4-0.8,0.6c-1.1,1.3-1.7,3.2-1.7,5.9c0,3.6,0.8,4.6,3.2,4.6
				c0.5,0,0.7-0.1,1.2-0.6c0.7-0.7,1.1-1.7,1.2-2.6c0.2-1.5-0.6-1.4-1.1,0.2c-0.8,2.6-2.7,1.8-3-1.2l-0.1-0.9l1.2-0.3
				c2.5-0.6,2.5-0.6,2.5-2.9c0-2-0.6-2.9-1.9-2.9C339.7,26.7,339.5,26.7,339.2,26.8z M340,27.8c0.4,0.2,0.5,1,0.4,2
				c-0.1,1.2-0.4,1.5-1.3,1.6l-0.7,0.1l0.1-1c0.1-1.1,0.6-2.5,1-2.7S339.8,27.6,340,27.8L340,27.8z"/>
			<path class="st3" d="M365.6,26.8c-1.4,0.5-2.5,1.7-2.9,3.2c-0.4,1.6-0.5,3.2-0.4,4.8c0.2,1.4,0.4,1.9,1,2.5
				c0.5,0.5,1.3,0.7,2,0.5c0.9-0.1,1.6-0.6,2.2-1.8c0.4-0.9,0.5-2.5,0.2-2.5s-0.6,0.5-0.9,1.2c-0.2,0.7-1,1.7-1.4,1.7
				s-1-0.9-1.1-1.7c-0.5-2.5,0.3-6.7,1.2-6.7c0.4,0,0.5,0.3,0.5,0.9c0,0.3,0.1,0.6,0.1,0.9c0.1,0.4,0.1,0.5,0.8,0.5h0.8v-3.1
				l-0.4-0.2C366.7,26.6,366.2,26.6,365.6,26.8z"/>
			<path class="st3" d="M307.4,28.5c-1.5,0.5-2.9,1.3-4,2.5c-1.2,1.2-1.5,1.7-1.4,3.8c0,1.9,0.5,3.3,2,5.3c1.3,1.4,2.7,2.6,4.3,3.7
				c0.4,0.2,0.7,0.6,0.6,1.1c-0.1,0.4-0.9,0.9-2,1.2s-1.1,0.3-4,0.1c-1-0.1-1-0.1-1.9,0.5c-0.4,0.3-0.8,0.5-1.2,0.6
				c-0.6-0.4-1.1-0.8-1.6-1.3c-0.7-0.7-1.4-1.3-2.2-1.9l-0.8-0.5l0.4-0.4c0.4-0.4,0.4-0.4,0.3-1.8s-0.1-1.4,0.3-1.7s0.5-0.8,0.2-1.2
				c-0.1-0.1-0.2-0.2-0.3-0.3c-0.6-0.4-0.9-1.2-1-2.5s-0.3-1.5-1.2-1.2c-0.4,0.2-0.9,0.2-1.3-0.1c-0.5-0.2-0.7-0.4-0.8-0.6
				c-0.4-2-0.8-2.2-3.1-2c-0.8,0-1.6,0.2-2.3,0.5c-1,0.5-1.9,1.2-2.5,2.2c-0.7,1-1.1,2.2-1,3.4c-0.1,0.8,0.1,1.6,0.4,2.3
				c0.6,1.3,1.2,1.6,2.4,1c0.6-0.3,0.6-0.3,1.2-0.1c0.4,0.2,0.8,0.5,1.1,0.8c0.5,0.5,0.5,0.6,0.5,1.2c-0.1,0.5-0.1,0.6,0.2,0.5
				c0.4-0.2,0.9-0.3,1.3-0.1s0.9,0.5,1.3,0.8s0.9,0.6,1.4,0.9c0.4,0.2,0.8,0.4,1.1,0.7c1.4,1.2,2.7,2.6,4,4c1.1,1.2,0.7,0.3-0.8-1.9
				c-0.6-0.8-1.1-1.7-1.6-2.6c-0.1-0.4,0.1-0.4,0.7-0.1c0.6,0.4,5.1,5.4,5.2,5.9c0.1,0.3,0,0.4-0.4,0.8c-0.4,0.3-0.6,0.4-1.5,0.4
				c-2,0-3.1-0.8-4.3-3.1c-0.4-0.8-0.9-1.5-1.5-2c-1.1-1-2.4-1.7-3.8-2.2c-0.6-0.2-1.1-0.5-1.1-0.9c0-0.5-0.4-0.1-0.9,0.8
				c-1,2.2-1.7,4.5-2,6.9c-0.2,1.7,0.3,5.9,0.9,7.3c0.2,0.5,0.2,1,0.2,1.6c0,1,0,1,0.9,1.9c0.5,0.5,0.8,1,0.8,1.2
				c-0.1,0.2-0.3,0.4-0.7,0.6s-0.6,0.4-0.6,0.5s3.3,0.1,8.3,0.1h8.3l0.1-0.5c0.1-0.6,0.1-1.2,0.1-1.8c0-1-0.1-1.5-0.3-1.7
				c-0.6-0.8-1.1-1.6-1.5-2.4c0-0.6,0.4-1.1,2.2-2.1c1.6-1,3.4-2.1,5.3-3.4c2.6-1.9,6.5-3.6,8.4-3.6c0.8,0.1,1.5-0.3,1.8-1
				c0.3-0.8,0.6-0.9,1.9-0.5c3.2,0.6,6.5,1.1,9.7,1.5c4.1,0.3,8.3,0.3,12.4,0.1c4.7-0.4,9.3-1.3,13.7-2.9c2.8-1,5.4-2.3,8-3.8
				c2.9-1.9,4.3-3.3,5.2-5.2c0.6-1.2,0.6-1.3,0.6-2.9c0-2.2-0.4-3.3-1.2-3.3c-0.4,0-0.5,0.2-0.4,1.7c0.1,1.7-0.1,3.4-0.5,4.4
				c-0.5,1.1-1.7,2.2-3.9,3.7c-4.5,3.1-8.3,4.5-15.2,5.8c-0.5,0.1-1.3,0.2-1.7,0.3c-0.4,0.1-1.3,0.2-2,0.2c-0.8,0.1-2,0.1-2.7,0.2
				c-4.2,0.2-8.5,0.1-12.7-0.2c-2.6-0.3-3-0.5-1.3-0.5c2.2-0.1,3.4-0.5,3.2-1.1c-0.1-0.2-0.3-0.2-1.3-0.2c-1.7,0.2-3.4,0.2-5.2-0.1
				c-0.5-0.1-1.1-0.2-1.6-0.2s-0.5,0.1-0.4,0.3c0.2,0.5,0.3,0.6,1.1,0.9l0.8,0.3l-0.8-0.1c-0.4-0.1-1.1-0.2-1.5-0.2l-1.7-0.3
				c-1.1-0.2-5.4-1.3-5.3-1.5c0.3,0,0.6,0.1,1,0.2c1.1,0.3,3.5,0.3,3.7,0.1c0.3-0.3,0.3-0.7,0-1c-0.2-0.2-0.3-0.2-0.5-0.2
				c-0.5-0.1-1-0.2-1.5-0.3c-0.6-0.2-1.9-0.5-2.7-0.6c-1-0.3-1.9-0.6-2.9-1.1c-1.4-0.8-2.2-0.9-2.2-0.3c-0.1,0.5,0.6,1.1,2,1.9
				c0.4,0.2,0.8,0.4,1.1,0.6c-0.4,0-3.2-1.2-5.1-2.2c-2.6-1.3-3.7-2-5-3.3c-2.4-2.4-2.5-4.4-0.3-6.7c0.6-0.7,1.5-1.2,2.4-1.6
				c0.6-0.3,1.1-0.6,1.7-0.9c0.1-0.2-0.1-0.8-0.2-0.7C308,28.2,307.6,28.3,307.4,28.5z M289.6,32c0.8,0.2,1.1,0.5,0.6,0.7
				c-0.2,0.1-0.3,0.3-0.3,0.8s-0.1,0.6-0.2,0.6c-0.4,0-1.1,0.8-1.2,1.2c-0.2,0.7-0.5,0.8-1.3,0.4s-0.8-0.4-0.8-0.1
				c0.1,0.3,0.2,0.6,0.4,0.8c0.5,0.6,0.6,1.2,0.1,1.7c-0.4,0.4-0.7,0.4-2,0.1c-0.5-0.1-0.4,0.3,0.2,0.7s0.8,0.9,0.2,1.1
				c-0.4,0.1-0.5,0.1-0.9-0.4c-0.6-0.6-0.8-1.4-0.8-2.6c0-1,0.3-2,0.9-2.9c0.6-1,1.6-1.7,2.7-2.1C287.9,31.7,288.8,31.7,289.6,32
				L289.6,32z M291.7,34.8c-0.3,0.5-0.6,1-1.1,1.5c-0.6,0.7-1.1,1.5-1.5,2.3c-0.2,0.5-0.5,1-0.8,1.4c-0.4,0.4-0.4,0.4-0.8,0.2
				c-0.5-0.2-0.7-0.6-0.5-1.1c0.1-0.2,0.2-0.3,0.3-0.4c0.4-0.5,0.8-1,1-1.6c0.6-1.3,1.6-2.4,2.4-2.6
				C291.1,34.3,291.7,34.6,291.7,34.8z M289.2,46.1c-0.4,0.6-1.5,0.6-1.5,0c0-0.3,0.1-0.3,0.8-0.3S289.4,45.9,289.2,46.1L289.2,46.1
				z M312.8,46.7c0,1-1.2,2.5-2.4,3.1c-0.5,0.2-1,0.3-1.5,0.4s-1.1,0.2-1.6,0.3c-2.1,0.9-2.2,0.9-2.6,0.6c-0.5-0.2-0.4-0.2-0.3-0.5
				c0.2-0.4,3.2-3.1,3.7-3.3s1.1-0.3,1.6-0.4c0.6-0.2,1.2-0.3,1.8-0.5C312.7,46,312.8,46,312.8,46.7z M327,46.6
				c-0.1,0.1-0.2,0.1-0.3,0c-0.1-0.1-0.1-0.1,0.1-0.1C327,46.4,327.1,46.4,327,46.6L327,46.6z M302.9,47.4c0.5,1.1,0.6,2.4,0.3,2.7
				c-0.3,0.3-0.7,0.1-1.1-0.8s-0.5-1.7-0.3-2.3C302,46.3,302.5,46.4,302.9,47.4z M292.3,47.5c1.1,0.4,1.2,0.8,0.4,1.5l-0.5,0.4
				l-1.6-0.5c-0.5-0.2-1.1-0.3-1.7-0.4c-0.3,0.2-0.2,0.6,0.3,1c0.3,0.2,0.8,0.3,1.7,0.4c1,0.1,1.4,0.1,1.8,0.4
				c0.3,0.2,0.8,0.4,1.1,0.4c0.5,0.1,0.7,0.2,0.8,0.4c0.1,0.4-0.2,0.5-1.4,0.5c-1.3,0-2.6-0.3-3.7-1c-1.1-0.6-1.3-0.5-0.6,0.3
				c0.6,0.8,2.9,2,3.6,2c0.3,0,0.6-0.1,1-0.2c0.8-0.3,1.6-0.3,2.4,0c0.6,0.2,1.3,0.3,2,0.3c2.2,0.2,2.4,0.6,1.7,3.1
				c-0.4,1.5-0.6,1.7-0.5,0.7c0.3-2.2,0.3-2.3,0.1-2.3c-0.3,0-0.8,1.3-0.8,2.2c-0.1,1.4-0.6,1-1.3-1c-0.3-0.9-0.5-1.3-0.8-1.4
				c-0.4-0.1-0.3,0.4,0.6,2.7c0.8,1.9,0.9,2.2,0.6,2.4s-0.3,0.2-0.9-0.1c-1-0.6-1.9-1.4-2.5-2.4c-0.8-1.1-1.3-1.5-2.4-1.6
				c-0.5,0.1-1-0.2-1.3-0.5s-0.5-0.7-0.8-1.1c-0.6-1-1.3-1.9-2.2-2.8c-0.6-0.8-0.6-0.8-0.5-1.5c0.2-1.5,1-2,3.3-2
				C290.9,47.3,291.6,47.4,292.3,47.5z M287.4,51.7c1.1,1.5,2,3.1,2.9,4.7c0.4,0.8,1,1.6,1.6,2.3c0.6,0.5,0.8,0.6,2,0.8
				c1.7,0.2,2,0.3,2.6,1c0.3,0.3,0.6,0.6,1,0.8c0.4,0.1,0.5,0.1,0.8-0.2s0.3-0.3,0.8-0.1c0.3,0.2,0.6,0.2,0.9,0.1
				c0.2-0.1,0.5-0.1,0.8-0.1c0.2,0.1,0.5,0.1,0.6-0.1c0.2-0.1,0.4-0.2,0.7-0.2c0.4,0,0.4,0,0.3,1.1c-0.1,1.2-0.2,1.3-1,1.8
				c-0.6,0.4-1.3,0.4-7.6,0.2l-2.7-0.1L290,63c-1.7-1.1-2.9-2.8-2.3-3.1c0.3-0.1,1.4,0.3,1.9,0.8c0.3,0.3,0.8,0.5,1.3,0.5
				s0.9,0.2,1.3,0.4s0.8,0.3,1.2,0.4c0.6,0.1,0.8,0.1,0.7-0.2c-0.1-0.3-0.8-0.6-2.6-1.6c-2.9-1.5-3.2-1.7-4.1-3.6
				c-0.7-1.2-1.1-2.6-1.1-4C286.2,50.8,286.5,50.6,287.4,51.7L287.4,51.7z M302.5,52.5c0,0.4-0.1,0.9-0.3,1.2
				c-0.2,0.5-0.3,1-0.2,1.6c0.1,0.9,0.1,1-0.2,1c-0.4,0.1-0.6-0.2-1-1.2c-0.3-1-0.4-2.1-0.2-2.4c0.3-0.2,0.5-0.3,0.8-0.4
				s0.5-0.2,0.8-0.3C302.4,51.8,302.5,52,302.5,52.5L302.5,52.5z M292,56.2c0.2,0.3,0.3,0.5,0.3,0.8c0.1,0.4,0.1,0.5-0.2,0.4
				c-0.5-0.2-1-0.6-1.1-1.2c0-0.2,0-0.4,0.1-0.5C291.3,55.5,291.7,55.8,292,56.2L292,56.2z M293.6,57c0.4,0.8,0.4,0.8,0.1,0.8
				s-0.7-0.5-0.8-1.2C292.7,55.8,293.1,56,293.6,57L293.6,57z M300.8,57.3c0,0.3-0.5,0.4-0.7,0.2c-0.1-0.1-0.1-0.2-0.1-0.3
				C300.2,57,300.8,57.1,300.8,57.3L300.8,57.3z"/>
			<path class="st3" d="M304,33.7c-0.2,0.4-0.3,0.9-0.3,1.4c-0.1,0.6,0,1.3,0.3,1.8c0.3,0.7,0.4,0.9,0.8,0.9c0.5,0,0.5-0.3,0.2-1.3
				c-0.3-0.6-0.4-1.3-0.3-2c0.1-1,0.1-1.1-0.1-1.1S304.2,33.4,304,33.7z"/>
			<path class="st3" d="M345.1,43.5c-1.3,0.5-2.7,0.8-4.2,1c-0.8,0.1-1.6,0.1-2.4,0.1c-1.2-0.1-1.2-0.1-1.2,0.2
				c0,1.1,3.2,1.2,6.6,0.2c0.6-0.1,1.1-0.4,1.6-0.6c0.4-0.3,0.4-0.8,0.1-0.9S345.4,43.4,345.1,43.5z"/>
		</g>
		<g id="pizza_x5F_palazzo">
			<path class="st32" d="M431.6,49.8c-10.6,0-20.4,2.9-28.9,8l28.9,48.2l28.9-48.2C452,52.8,442.1,49.8,431.6,49.8z"/>
			<path class="st33" d="M431.6,58c-9,0-17.5,2.5-24.7,6.8l15.9,26.6c0,0,0,0,0,0.1v15.9c0,1.2,1,2.2,2.2,2.2s2.2-1,2.2-2.2v-8.7
				l4.4,7.4l10-16.7v6.7c0,1.2,1,2.2,2.2,2.2s2.2-1,2.2-2.2v-14l2-3.3V85c0,1.2,1,2.2,2.2,2.2s2.2-1,2.2-2.2V71.5l4-6.6
				C449,60.5,440.6,58,431.6,58z"/>
			<path class="st34" d="M431.6,58c-9,0-17.5,2.5-24.7,6.8l1.2,2c6.9-4.1,14.9-6.5,23.5-6.5s16.6,2.4,23.5,6.5l1.2-2
				C449,60.5,440.6,58,431.6,58z"/>
			<path class="st35" d="M438.6,81.2c-4.5,0-8.1,3.6-8.1,8.1c0,3.9,2.7,7.1,6.3,7.9l8-13.3C443.3,82.3,441.1,81.2,438.6,81.2z"/>
			<path class="st35" d="M419.6,69.8c-3.1,0-5.8,1.8-7.2,4.3l7.2,11.9l0,0c4.5,0,8.1-3.6,8.1-8.1C427.8,73.4,424.1,69.8,419.6,69.8z
				"/>
			<circle class="st35" cx="439.2" cy="70.2" r="8.1"/>
			<g>
				<path class="st35" d="M426.8,58.2c-5.5,0.5-10.8,2-15.6,4.3c1.2,3,4.1,5.2,7.6,5.2c4.5,0,8.1-3.6,8.1-8.1
					C426.9,59.1,426.9,58.6,426.8,58.2z"/>
				<path class="st36" d="M426.8,58.2c-5.5,0.5-10.8,2-15.6,4.3c0.3,0.7,0.7,1.4,1.2,2c4.5-2.1,9.4-3.4,14.5-4c0-0.3,0.1-0.7,0.1-1
					C426.9,59.1,426.9,58.6,426.8,58.2z"/>
			</g>
			<g>
				<circle class="st34" cx="406.9" cy="58.1" r="0.8"/>
				<circle class="st34" cx="413.2" cy="59.6" r="0.8"/>
				<circle class="st34" cx="420.1" cy="54.3" r="0.8"/>
				<circle class="st34" cx="429" cy="55.9" r="0.8"/>
				<circle class="st34" cx="438.4" cy="52.7" r="0.8"/>
				<circle class="st34" cx="442.9" cy="57.3" r="0.8"/>
				<circle class="st34" cx="457" cy="58.7" r="0.8"/>
				<circle class="st34" cx="450.5" cy="57.2" r="0.8"/>
			</g>
		</g>
	</g>
</g>
<g id="moto">
	<title>s1</title>
	<g id="s1">
		<polygon class="st37" points="50.8,292.2 56.4,264.2 65.2,279.6 64.4,283.2 63.3,288.6 		"/>
		<path class="st38" d="M97.6,288.6c-2.9,0-5.4,2.5-5.4,5.4c0,0.1,0,0.2,0,0.2c0.1,2.9,2.8,5.2,5.6,5.2h1.5c1,0,1.8-0.9,1.8-1.8
			v-7.2c0-1-0.9-1.8-1.8-1.8L97.6,288.6L97.6,288.6z"/>
		<path class="st39" d="M106.5,312c-7,0-12.6,5.6-12.6,12.6s5.6,12.6,12.6,12.6s12.6-5.6,12.6-12.6S113.5,312,106.5,312z
			 M106.5,331.7c-3.9,0-7.2-3.2-7.2-7.2s3.2-7.2,7.2-7.2s7.2,3.2,7.2,7.2S110.6,331.7,106.5,331.7z"/>
		<path class="st38" d="M106.5,326.3c-0.5,0-1-0.1-1.2-0.5l-16.2-16.2c-0.7-0.6-0.7-1.8-0.1-2.6c0.6-0.7,1.8-0.7,2.6-0.1l0.1,0.1
			l16.2,16.2c0.7,0.7,0.7,1.8,0,2.6C107.5,326.2,107,326.3,106.5,326.3z"/>
		<path class="st37" d="M72.4,324.5L72.4,324.5c-6,0-10.8-4.8-10.8-10.8v-10.8H38.2v21.6L72.4,324.5L72.4,324.5z"/>
		<path class="st37" d="M75,326.3H47.2c-1,0-1.8-0.9-1.8-1.8s0.9-1.8,1.8-1.8h27.7c1.2,0,2.3-0.6,2.9-1.6l11.8-17
			c1.3-2,1.7-4.5,0.7-6.7L85.8,286c-0.2-0.6-1-1.1-1.7-1.1h-4.8c-1,0-1.8-0.9-1.8-1.8s0.9-1.8,1.8-1.8h5c2.2,0,4.2,1.3,5,3.4
			l4.5,11.3c1.3,3.3,1,7.1-1.1,10.2l-11.8,17C79.5,325.2,77.3,326.3,75,326.3z"/>
		<path class="st40" d="M63.3,302.9H29.2c-2,0-3.6-1.6-3.6-3.6l0,0c0-2,1.6-3.6,3.6-3.6h34.2c2,0,3.6,1.6,3.6,3.6l0,0
			C67,301.3,65.4,302.9,63.3,302.9z"/>
		<path class="st41" d="M40,295.8H9.4c-2,0-3.6-1.6-3.6-3.6v-18c0-2,1.6-3.6,3.6-3.6h30.5c2,0,3.6,1.6,3.6,3.6v18
			C43.6,294.2,42,295.8,40,295.8z"/>
		<path class="st42" d="M88.6,326.3c-1,0-1.8-0.9-1.8-1.8c0-10.9,8.8-19.7,19.7-19.7c3.4,0,6.9,1,9.9,2.7c0.9,0.4,1.2,1.5,0.9,2.5
			c-0.4,0.9-1.5,1.2-2.5,0.9c-0.1,0-0.1-0.1-0.2-0.1c-7.7-4.4-17.7-1.8-22.1,6c-1.5,2.5-2.2,5.3-2.2,8.1
			C90.3,325.6,89.6,326.3,88.6,326.3L88.6,326.3z"/>
		<path class="st42" d="M79.5,283.2H67c-1.3,0-2.6-0.7-3.2-2l-7.2-14.3c-0.9-1.7-0.1-3.9,1.6-4.8c1.7-0.9,3.9-0.1,4.8,1.6l0,0
			l6.3,12.4h10.3c2-0.1,3.7,1.3,3.9,3.3c0.1,2-1.3,3.7-3.3,3.9C79.9,283.2,79.8,283.2,79.5,283.2L79.5,283.2z"/>
		<path class="st43" d="M51.6,288.6h24.8c3.9,0,7.2,3.2,7.2,7.2c0,0.9-0.1,1.6-0.4,2.5l-8.8,22.3c-0.5,1.3-1.8,2.3-3.3,2.3
			c-0.5,0-0.9-0.1-1.3-0.2c-1.8-0.7-2.8-2.8-2.1-4.7l8.6-22.2l-22,0.1c-2,0-3.6-1.6-3.6-3.6"/>
		<path class="st41" d="M72.2,249.1c-0.4-0.6-1-1-1.6-0.9c-13.4,0.7-13.4,1.6-13.4,3.3c0,1,0.5,6.5,0.6,7.7c0,0.5,0.2,0.9,0.6,1.2
			c3.7,3.3,9.4,2.9,12.8-0.7c1.5-1.6,2.2-3.8,2.2-6C73.4,252,73,250.4,72.2,249.1z"/>
		<path class="st39" d="M41.8,324.5c0,3.9-3.2,7.2-7.2,7.2s-7.2-3.2-7.2-7.2H22c0,7,5.6,12.6,12.6,12.6s12.6-5.6,12.6-12.6H41.8z"/>
		<path class="st42" d="M35,303.2c-10.2,1.3-18.5,8.7-21.1,18.8c-0.6,2.2,1.2,4.4,3.6,4.4h35.3c1.3-2.7,2-5.8,1.6-8.8
			C53.4,308.1,44.3,301.9,35,303.2z"/>
		<path class="st37" d="M75.6,247.7c-2.8-5.3-8.8-8-14.7-6.3c-6.6,2-10.4,9-8.5,15.7c0.2,1,0.7,2,1.2,2.8c0.4,0.5,0.9,0.9,1.5,0.9
			h5.3c1,0,1.7-0.5,2.2-1.2l4.2-6.9c0.4-0.5,1-0.9,1.6-0.9h4.8c1.5,0,2.8-1.2,2.8-2.7C75.9,248.6,75.7,248.1,75.6,247.7L75.6,247.7z
			"/>
			<g id="logo_x5F_zac" transform="translate(0.000000,292.000000) scale(0.100000,-0.100000)">
				<path class="st7" d="M662.1,1061.6c-1.1-1.4-37.7-2.7-81.1-3.5l-79.2-1.4l-0.8-27.1c-0.5-20.6,0.3-28.5,3.3-32.5
					c6.2-8.4,13.6-2.2,14.6,11.7c0.8,9.2,2.2,11.7,7.1,13c8.1,1.9,101.2,0.3,103.3-2.2c3.8-3.8-118.8-180.9-125.6-181.2
					c-3.8,0-8.7-10.8-8.7-19c0-5.2,2.4-5.2,67.3-3.5c41.5,0.8,76.7,0.3,92.7-1.6c14.1-1.6,26.3-1.9,27.4-0.8c1.1,1.1,2.4,19.3,3.5,40.7
					c1.4,36.6,1.4,38.5-3.5,38.5c-8.1,0-13-6.8-14.9-21.2c-3-23.6-0.8-22.8-65.4-22.5c-31.2,0.3-57,0.8-57.2,1.1
					c-1.4,1.4,64,97.1,98.7,145.1c19.8,27.4,36.9,51.5,37.7,53.7C684.3,1057,668.3,1067.6,662.1,1061.6z"/>
				<path class="st7" d="M1181.2,1029.6v-28.5h10.8h10.6l0.8,15.7l0.8,15.5l27.9,0.8l27.7,0.8v-96.3c0-74-0.8-96.8-3.3-98.4
					c-1.9-1.1-10.3-3.3-18.4-4.9c-14.1-2.4-14.9-3.3-14.9-10.8v-8.1l53.7-0.3h53.7l1.6,6.5c1.9,7.9-1.6,10.6-16.8,12.7
					c-22.5,3.5-20.3-7.1-20.3,102v97.4h22.8c25.5,0,26-0.3,26-20.6v-12.2l10,0.8l9.8,0.8v19c-0.3,10.6-0.3,23.1-0.5,27.9l-0.3,8.7H1272
					h-90.8V1029.6z"/>
				<path class="st7" d="M800.4,1013.4c-3.5-2.7-8.7-3.3-16.8-2.2c-17.4,2.2-29.6-6.8-49.6-37.4C706.6,932,693,893.5,693,856.1
					c0-24.9,5.2-38.5,16.8-44.2c17.1-8.1,35.3,6.2,54,42.6l13.6,26l-1.6-25.8c-0.8-14.1-2.2-29.8-3-34.4c-2.2-11.9,4.1-14.1,15.7-6
					c4.9,3.5,14.9,8.4,22.5,11.1c11.9,4.1,13.6,5.4,13.6,12.2c0,6.5-1.1,7.9-9.5,8.9l-9.5,1.4l-0.8,16.3c-0.3,8.9,1.6,46.1,4.6,82.7
					c3,36.3,4.6,67.3,4.1,68.3C811.3,1018.5,806.1,1017.7,800.4,1013.4z M780.9,986c8.7-23.1-15.5-103.3-38.8-128.3
					c-10-10.6-13-10.6-16,0.5c-6.8,24.4,15.5,97.1,37.2,122C773,991.1,778.2,992.7,780.9,986z"/>
				<path class="st7" d="M1443.1,1013.4c-3.5-2.7-8.7-3.3-16.8-2.2c-17.4,2.2-29.6-6.8-49.6-37.4c-27.4-41.8-40.9-80.3-40.9-117.7
					c0-24.7,5.2-38.8,16.3-43.9c17.4-8.1,35.8,6,54.5,42.3l13.6,26l-1.6-24.4c-0.8-13.3-2.2-28.7-3-34.4c-2.2-13.3,3.5-16,15.7-7.3
					c4.9,3.5,14.9,8.4,22.5,11.1c11.9,4.1,13.6,5.4,13.6,12.2c0,6.5-1.1,7.9-9.5,8.9c-9.2,1.4-9.5,1.6-10.3,14.9
					c-0.5,7.6,1.1,40.4,3.5,73.2c6.2,80.5,6.2,81.1,1.4,81.9C1450.2,1016.9,1445.9,1015.5,1443.1,1013.4z M1424.2,983.2
					c7.1-27.7-20.3-110.4-42.6-129.1c-8.1-6.8-10-6.2-13,4.9c-6.8,24.7,15.5,96,38,121.8C1416.6,992.2,1421.7,992.7,1424.2,983.2z"/>
				<path class="st7" d="M884.8,1010.9c-24.7-8.9-43.9-30.6-51.8-58.6c-6.8-24.4-10-61.8-7.1-84.3c3-24.1,4.3-28.2,12.7-39.9
					c9.8-13,20.6-17.6,39.3-16.3c13.6,1.1,17.1,2.4,25.2,10.3c14.6,14.1,23.1,33.4,23.1,52.1c0,11.4-1.1,15.7-3.5,15.7
					c-5.4,0-11.4-8.1-15.5-21.4c-4.1-13-18.4-30.1-25.2-30.1c-7.3,0-17.6,15.5-21.2,31.7c-3.5,17.6-1.9,68.6,3,86.2
					c5.7,20.9,11.4,31.2,18.4,33.1c7.9,1.9,11.4-2.4,11.4-14.4c0-4.6,0.8-12.5,1.6-17.1c1.6-8.1,2.4-8.4,14.9-8.4h13.3v28.5v28.2
					l-8.1,4.3C905.9,1015.5,898.3,1015.5,884.8,1010.9z"/>
				<path class="st7" d="M1049.4,1012c-3-1.1-9.2-6.5-14.1-11.9c-20.6-23.6-30.6-57.8-30.6-106c0-64.3,14.1-84.3,58.3-83
					c8.7,0.3,12.5,2.2,21.2,11.1c14.1,14.9,20.3,28.5,22.5,48c3.3,27.7-10.6,24.9-19.5-3.8c-14.6-46.4-49.1-32.3-54.2,22l-1.4,16.8
					l21.2,4.9c45,10.6,45.6,11.1,45.6,51.8c0,36.9-10.6,53.2-34.4,52.6C1058.9,1014.4,1052.6,1013.4,1049.4,1012z M1063.7,993.6
					c6.5-4.1,9.5-17.9,7.6-36.3c-2.2-21.4-6.5-26.6-24.7-28.7l-12.7-1.4l1.9,17.1c2.4,20.6,11.1,45,17.4,48.8
					C1058.9,996.3,1059.7,996.3,1063.7,993.6z"/>
				<path class="st7" d="M1527.5,1010.9c-24.4-8.9-43.9-30.6-51.8-58c-6.8-23.9-10.3-64.8-7.1-86.8c3.5-24.9,7.9-35.5,18.7-44.7
					c10.8-8.9,18.4-11.1,35.8-9.5c16.3,1.6,28.7,12.2,39.1,33.1c7.9,15.5,9.8,45,3.3,45c-5.7,0-11.9-8.4-15.7-21.4
					c-3.8-12.7-18.2-30.1-24.9-30.1c-7.1,0-17.6,15.2-20.6,29.8c-9.8,45,4.6,122,22.5,122c7.1,0,9.8-4.6,9.8-16.3
					c0-4.1,0.8-11.4,1.6-16c1.6-8.1,2.4-8.4,14.9-8.4h13.3v28.5v28.2l-8.1,4.3C1548.6,1015.5,1541,1015.5,1527.5,1010.9z"/>
				<path class="st7" d="M472,928.2c-30.6-11.1-54-25.2-73.8-44.7c-22.8-22.8-26-31.5-25.8-68.1c0.3-34.4,10-59.9,36.9-96
					c11.1-14.6,62.6-59.1,77.8-67c8.4-4.3,13.3-12.7,11.4-20.1c-1.6-6.5-16.5-15.2-36.9-21.7c-19.3-6.2-19.3-6.2-72.4-1.1
					c-17.4,1.6-17.9,1.4-34.2-9.5c-9.2-6.2-18.7-11.1-21.2-11.1c-2.7,0-16,11.1-29.6,24.7c-13.8,13.6-31.5,29-39.6,34.2l-14.4,9.2
					l7.3,7.9c7.3,7.6,7.3,8.1,5.4,33.1c-1.6,24.7-1.6,25.5,5.2,31.7c10,9.2,9.2,20.1-1.4,27.7c-11.1,7.9-16.5,21.2-18.4,45.6
					c-1.9,24.1-5.2,27.4-21.7,22c-9.5-3-12.5-3-23.3,1.1c-9.2,3.8-12.5,6.5-13.8,11.9c-7.6,35.8-13.3,39.6-55.3,36.9
					c-21.7-1.4-31.5-3.3-42.3-8.4c-18.4-8.7-34.2-22.2-45.8-39.9c-13.8-20.9-17.6-34.2-17.6-61.6c0-20.9,1.1-26.6,7.9-41.5
					c11.1-24.4,22.2-29,44.2-17.6c10.6,5.4,11.4,5.4,21.2,1.1c5.7-2.7,14.9-9.2,20.3-14.9c9.5-9.8,10-11.4,8.4-22
					c-1.6-10-1.4-11.1,3-9.2c10.6,4.3,13.8,4.3,23.3,0.5c5.4-2.4,16.3-8.9,24.1-14.9c7.9-6,19.3-13.3,25.2-16.5
					c6-3.3,14.9-8.9,19.8-12.5c8.7-6.2,51-48.8,72.1-72.4c19.3-21.4,13-6.2-14.4,34.7c-14.6,22.2-27.7,43.1-28.7,46.6
					c-2.2,7.3,2.4,7.9,12.5,1.1c11.1-7.1,91.7-98.7,93.6-106c1.6-5.2,0-8.1-7.3-14.1c-8.1-6.8-11.7-7.6-27.1-7.9
					c-36.1,0-55.3,13.6-78.1,55.6c-7.6,13.8-17.4,27.1-27.7,36.9c-15.5,14.6-47.5,33.4-68.9,40.4c-12.2,3.8-20.3,10-20.3,15.5
					c0,8.7-7.6,2.2-15.7-13.3c-17.4-34.2-32.5-86.2-37.2-125.6c-3.3-30.9,6-107.9,16-132.1c2.4-5.7,4.3-17.9,4.3-27.7
					c0-17.6,0-17.6,15.2-33.9c8.9-10,14.6-18.2,14.1-21.2c-0.5-2.7-6-7.6-12.5-11.1c-6.2-3.5-11.4-7.6-11.4-8.9s59.9-2.4,150.2-2.4H405
					l1.4,8.7c0.8,4.9,1.1,20.1,0.8,33.6c-0.3,18.7-1.4,26-5.2,31.2c-13.8,19-26.3,39.6-26.3,43.7c0,12.2,7.3,19.3,39.3,38.2
					c29.6,17.4,61.8,38.5,95.7,62.6c48.3,34.4,118.2,64,151.9,64c15.5,0,27.1,6.5,32,17.6c6,14.4,10.8,15.7,35,9.5
					c31.5-8.1,102.8-18.4,176.3-26c50.4-4.9,179.5-5.7,225.6-1.1c93.3,9.2,176.3,26.3,248.4,51.8c41.2,14.4,113.1,49.1,144.3,69.7
					c52.1,34.2,77.6,59.9,94.6,95.2c10.8,22.8,11.1,23.9,11.1,51.8c0,39.1-7.6,59.7-22,59.7c-8.1,0-8.7-2.7-7.3-31.2
					c1.6-31.2-2.4-62.9-10-78.6c-9.8-20.1-29.8-39.6-70.2-67.5c-81.9-56.7-150.2-82.4-276.9-104.7c-9.8-1.6-23.1-4.1-29.8-5.4
					s-23.1-3-36.6-4.1c-13.3-0.8-36.1-2.2-50.2-3.3c-48.3-3.5-195-1.4-229.7,3.3c-46.4,6-54.2,8.9-24.7,9.2c40.1,0.5,62.6,8.4,58,20.9
					c-1.4,3.8-4.6,4.1-24.1,2.7c-36.9-3.3-72.7-2.2-93.6,2.2c-10.8,2.4-24.1,4.3-29.3,4.3c-8.7,0-9.5-0.5-7.9-6
					c2.7-8.9,4.6-10.3,20.9-16l14.4-5.2l-13.6,1.4c-7.3,0.8-19.5,2.7-27.1,4.1c-7.3,1.4-21.4,3.8-31.2,5.4
					c-20.6,3.5-98.2,24.7-96.5,26.3c0.5,0.5,8.4-0.8,17.4-3c19.5-5.2,63.2-5.7,67.8-1.1c7.9,7.9,1.9,21.2-9.5,21.2
					c-3.3,0-15.5,2.4-27.1,5.2c-11.7,3-33.9,8.4-49.4,12.2c-18.4,4.6-36.3,11.4-51.5,19.5c-25.8,13.6-39.1,15.2-40.4,4.6
					c-1.4-8.7,11.4-20.9,36.1-34.7c11.9-6.8,20.6-12.2,19.5-12.2c-6.8,0-57.5,22.2-91.4,39.6c-47.2,24.7-66.2,37.4-89.5,60.7
					c-42.6,42.6-44.7,80.5-6.2,122c11.1,12.2,20.3,18.4,42.8,29.6c15.5,7.9,29,15.5,30.1,16.8c1.6,3-1.1,13.3-3.8,13
					C486.4,933.1,479.6,930.9,472,928.2z M150.4,865c14.9-3.3,19.3-8.7,11.1-13c-4.1-2.2-5.4-5.7-5.4-13.6c0-7.6-1.1-10.8-3.8-10.8
					c-6.8,0-20.1-13.3-22-21.7c-2.7-12.5-9.8-14.9-24.7-8.1c-15.2,6.5-14.6,6.5-14.6,0.8c0.3-2.7,3.8-9.2,8.1-14.4
					c10-11.4,10.3-21.2,1.1-31.2c-7.1-7.6-12.7-7.9-35.8-2.2c-9.8,2.4-7.3-5.7,4.1-13c12.5-8.1,13.6-16,2.7-20.1
					c-7.1-2.4-8.7-1.6-16.8,7.3C43.5,736.7,39.5,750,39.5,772c0.3,19,4.1,30.9,16.5,51.8c10,16.8,25.2,28.5,48.5,38.2
					C121.4,869.1,130.8,869.6,150.4,865z M188.6,812.7c0-1.6-8.7-14.1-19.3-27.4c-10.8-13.3-23.1-32-27.4-41.8
					c-4.6-9.8-11.1-20.9-14.9-24.9c-6.5-6.8-7.6-7.1-14.4-3.5c-13,6.8-14.4,18.7-3.8,28.7c3.8,3.5,11.9,16.8,18.2,29
					c11.1,23.3,29.8,43.4,43.1,46.9C177.5,821.6,188.6,817.3,188.6,812.7z M142.5,607.9c-6.5-12.2-27.1-12.2-27.1,0
					c0,4.9,1.9,5.4,14.9,5.4C144.7,613.3,145.2,613.1,142.5,607.9z M571,597.6c0-17.6-21.2-44.5-43.9-56.4c-4.6-2.4-17.1-5.4-27.7-6.8
					s-23.6-4.1-28.7-6.2C432.1,513,430.5,512.5,424,516c-8.4,4.3-7.9,3.8-6,8.9c2.7,6.8,58.3,56.1,67.8,60.2c4.9,1.9,18.2,5.7,29.6,7.9
					c11.7,2.4,26.6,6.8,33.6,9.5C568.3,610.4,571,609.8,571,597.6z M827.8,600.9c-0.8-0.8-3.3-1.1-5.2-0.3c-2.2,0.8-1.4,1.6,1.6,1.6
					C827.3,602.5,828.9,601.7,827.8,600.9z M390.6,585.4c8.9-19.5,11.7-42.8,5.4-48.8c-6.5-6.8-13-1.9-20.3,14.9
					c-7.6,17.6-9.5,31.2-5.7,40.9C374.9,604.9,383.1,602.2,390.6,585.4z M199.5,581.9c19.5-6.8,21.4-14.6,6.8-26.3l-9.8-7.9l-28.2,8.7
					c-15.5,4.6-29.6,7.9-31.2,6.8c-5.2-3.3-2.7-11.7,4.9-17.1c5.4-4.1,13.3-5.7,31.2-6.5c19.3-1.1,25.2-2.4,32-7.3
					c4.6-3.5,14.1-7.1,20.9-8.1c9.5-1.1,13-3,13.6-6.8c1.6-7.6-4.1-9.8-25.2-9.5c-24.7,0-44.5,5.2-67,17.4
					c-19.5,10.3-23.1,8.9-11.4-4.9c12.2-14.6,52.1-37.2,65.6-37.2c4.3,0,12.5,1.9,17.6,4.1c12.2,5.2,28.2,5.2,43.1,0.3
					c6.5-2.2,23.1-4.6,37.2-5.7c39.9-3,44.5-11.1,31.7-55.3c-7.6-26.3-11.1-31.5-8.7-12.5c4.9,40.1,5.2,42,1.9,42
					c-5.2,0-14.6-24.7-14.9-39.1c-0.5-25.5-10.6-17.4-24.1,19c-6,16-10.3,24.4-13.6,24.9c-7.6,1.6-5.7-7.1,11.4-48.5
					c13.8-33.9,15.5-39.6,12.2-43.1c-3.5-3.5-5.4-3.3-16.3,2.4c-17.6,9.5-34.2,24.9-46.1,43.1c-13.3,20.9-23.6,27.7-44.5,29.6
					c-13.6,1.4-17.6,3-24.7,10c-4.6,4.6-10.8,13.3-13.8,19.3c-6,11.4-19.8,29.3-39.6,51c-11.4,12.5-11.9,13.8-10.3,25.2
					c3.5,26.8,18.4,35.8,59.9,36.1C178,586.2,191.3,584.6,199.5,581.9z M109.2,507.6c7.1-7.9,28.2-42.6,52.1-86
					c10.3-18.4,21.4-34.4,28.5-40.9c10.6-9.8,13.6-10.8,35.8-14.1c31.5-4.3,35.8-6.2,47.2-19c5.2-6,13.6-12.2,18.7-13.6
					c7.9-2.2,9.8-1.6,14.6,3.8c5.4,6.2,6,6.2,14.6,2.2c7.1-3.3,10.8-3.8,16.8-1.6c4.3,1.9,10,1.9,13.6,0.5c4.1-1.4,7.9-0.8,11.9,1.9
					c3.3,2.2,8.7,4.1,12.5,4.1c6.5,0,6.5-0.3,4.6-19.5c-1.9-21.4-3.3-23.9-17.4-32.5c-10.8-6.5-23.6-6.8-137.5-2.7l-48.8,1.9l-19,12.7
					c-30.4,20.3-52.9,50.7-40.9,55.3c6,2.2,25.8-6,34.7-14.4c5.7-5.4,11.1-7.3,23.1-8.4c9.8-0.8,18.7-3.3,23.6-6.8
					c4.3-3,13.8-6,21.2-6.8c12.2-1.1,13.6-0.8,12.5,3.8c-0.5,3.5-14.9,12.2-48.3,28.5c-53.2,26.3-58,30.6-75.4,64.3
					c-14.4,27.9-19.5,47.2-19.5,73C88.3,523.6,92.3,526.3,109.2,507.6z M383.9,492.1c0-5.7-2.4-15.7-5.4-22.2
					c-4.3-9.5-5.2-15.2-3.8-28.7c1.6-16,1.4-17.1-4.1-19c-7.6-2.4-12.2,3.3-17.9,21.7c-6.2,19.5-8.1,38.5-4.3,43.1
					c1.6,1.9,8.7,5.2,15.2,7.1c6.8,1.9,13,4.6,13.8,5.7C380.6,505.1,383.9,501.3,383.9,492.1z M192.7,425.4c2.2-3.5,4.9-10.3,5.7-14.9
					c1.6-7.9,1.4-8.7-3.8-6.8c-10.6,4.1-19.5,14.1-19.5,22c0,4.3,0.8,8.7,1.6,9.5C179.4,437.6,188.1,432.2,192.7,425.4z M221.7,411.3
					c6.5-13.8,6.8-14.9,1.9-14.9c-6,0-12.5,9.2-14.9,21.2C205.7,431.6,213.6,428.1,221.7,411.3z M352.7,404.5c0-4.9-8.9-7.1-12.7-3.3
					c-1.6,1.6-1.9,4.1-0.8,6C341.8,411.6,352.7,409.4,352.7,404.5z"/>
				<path class="st7" d="M411.8,833.8c-3-4.3-5.2-14.1-5.7-25.5c-1.1-15.2,0-20.9,5.7-33.4c5.7-12.5,8.1-15.2,13.6-15.2
					c9.8,0,10.3,5.2,2.7,23.1c-6.2,14.4-6.8,18.7-5.2,37.4c1.4,17.6,1.1,20.9-2.4,20.9C418.3,841.1,414.5,837.9,411.8,833.8z"/>
				<path class="st7" d="M1290.5,669.8c-12.2-6-5.7-18.4,9.2-18.4c10.6,0,16.3,7.6,11.7,16.3C1308.1,673.5,1300,674.4,1290.5,669.8z"/>
				<path class="st7" d="M1156.8,654.3c-7.9-4.6-55.6-16.3-75.9-18.7c-11.1-1.4-30.4-1.9-42.6-1.1c-21.4,1.1-22.5,1.1-22.5-4.3
					c0-19.8,58.8-21.7,119.9-3.8c13,3.5,26,8.9,29.3,11.9c6.5,6,7.1,14.4,1.1,16.8C1160.8,657,1161.9,657,1156.8,654.3z"/>
				<path class="st7" d="M1256.6,641.8c-14.6-8.1-57.2-17.6-78.1-17.6c-11.1,0-22.2-1.4-24.4-2.7c-6.2-4.1,0-11.7,11.9-14.6
					c14.6-3.8,63.2,4.6,88.4,15.5c17.6,7.6,20.3,9.8,21.2,16.3c0.8,6.2,0,7.3-5.4,7.3C1266.6,645.6,1260.6,644,1256.6,641.8z"/>
			</g>
	</g>
</g>
</svg>
