<?xml version="1.0" encoding="utf-8"?>
<!-- Generator: Adobe Illustrator 21.0.0, SVG Export Plug-In . SVG Version: 6.00 Build 0)  -->
<svg version="1.1" id="Layer_1" xmlns="http://www.w3.org/2000/svg" xmlns:xlink="http://www.w3.org/1999/xlink" x="0px" y="0px"
	 viewBox="0 0 500 500" style="enable-background:new 0 0 500 500;" xml:space="preserve">
<style type="text/css">
	.st0{fill:#E7001E;}
	.st1{fill:#8A8895;}
	.st2{fill:#C9C9C9;}
	.st3{fill:#7E5C62;}
	.st4{fill:#FFE0B1;}
	.st5{fill:#FF4F19;}
	.st6{fill:#5C546A;}
	.st7{stroke:#000000;stroke-miterlimit:10;stroke-dasharray:1000;stroke-dashoffset:1000;}
</style>
<g id="moto">
	<title>s1</title>
	<g id="s1">
		<polygon class="st0" points="198.6,263.9 223.3,140.4 262.1,208.3 258.6,224.2 253.7,248.1 		"/>
		<path class="st1" d="M405.1,248.1c-12.8,0-23.8,11-23.8,23.8c0,0.4,0,0.9,0,0.9c0.4,12.8,12.4,22.9,24.7,22.9h6.6
			c4.4,0,7.9-4,7.9-7.9V256c0-4.4-4-7.9-7.9-7.9H405.1L405.1,248.1z"/>
		<path class="st2" d="M444.3,351.3c-30.9,0-55.6,24.7-55.6,55.6s24.7,55.6,55.6,55.6s55.6-24.7,55.6-55.6S475.2,351.3,444.3,351.3z
			 M444.3,438.2c-17.2,0-31.8-14.1-31.8-31.8c0-17.7,14.1-31.8,31.8-31.8c17.7,0,31.8,14.1,31.8,31.8
			C476.1,424.1,462.4,438.2,444.3,438.2z"/>
		<path class="st1" d="M444.3,414.4c-2.2,0-4.4-0.4-5.3-2.2l-71.5-71.5c-3.1-2.6-3.1-7.9-0.4-11.5c2.6-3.1,7.9-3.1,11.5-0.4l0.4,0.4
			l71.5,71.5c3.1,3.1,3.1,7.9,0,11.5C448.8,414,446.5,414.4,444.3,414.4z"/>
		<path class="st0" d="M293.9,406.5L293.9,406.5c-26.5,0-47.7-21.2-47.7-47.7v-47.7H143v95.3L293.9,406.5L293.9,406.5z"/>
		<path class="st0" d="M305.3,414.4H182.7c-4.4,0-7.9-4-7.9-7.9c0-4,4-7.9,7.9-7.9h122.2c5.3,0,10.1-2.6,12.8-7.1l52.1-75
			c5.7-8.8,7.5-19.9,3.1-29.6L353,236.6c-0.9-2.6-4.4-4.9-7.5-4.9h-21.2c-4.4,0-7.9-4-7.9-7.9c0-4,4-7.9,7.9-7.9h22.1
			c9.7,0,18.5,5.7,22.1,15l19.9,49.9c5.7,14.6,4.4,31.3-4.9,45l-52.1,75C325.2,409.5,315.5,414.4,305.3,414.4z"/>
		<path class="st3" d="M253.7,311.2H103.3c-8.8,0-15.9-7.1-15.9-15.9l0,0c0-8.8,7.1-15.9,15.9-15.9h150.9c8.8,0,15.9,7.1,15.9,15.9
			l0,0C270,304.1,263,311.2,253.7,311.2z"/>
		<path class="st4" d="M150.9,279.8h-135c-8.8,0-15.9-7.1-15.9-15.9v-79.4c0-8.8,7.1-15.9,15.9-15.9h134.6c8.8,0,15.9,7.1,15.9,15.9
			v79.4C166.8,272.8,159.7,279.8,150.9,279.8z"/>
		<path class="st5" d="M365.4,414.4c-4.4,0-7.9-4-7.9-7.9c0-48.1,38.8-86.9,86.9-86.9c15,0,30.4,4.4,43.7,11.9c4,1.8,5.3,6.6,4,11
			c-1.8,4-6.6,5.3-11,4c-0.4,0-0.4-0.4-0.9-0.4c-34-19.4-78.1-7.9-97.5,26.5c-6.6,11-9.7,23.4-9.7,35.7
			C372.9,411.3,369.8,414.4,365.4,414.4L365.4,414.4z"/>
		<path class="st5" d="M325.2,224.2H270c-5.7,0-11.5-3.1-14.1-8.8l-31.8-63.1c-4-7.5-0.4-17.2,7.1-21.2s17.2-0.4,21.2,7.1l0,0
			l27.8,54.7h45.4c8.8-0.4,16.3,5.7,17.2,14.6c0.4,8.8-5.7,16.3-14.6,17.2C327,224.2,326.5,224.2,325.2,224.2L325.2,224.2z"/>
		<path class="st6" d="M202.1,248.1h109.4c17.2,0,31.8,14.1,31.8,31.8c0,4-0.4,7.1-1.8,11l-38.8,98.4c-2.2,5.7-7.9,10.1-14.6,10.1
			c-2.2,0-4-0.4-5.7-0.9c-7.9-3.1-12.4-12.4-9.3-20.7l37.9-98l-97.1,0.4c-8.8,0-15.9-7.1-15.9-15.9"/>
		<path class="st4" d="M293,73.8c-1.8-2.6-4.4-4.4-7.1-4c-59.1,3.1-59.1,7.1-59.1,14.6c0,4.4,2.2,28.7,2.6,34c0,2.2,0.9,4,2.6,5.3
			c16.3,14.6,41.5,12.8,56.5-3.1c6.6-7.1,9.7-16.8,9.7-26.5C298.3,86.6,296.5,79.5,293,73.8z"/>
		<path class="st2" d="M158.9,406.5c0,17.2-14.1,31.8-31.8,31.8s-31.8-14.1-31.8-31.8H71.5c0,30.9,24.7,55.6,55.6,55.6
			s55.6-24.7,55.6-55.6H158.9z"/>
		<path class="st5" d="M128.8,312.5c-45,5.7-81.6,38.4-93.1,83c-2.6,9.7,5.3,19.4,15.9,19.4h155.8c5.7-11.9,8.8-25.6,7.1-38.8
			C210,334.1,169.9,306.7,128.8,312.5z"/>
		<path class="st0" d="M308,67.6c-12.4-23.4-38.8-35.3-64.9-27.8c-29.1,8.8-45.9,39.7-37.5,69.3c0.9,4.4,3.1,8.8,5.3,12.4
			c1.8,2.2,4,4,6.6,4h23.4c4.4,0,7.5-2.2,9.7-5.3l18.5-30.4c1.8-2.2,4.4-4,7.1-4h21.2c6.6,0,12.4-5.3,12.4-11.9
			C309.3,71.6,308.4,69.3,308,67.6L308,67.6z"/>
	</g>
</g>
<g id="logo_x5F_zac" transform="translate(0.000000,292.000000) scale(0.100000,-0.100000)">
	<path class="st7" d="M662.1,1061.6c-1.1-1.4-37.7-2.7-81.1-3.5l-79.2-1.4l-0.8-27.1c-0.5-20.6,0.3-28.5,3.3-32.5
		c6.2-8.4,13.6-2.2,14.6,11.7c0.8,9.2,2.2,11.7,7.1,13c8.1,1.9,101.2,0.3,103.3-2.2c3.8-3.8-118.8-180.9-125.6-181.2
		c-3.8,0-8.7-10.8-8.7-19c0-5.2,2.4-5.2,67.3-3.5c41.5,0.8,76.7,0.3,92.7-1.6c14.1-1.6,26.3-1.9,27.4-0.8c1.1,1.1,2.4,19.3,3.5,40.7
		c1.4,36.6,1.4,38.5-3.5,38.5c-8.1,0-13-6.8-14.9-21.2c-3-23.6-0.8-22.8-65.4-22.5c-31.2,0.3-57,0.8-57.2,1.1
		c-1.4,1.4,64,97.1,98.7,145.1c19.8,27.4,36.9,51.5,37.7,53.7C684.3,1057,668.3,1067.6,662.1,1061.6z"/>
	<path class="st7" d="M1181.2,1029.6v-28.5h10.8h10.6l0.8,15.7l0.8,15.5l27.9,0.8l27.7,0.8v-96.3c0-74-0.8-96.8-3.3-98.4
		c-1.9-1.1-10.3-3.3-18.4-4.9c-14.1-2.4-14.9-3.3-14.9-10.8v-8.1l53.7-0.3h53.7l1.6,6.5c1.9,7.9-1.6,10.6-16.8,12.7
		c-22.5,3.5-20.3-7.1-20.3,102v97.4h22.8c25.5,0,26-0.3,26-20.6v-12.2l10,0.8l9.8,0.8v19c-0.3,10.6-0.3,23.1-0.5,27.9l-0.3,8.7H1272
		h-90.8V1029.6z"/>
	<path class="st7" d="M800.4,1013.4c-3.5-2.7-8.7-3.3-16.8-2.2c-17.4,2.2-29.6-6.8-49.6-37.4C706.6,932,693,893.5,693,856.1
		c0-24.9,5.2-38.5,16.8-44.2c17.1-8.1,35.3,6.2,54,42.6l13.6,26l-1.6-25.8c-0.8-14.1-2.2-29.8-3-34.4c-2.2-11.9,4.1-14.1,15.7-6
		c4.9,3.5,14.9,8.4,22.5,11.1c11.9,4.1,13.6,5.4,13.6,12.2c0,6.5-1.1,7.9-9.5,8.9l-9.5,1.4l-0.8,16.3c-0.3,8.9,1.6,46.1,4.6,82.7
		c3,36.3,4.6,67.3,4.1,68.3C811.3,1018.5,806.1,1017.7,800.4,1013.4z M780.9,986c8.7-23.1-15.5-103.3-38.8-128.3
		c-10-10.6-13-10.6-16,0.5c-6.8,24.4,15.5,97.1,37.2,122C773,991.1,778.2,992.7,780.9,986z"/>
	<path class="st7" d="M1443.1,1013.4c-3.5-2.7-8.7-3.3-16.8-2.2c-17.4,2.2-29.6-6.8-49.6-37.4c-27.4-41.8-40.9-80.3-40.9-117.7
		c0-24.7,5.2-38.8,16.3-43.9c17.4-8.1,35.8,6,54.5,42.3l13.6,26l-1.6-24.4c-0.8-13.3-2.2-28.7-3-34.4c-2.2-13.3,3.5-16,15.7-7.3
		c4.9,3.5,14.9,8.4,22.5,11.1c11.9,4.1,13.6,5.4,13.6,12.2c0,6.5-1.1,7.9-9.5,8.9c-9.2,1.4-9.5,1.6-10.3,14.9
		c-0.5,7.6,1.1,40.4,3.5,73.2c6.2,80.5,6.2,81.1,1.4,81.9C1450.2,1016.9,1445.9,1015.5,1443.1,1013.4z M1424.2,983.2
		c7.1-27.7-20.3-110.4-42.6-129.1c-8.1-6.8-10-6.2-13,4.9c-6.8,24.7,15.5,96,38,121.8C1416.6,992.2,1421.7,992.7,1424.2,983.2z"/>
	<path class="st7" d="M884.8,1010.9c-24.7-8.9-43.9-30.6-51.8-58.6c-6.8-24.4-10-61.8-7.1-84.3c3-24.1,4.3-28.2,12.7-39.9
		c9.8-13,20.6-17.6,39.3-16.3c13.6,1.1,17.1,2.4,25.2,10.3c14.6,14.1,23.1,33.4,23.1,52.1c0,11.4-1.1,15.7-3.5,15.7
		c-5.4,0-11.4-8.1-15.5-21.4c-4.1-13-18.4-30.1-25.2-30.1c-7.3,0-17.6,15.5-21.2,31.7c-3.5,17.6-1.9,68.6,3,86.2
		c5.7,20.9,11.4,31.2,18.4,33.1c7.9,1.9,11.4-2.4,11.4-14.4c0-4.6,0.8-12.5,1.6-17.1c1.6-8.1,2.4-8.4,14.9-8.4h13.3v28.5v28.2
		l-8.1,4.3C905.9,1015.5,898.3,1015.5,884.8,1010.9z"/>
	<path class="st7" d="M1049.4,1012c-3-1.1-9.2-6.5-14.1-11.9c-20.6-23.6-30.6-57.8-30.6-106c0-64.3,14.1-84.3,58.3-83
		c8.7,0.3,12.5,2.2,21.2,11.1c14.1,14.9,20.3,28.5,22.5,48c3.3,27.7-10.6,24.9-19.5-3.8c-14.6-46.4-49.1-32.3-54.2,22l-1.4,16.8
		l21.2,4.9c45,10.6,45.6,11.1,45.6,51.8c0,36.9-10.6,53.2-34.4,52.6C1058.9,1014.4,1052.6,1013.4,1049.4,1012z M1063.7,993.6
		c6.5-4.1,9.5-17.9,7.6-36.3c-2.2-21.4-6.5-26.6-24.7-28.7l-12.7-1.4l1.9,17.1c2.4,20.6,11.1,45,17.4,48.8
		C1058.9,996.3,1059.7,996.3,1063.7,993.6z"/>
	<path class="st7" d="M1527.5,1010.9c-24.4-8.9-43.9-30.6-51.8-58c-6.8-23.9-10.3-64.8-7.1-86.8c3.5-24.9,7.9-35.5,18.7-44.7
		c10.8-8.9,18.4-11.1,35.8-9.5c16.3,1.6,28.7,12.2,39.1,33.1c7.9,15.5,9.8,45,3.3,45c-5.7,0-11.9-8.4-15.7-21.4
		c-3.8-12.7-18.2-30.1-24.9-30.1c-7.1,0-17.6,15.2-20.6,29.8c-9.8,45,4.6,122,22.5,122c7.1,0,9.8-4.6,9.8-16.3
		c0-4.1,0.8-11.4,1.6-16c1.6-8.1,2.4-8.4,14.9-8.4h13.3v28.5v28.2l-8.1,4.3C1548.6,1015.5,1541,1015.5,1527.5,1010.9z"/>
	<path class="st7" d="M472,928.2c-30.6-11.1-54-25.2-73.8-44.7c-22.8-22.8-26-31.5-25.8-68.1c0.3-34.4,10-59.9,36.9-96
		c11.1-14.6,62.6-59.1,77.8-67c8.4-4.3,13.3-12.7,11.4-20.1c-1.6-6.5-16.5-15.2-36.9-21.7c-19.3-6.2-19.3-6.2-72.4-1.1
		c-17.4,1.6-17.9,1.4-34.2-9.5c-9.2-6.2-18.7-11.1-21.2-11.1c-2.7,0-16,11.1-29.6,24.7c-13.8,13.6-31.5,29-39.6,34.2l-14.4,9.2
		l7.3,7.9c7.3,7.6,7.3,8.1,5.4,33.1c-1.6,24.7-1.6,25.5,5.2,31.7c10,9.2,9.2,20.1-1.4,27.7c-11.1,7.9-16.5,21.2-18.4,45.6
		c-1.9,24.1-5.2,27.4-21.7,22c-9.5-3-12.5-3-23.3,1.1c-9.2,3.8-12.5,6.5-13.8,11.9c-7.6,35.8-13.3,39.6-55.3,36.9
		c-21.7-1.4-31.5-3.3-42.3-8.4c-18.4-8.7-34.2-22.2-45.8-39.9c-13.8-20.9-17.6-34.2-17.6-61.6c0-20.9,1.1-26.6,7.9-41.5
		c11.1-24.4,22.2-29,44.2-17.6c10.6,5.4,11.4,5.4,21.2,1.1c5.7-2.7,14.9-9.2,20.3-14.9c9.5-9.8,10-11.4,8.4-22
		c-1.6-10-1.4-11.1,3-9.2c10.6,4.3,13.8,4.3,23.3,0.5c5.4-2.4,16.3-8.9,24.1-14.9c7.9-6,19.3-13.3,25.2-16.5
		c6-3.3,14.9-8.9,19.8-12.5c8.7-6.2,51-48.8,72.1-72.4c19.3-21.4,13-6.2-14.4,34.7c-14.6,22.2-27.7,43.1-28.7,46.6
		c-2.2,7.3,2.4,7.9,12.5,1.1c11.1-7.1,91.7-98.7,93.6-106c1.6-5.2,0-8.1-7.3-14.1c-8.1-6.8-11.7-7.6-27.1-7.9
		c-36.1,0-55.3,13.6-78.1,55.6c-7.6,13.8-17.4,27.1-27.7,36.9c-15.5,14.6-47.5,33.4-68.9,40.4c-12.2,3.8-20.3,10-20.3,15.5
		c0,8.7-7.6,2.2-15.7-13.3c-17.4-34.2-32.5-86.2-37.2-125.6c-3.3-30.9,6-107.9,16-132.1c2.4-5.7,4.3-17.9,4.3-27.7
		c0-17.6,0-17.6,15.2-33.9c8.9-10,14.6-18.2,14.1-21.2c-0.5-2.7-6-7.6-12.5-11.1c-6.2-3.5-11.4-7.6-11.4-8.9s59.9-2.4,150.2-2.4H405
		l1.4,8.7c0.8,4.9,1.1,20.1,0.8,33.6c-0.3,18.7-1.4,26-5.2,31.2c-13.8,19-26.3,39.6-26.3,43.7c0,12.2,7.3,19.3,39.3,38.2
		c29.6,17.4,61.8,38.5,95.7,62.6c48.3,34.4,118.2,64,151.9,64c15.5,0,27.1,6.5,32,17.6c6,14.4,10.8,15.7,35,9.5
		c31.5-8.1,102.8-18.4,176.3-26c50.4-4.9,179.5-5.7,225.6-1.1c93.3,9.2,176.3,26.3,248.4,51.8c41.2,14.4,113.1,49.1,144.3,69.7
		c52.1,34.2,77.6,59.9,94.6,95.2c10.8,22.8,11.1,23.9,11.1,51.8c0,39.1-7.6,59.7-22,59.7c-8.1,0-8.7-2.7-7.3-31.2
		c1.6-31.2-2.4-62.9-10-78.6c-9.8-20.1-29.8-39.6-70.2-67.5c-81.9-56.7-150.2-82.4-276.9-104.7c-9.8-1.6-23.1-4.1-29.8-5.4
		s-23.1-3-36.6-4.1c-13.3-0.8-36.1-2.2-50.2-3.3c-48.3-3.5-195-1.4-229.7,3.3c-46.4,6-54.2,8.9-24.7,9.2c40.1,0.5,62.6,8.4,58,20.9
		c-1.4,3.8-4.6,4.1-24.1,2.7c-36.9-3.3-72.7-2.2-93.6,2.2c-10.8,2.4-24.1,4.3-29.3,4.3c-8.7,0-9.5-0.5-7.9-6
		c2.7-8.9,4.6-10.3,20.9-16l14.4-5.2l-13.6,1.4c-7.3,0.8-19.5,2.7-27.1,4.1c-7.3,1.4-21.4,3.8-31.2,5.4
		c-20.6,3.5-98.2,24.7-96.5,26.3c0.5,0.5,8.4-0.8,17.4-3c19.5-5.2,63.2-5.7,67.8-1.1c7.9,7.9,1.9,21.2-9.5,21.2
		c-3.3,0-15.5,2.4-27.1,5.2c-11.7,3-33.9,8.4-49.4,12.2c-18.4,4.6-36.3,11.4-51.5,19.5c-25.8,13.6-39.1,15.2-40.4,4.6
		c-1.4-8.7,11.4-20.9,36.1-34.7c11.9-6.8,20.6-12.2,19.5-12.2c-6.8,0-57.5,22.2-91.4,39.6c-47.2,24.7-66.2,37.4-89.5,60.7
		c-42.6,42.6-44.7,80.5-6.2,122c11.1,12.2,20.3,18.4,42.8,29.6c15.5,7.9,29,15.5,30.1,16.8c1.6,3-1.1,13.3-3.8,13
		C486.4,933.1,479.6,930.9,472,928.2z M150.4,865c14.9-3.3,19.3-8.7,11.1-13c-4.1-2.2-5.4-5.7-5.4-13.6c0-7.6-1.1-10.8-3.8-10.8
		c-6.8,0-20.1-13.3-22-21.7c-2.7-12.5-9.8-14.9-24.7-8.1c-15.2,6.5-14.6,6.5-14.6,0.8c0.3-2.7,3.8-9.2,8.1-14.4
		c10-11.4,10.3-21.2,1.1-31.2c-7.1-7.6-12.7-7.9-35.8-2.2c-9.8,2.4-7.3-5.7,4.1-13c12.5-8.1,13.6-16,2.7-20.1
		c-7.1-2.4-8.7-1.6-16.8,7.3C43.5,736.7,39.5,750,39.5,772c0.3,19,4.1,30.9,16.5,51.8c10,16.8,25.2,28.5,48.5,38.2
		C121.4,869.1,130.8,869.6,150.4,865z M188.6,812.7c0-1.6-8.7-14.1-19.3-27.4c-10.8-13.3-23.1-32-27.4-41.8
		c-4.6-9.8-11.1-20.9-14.9-24.9c-6.5-6.8-7.6-7.1-14.4-3.5c-13,6.8-14.4,18.7-3.8,28.7c3.8,3.5,11.9,16.8,18.2,29
		c11.1,23.3,29.8,43.4,43.1,46.9C177.5,821.6,188.6,817.3,188.6,812.7z M142.5,607.9c-6.5-12.2-27.1-12.2-27.1,0
		c0,4.9,1.9,5.4,14.9,5.4C144.7,613.3,145.2,613.1,142.5,607.9z M571,597.6c0-17.6-21.2-44.5-43.9-56.4c-4.6-2.4-17.1-5.4-27.7-6.8
		s-23.6-4.1-28.7-6.2C432.1,513,430.5,512.5,424,516c-8.4,4.3-7.9,3.8-6,8.9c2.7,6.8,58.3,56.1,67.8,60.2c4.9,1.9,18.2,5.7,29.6,7.9
		c11.7,2.4,26.6,6.8,33.6,9.5C568.3,610.4,571,609.8,571,597.6z M827.8,600.9c-0.8-0.8-3.3-1.1-5.2-0.3c-2.2,0.8-1.4,1.6,1.6,1.6
		C827.3,602.5,828.9,601.7,827.8,600.9z M390.6,585.4c8.9-19.5,11.7-42.8,5.4-48.8c-6.5-6.8-13-1.9-20.3,14.9
		c-7.6,17.6-9.5,31.2-5.7,40.9C374.9,604.9,383.1,602.2,390.6,585.4z M199.5,581.9c19.5-6.8,21.4-14.6,6.8-26.3l-9.8-7.9l-28.2,8.7
		c-15.5,4.6-29.6,7.9-31.2,6.8c-5.2-3.3-2.7-11.7,4.9-17.1c5.4-4.1,13.3-5.7,31.2-6.5c19.3-1.1,25.2-2.4,32-7.3
		c4.6-3.5,14.1-7.1,20.9-8.1c9.5-1.1,13-3,13.6-6.8c1.6-7.6-4.1-9.8-25.2-9.5c-24.7,0-44.5,5.2-67,17.4
		c-19.5,10.3-23.1,8.9-11.4-4.9c12.2-14.6,52.1-37.2,65.6-37.2c4.3,0,12.5,1.9,17.6,4.1c12.2,5.2,28.2,5.2,43.1,0.3
		c6.5-2.2,23.1-4.6,37.2-5.7c39.9-3,44.5-11.1,31.7-55.3c-7.6-26.3-11.1-31.5-8.7-12.5c4.9,40.1,5.2,42,1.9,42
		c-5.2,0-14.6-24.7-14.9-39.1c-0.5-25.5-10.6-17.4-24.1,19c-6,16-10.3,24.4-13.6,24.9c-7.6,1.6-5.7-7.1,11.4-48.5
		c13.8-33.9,15.5-39.6,12.2-43.1c-3.5-3.5-5.4-3.3-16.3,2.4c-17.6,9.5-34.2,24.9-46.1,43.1c-13.3,20.9-23.6,27.7-44.5,29.6
		c-13.6,1.4-17.6,3-24.7,10c-4.6,4.6-10.8,13.3-13.8,19.3c-6,11.4-19.8,29.3-39.6,51c-11.4,12.5-11.9,13.8-10.3,25.2
		c3.5,26.8,18.4,35.8,59.9,36.1C178,586.2,191.3,584.6,199.5,581.9z M109.2,507.6c7.1-7.9,28.2-42.6,52.1-86
		c10.3-18.4,21.4-34.4,28.5-40.9c10.6-9.8,13.6-10.8,35.8-14.1c31.5-4.3,35.8-6.2,47.2-19c5.2-6,13.6-12.2,18.7-13.6
		c7.9-2.2,9.8-1.6,14.6,3.8c5.4,6.2,6,6.2,14.6,2.2c7.1-3.3,10.8-3.8,16.8-1.6c4.3,1.9,10,1.9,13.6,0.5c4.1-1.4,7.9-0.8,11.9,1.9
		c3.3,2.2,8.7,4.1,12.5,4.1c6.5,0,6.5-0.3,4.6-19.5c-1.9-21.4-3.3-23.9-17.4-32.5c-10.8-6.5-23.6-6.8-137.5-2.7l-48.8,1.9l-19,12.7
		c-30.4,20.3-52.9,50.7-40.9,55.3c6,2.2,25.8-6,34.7-14.4c5.7-5.4,11.1-7.3,23.1-8.4c9.8-0.8,18.7-3.3,23.6-6.8
		c4.3-3,13.8-6,21.2-6.8c12.2-1.1,13.6-0.8,12.5,3.8c-0.5,3.5-14.9,12.2-48.3,28.5c-53.2,26.3-58,30.6-75.4,64.3
		c-14.4,27.9-19.5,47.2-19.5,73C88.3,523.6,92.3,526.3,109.2,507.6z M383.9,492.1c0-5.7-2.4-15.7-5.4-22.2
		c-4.3-9.5-5.2-15.2-3.8-28.7c1.6-16,1.4-17.1-4.1-19c-7.6-2.4-12.2,3.3-17.9,21.7c-6.2,19.5-8.1,38.5-4.3,43.1
		c1.6,1.9,8.7,5.2,15.2,7.1c6.8,1.9,13,4.6,13.8,5.7C380.6,505.1,383.9,501.3,383.9,492.1z M192.7,425.4c2.2-3.5,4.9-10.3,5.7-14.9
		c1.6-7.9,1.4-8.7-3.8-6.8c-10.6,4.1-19.5,14.1-19.5,22c0,4.3,0.8,8.7,1.6,9.5C179.4,437.6,188.1,432.2,192.7,425.4z M221.7,411.3
		c6.5-13.8,6.8-14.9,1.9-14.9c-6,0-12.5,9.2-14.9,21.2C205.7,431.6,213.6,428.1,221.7,411.3z M352.7,404.5c0-4.9-8.9-7.1-12.7-3.3
		c-1.6,1.6-1.9,4.1-0.8,6C341.8,411.6,352.7,409.4,352.7,404.5z"/>
	<path class="st7" d="M411.8,833.8c-3-4.3-5.2-14.1-5.7-25.5c-1.1-15.2,0-20.9,5.7-33.4c5.7-12.5,8.1-15.2,13.6-15.2
		c9.8,0,10.3,5.2,2.7,23.1c-6.2,14.4-6.8,18.7-5.2,37.4c1.4,17.6,1.1,20.9-2.4,20.9C418.3,841.1,414.5,837.9,411.8,833.8z"/>
	<path class="st7" d="M1290.5,669.8c-12.2-6-5.7-18.4,9.2-18.4c10.6,0,16.3,7.6,11.7,16.3C1308.1,673.5,1300,674.4,1290.5,669.8z"/>
	<path class="st7" d="M1156.8,654.3c-7.9-4.6-55.6-16.3-75.9-18.7c-11.1-1.4-30.4-1.9-42.6-1.1c-21.4,1.1-22.5,1.1-22.5-4.3
		c0-19.8,58.8-21.7,119.9-3.8c13,3.5,26,8.9,29.3,11.9c6.5,6,7.1,14.4,1.1,16.8C1160.8,657,1161.9,657,1156.8,654.3z"/>
	<path class="st7" d="M1256.6,641.8c-14.6-8.1-57.2-17.6-78.1-17.6c-11.1,0-22.2-1.4-24.4-2.7c-6.2-4.1,0-11.7,11.9-14.6
		c14.6-3.8,63.2,4.6,88.4,15.5c17.6,7.6,20.3,9.8,21.2,16.3c0.8,6.2,0,7.3-5.4,7.3C1266.6,645.6,1260.6,644,1256.6,641.8z"/>
</g>
</svg>
