<?xml version="1.0" encoding="utf-8"?>
<!-- Generator: Adobe Illustrator 21.0.0, SVG Export Plug-In . SVG Version: 6.00 Build 0)  -->
<svg version="1.1" id="Layer_1" xmlns="http://www.w3.org/2000/svg" xmlns:xlink="http://www.w3.org/1999/xlink" x="0px" y="0px"
	 viewBox="0 0 512 512" style="enable-background:new 0 0 512 512;" xml:space="preserve">
<style type="text/css">
	.st0{fill:#FFAB5F;}
	.st1{fill:#FFCC60;}
	.st2{opacity:0.1;enable-background:new    ;}
	.st3{fill:#EF645E;}
	.st4{fill:#E23B3B;}
	.st5{fill:#FFFFFF;}
	.st6{font-family:'PTMono-Bold';}
	.st7{font-size:98.675px;}
</style>
<path class="st0" d="M450.4,240.4c-2.1,0-4.1-0.8-5.7-2.4l-183-182.9c-1.5-1.5-3.6-2.4-5.7-2.4s-4.2,0.8-5.7,2.4l-182.9,183
	c-3.2,3.2-8.3,3.2-11.4,0c-3.2-3.2-3.2-8.3,0-11.4l182.9-183c4.6-4.6,10.7-7.1,17.1-7.1c6.4,0,12.6,2.5,17.1,7.1L456,226.6
	c3.2,3.2,3.2,8.3,0,11.4C454.5,239.6,452.4,240.4,450.4,240.4z"/>
<circle class="st1" cx="256" cy="59.8" r="25.9"/>
<path class="st2" d="M251.7,59.8c0-10.4,6.2-19.4,15.1-23.5c-3.3-1.5-6.9-2.4-10.8-2.4c-14.3,0-25.9,11.6-25.9,25.9
	s11.6,25.9,25.9,25.9c3.8,0,7.5-0.8,10.8-2.4C257.9,79.2,251.7,70.2,251.7,59.8z"/>
<path class="st3" d="M512,461.9c0,8.9-7.2,16.2-16.2,16.2H16.2c-8.9,0-16.2-7.2-16.2-16.2V224.8c0-8.9,7.2-16.2,16.2-16.2h479.7
	c8.9,0,16.2,7.2,16.2,16.2L512,461.9L512,461.9z"/>
<g>
	<path class="st4" d="M482.3,349.2h-25.8c-4.5,0-8.1-3.6-8.1-8.1s3.6-8.1,8.1-8.1h25.8c4.5,0,8.1,3.6,8.1,8.1
		C490.3,345.6,486.7,349.2,482.3,349.2z"/>
	<path class="st4" d="M55.5,349.2H29.7c-4.5,0-8.1-3.6-8.1-8.1s3.6-8.1,8.1-8.1h25.8c4.5,0,8.1,3.6,8.1,8.1S60,349.2,55.5,349.2z"/>
</g>
<path class="st5" d="M91.5,429.6c-4.6,0-8.7-2.9-10.2-7.2c-4.1-11.8-13.6-21.2-25.5-25.2c-4.4-1.5-7.3-5.6-7.3-10.2v-87.2
	c0-4.6,3-8.7,7.3-10.2c11.8-4,21.3-13.4,25.5-25.2c1.5-4.3,5.6-7.2,10.2-7.2h329c4.6,0,8.7,2.9,10.2,7.2
	c4.1,11.8,13.6,21.2,25.5,25.2c4.4,1.5,7.3,5.6,7.3,10.2V387c0,4.6-3,8.7-7.3,10.2c-11.8,4-21.3,13.4-25.5,25.2
	c-1.5,4.3-5.6,7.2-10.2,7.2L91.5,429.6L91.5,429.6z"/>
<path class="st2" d="M114.2,422.4c-4.1-11.8-13.6-21.2-25.5-25.2c-4.4-1.5-7.3-5.6-7.3-10.2v-87.2c0-4.6,3-8.7,7.3-10.2
	c11.8-4,21.3-13.4,25.5-25.2c1.5-4.3,5.6-7.2,10.2-7.2H91.5c-4.6,0-8.7,2.9-10.2,7.2c-4.1,11.8-13.6,21.2-25.5,25.2
	c-4.4,1.5-7.3,5.6-7.3,10.2V387c0,4.6,3,8.7,7.3,10.2c11.8,4,21.3,13.4,25.5,25.2c1.5,4.3,5.6,7.2,10.2,7.2h32.9
	C119.8,429.6,115.7,426.7,114.2,422.4z"/>
<g>
	<circle class="st5" cx="38.3" cy="246.4" r="13.2"/>
	<circle class="st5" cx="474.8" cy="246.4" r="13.2"/>
	<circle class="st5" cx="38.3" cy="437.1" r="13.2"/>
	<circle class="st5" cx="474.8" cy="437.1" r="13.2"/>
</g>
<text transform="matrix(1 0 0 1 80.4326 375.8818)" class="st4 st6 st7">APERTO</text>
</svg>
