<?xml version="1.0" encoding="utf-8"?>
<!-- Generator: Adobe Illustrator 21.0.0, SVG Export Plug-In . SVG Version: 6.00 Build 0)  -->
<svg version="1.1" id="Layer_1" xmlns="http://www.w3.org/2000/svg" xmlns:xlink="http://www.w3.org/1999/xlink" x="0px" y="0px"
	 viewBox="0 0 591 292" style="enable-background:new 0 0 591 292;" xml:space="preserve">
<style type="text/css">
	.st0{fill:#FFFFFF;}
	.st1{fill:#FF0000;}
</style>
<g transform="translate(0.000000,292.000000) scale(0.100000,-0.100000)">
	<g id="XMLID_1_">
		<g>
			<path class="st0" d="M1195,490c0-18-33-26-47-12c-6,6-7,15-3,22C1155,516,1195,508,1195,490z"/>
			<path class="st0" d="M455,1330c-16.4,5.4-69.7,23.3-75,57c-1.4,8.9,0.8,17.1,1.6,22.1c13.8,16.2,34.5,34.3,51.7,38.2
				c9.5,2.1,18.1-0.6,39.7-10.3c20-9,60-33,89-55s71-49,93-61s55-33,73-46c32-23,188-180,266-267c71-79,48-23-53,128
				c-54,82-102,159-106,172c-8,27,9,29,46,4c41-26,338-364,345-391c6-19,0-30-27-52c-30-25-43-28-100-29c-133,0-204,50-288,205
				c-28,51-64,100-102,136C652,1235,534,1304,455,1330z"/>
			<path d="M375.1,1400.9c-1.6-2.1-4.9-6.7-6.7-6.1c-1.6,0.7-0.1,4.8,1.6,11.4c5.1,5.7,9.1,8.9,11,7.9c1.1-0.6,1-2.3,0.6-5
				C379.2,1406.3,377,1403.5,375.1,1400.9z"/>
			<path d="M449,2188c-72,17-107,15-169-11c-86-36-142-79-179-141c-46-77-60-121-61-191c0-81,15-130,55-173c30-33,36-36,62-27
				c40,15,36,44-10,74c-42,27-51,57-15,48c85-21,106-20,132,8c34,37,33,73-4,115c-16,19-29,43-30,53c0,21-2,21,54-3
				c55-25,81-16,91,30c7,31,56,80,81,80c10,0,14,12,14,40c0,29,5,42,20,50C520,2156,504,2176,449,2188z M728,1275
				c-18,13-51,34-73,46s-64,39-93,61s-69,46-89,55c-21.6,9.7-30.2,12.4-39.7,10.3c-17.2-3.9-37.9-22-51.7-38.2
				c0.4,2.7,0.5,4.4-0.6,5c-1.9,1-5.9-2.2-11-7.9c2,7.5,4.5,18.3,3.3,30.8c-0.5,6.3-1.4,17.8,2.7,32c0,0,6.9,18.1,0.9,38.6
				c-3.5,12-12.8,22.8-31.9,42.4c-20,21-54,45-75,55c-36,16-39,16-78-4c-81-42-122-25-163,65c-25,55-29,76-29,153
				c0,101,14,150,65,227c43,65,101,115,169,147c40,19,76,26,156,31c155,10,176-4,204-136c5-20,17-30,51-44c40-15,51-15,86-4
				c61,20,73,8,80-81c7-90,27-139,68-168c39-28,42-68,5-102c-25-23-25-26-19-117c7-92,7-94-20-122l-27-29l53-34c30-19,95-76,146-126
				c50-50,99-91,109-91c9,0,44,18,78,41c60,40,62,41,126,35c196-19,196-19,267,4c75,24,130,56,136,80c7,27-11,58-42,74
				c-56,29-246,193-287,247c-99,133-135,227-136,354c-1,135,11,167,95,251c73,72,159,124,272,165c28,10,53,18,57,18
				c10,1,20-37,14-48c-4-5-54-33-111-62c-83-41-117-64-158-109c-142-153-134-293,23-450c86-86,156-133,330-224
				c125-64,312-146,337-146c4,0-28,20-72,45c-91,51-138,96-133,128c5,39,54,33,149-17c56-30,122-55,190-72c57-14,139-34,182-45
				c43-10,88-19,100-19c42,0,64-49,35-78c-17-17-178-15-250,4c-33,8-62,13-64,11c-6-6,280-84,356-97c36-6,88-15,115-20
				c28-5,73-12,100-15l50-5l-53,19c-60,21-67,26-77,59c-6,20-3,22,29,22c19,0,68-7,108-16c77-16,209-20,345-8c72,5,84,4,89-10
				c17-46-66-75-214-77c-109-1-80-12,91-34c128-17,669-25,847-12c52,4,136,9,185,12c50,4,110,10,135,15s74,14,110,20
				c467,82,719,177,1021,386c149,103,223,175,259,249c28,58,43,175,37,290c-5,105-3,115,27,115c53,0,81-76,81-220
				c0-103-1-107-41-191c-63-130-157-225-349-351c-115-76-380-204-532-257c-266-94-572-157-916-191c-170-17-646-14-832,4
				c-271,28-534,66-650,96c-89,23-107,18-129-35c-18-41-61-65-118-65c-124,0-382-109-560-236c-125-89-244-167-353-231
				c-118-70-145-96-145-141c0-15,46-91,97-161c14-19,18-46,19-115c1-50,0-106-3-124l-5-32H834C501,0,280,4,280,9s19,20,42,33
				c24,13,44,31,46,41c2,11-19,41-52,78c-56,60-56,60-56,125c0,36-7,81-16,102c-37,89-71,373-59,487c0,0,9.2,255.3,137,463
				c9.8,15.8,33.5,52,48,68.2c-1.7-6.6-3.2-10.7-1.6-11.4c1.8-0.6,5.1,4,6.7,6.1c1.9,2.6,4.1,5.4,6.5,8.2c-0.8-5-3-13.2-1.6-22.1
				c5.3-33.7,58.6-51.6,75-57c79-26,197-95,254-149c38-36,74-85,102-136c84-155,155-205,288-205c57,1,70,4,100,29c27,22,33,33,27,52
				c-7,27-304,365-345,391c-37,25-54,23-46-4c4-13,52-90,106-172c101-151,124-207,53-128C916,1095,760,1252,728,1275z M2947,1214
				c4,3-2,6-13,5c-11,0-14-3-6-6C2935,1210,2944,1211,2947,1214z M2000,1202c0,45-10,47-81,18c-26-10-81-26-124-35
				c-42-8-91-22-109-29c-35-15-240-197-250-222c-7-19-9-17,22-33c24-13,30-11,172,45c19,8,67,18,106,23s85,16,102,25
				C1922,1038,2000,1137,2000,1202z M1355,977c23,22,13,108-20,180c-28,62-58,72-76,26c-14-36-7-86,21-151
				C1307,970,1331,952,1355,977z M1290,731c11,24,20,61,20,82c0,34-12,48-24,28c-3-4-26-14-51-21c-24-7-50-19-56-26
				c-14-17-7-87,16-159c21-68,38-89,66-80c20,7,21,11,15,70C1271,675,1274,696,1290,731z M1296,198c7,71,7,72-17,72
				c-14,0-34-7-46-15c-15-10-29-12-44-7c-13,5-34,5-50-2c-22-8-36-6-62,6c-32,15-34,15-54-8c-18-20-25-22-54-14c-19,5-50,28-69,50
				c-42,47-58,54-174,70c-82,12-93,16-132,52c-26,24-67,83-105,151c-88,160-166,288-192,317c-62,69-77,59-77-53c0-95,19-166,72-269
				c64-124,82-140,278-237c123-60,176-92,178-105c4-17-1-18-46-14c-27,3-62,14-78,25c-18,13-51,22-87,25c-44,4-64,11-85,31
				c-33,31-106,61-128,53c-44-17,39-129,151-204l70-47l180-7c420-15,467-14,507,10C1284,110,1289,119,1296,198z M1148,478
				c14-14,47-6,47,12s-40,26-50,10C1141,493,1142,484,1148,478z M1116,571c47,163,30,193-117,204c-52,4-113,13-137,21
				c-55,18-114,18-159-1c-19-8-49-15-65-15c-50,0-197,83-242,137c-43,51-30,56,42,18c83-45,156-64,247-64c78-1,99,7,93,35
				c-2,14-15,21-50,25c-25,4-60,17-77,30c-25,18-47,23-118,27c-66,3-95,9-115,24c-28,20-37,51-18,63c6,4,58-8,115-25l104-32l36,29
				c54,43,47,72-25,97c-30,10-79,16-145,15c-153-1-208-34-221-133c-6-42-4-47,38-93c73-80,124-146,146-188c11-22,34-54,51-71
				c26-26,41-32,91-37c77-7,115-32,164-109c44-67,105-124,170-159c40-21,47-22,60-9c12,13,6,34-45,159c-63,153-70,185-42,179
				c12-2,28-33,50-92c50-134,87-164,89-70c1,53,36,144,55,144c12,0,11-7-7-155C1075,455,1088,474,1116,571z M719,460c18,0,17,4-7,55
				c-30,62-59,75-48,23C673,494,697,460,719,460z M612,487c19-7,20-4,14,25c-3,17-13,42-21,55c-17,25-49,45-59,36c-3-3-6-19-6-35
				C540,539,573,502,612,487z M519,1894c39,49,71,95,71,101c0,17-41,33-68,26c-49-13-118-87-159-173c-23-45-53-94-67-107
				c-39-37-34-81,14-106c25-13,29-12,53,13c14,15,38,56,55,92C434,1776,479,1845,519,1894z M420,1240c10,19,8,20-45,20
				c-48,0-55-2-55-20C320,1195,396,1195,420,1240z"/>
			<path d="M4580,495c0-16.5-0.9-22.1-20.4-24.1c-8.8-0.8-21.5-0.9-39.6-0.9c-56,0-60-1-51-19c16-29,39-33,62-10
				c9.1,9.1,20.2,14.1,29.4,14.9c11.1,0.9,19.6-4,19.6-14.9c0-16-51-51-75-51c-12,0-34,9-49,21c-35,27-37,101-4,136
				c13,14,33,23,50,23C4538,570,4580,530,4580,495z M4505,500c39,0,46,14,16,30c-24,13-24,13-39-2C4462,508,4468,500,4505,500z"/>
			<path d="M5270,500c0-24-0.6-28.8-28.4-29.8c-7-0.2-15.7-0.2-26.6-0.2c-57,0-66-8-39-34c16-17,48-8,56,16c1.5,4.1,5.3,6.1,10,6.6
				c11.4,1.1,28-7.3,28-18.6c0-21-41-50-70-50c-73,0-109,102-55,155C5192,593,5270,565,5270,500z M5195,500c37,0,43,8,23,28
				c-14,14-18,14-40,1C5149,513,5157,500,5195,500z"/>
			<path d="M5060,1867c47,24,100-10,100-64c0-33-1-33-45-33c-25,0-45-4-45-9c0-16,21-24,33-12c16,16,57,14,57-3c0-20-39-46-68-46
				c-38,0-61,18-73,59c-0.5,1.8-1,3.5-1.4,5.2c-4.7,18.1-4.7,35.3-0.5,50.8C5023.1,1837.2,5037.9,1855.7,5060,1867z M5110,1820
				c0,6-9,10-20,10s-20-4-20-10c0-5,9-10,20-10S5110,1815,5110,1820z"/>
			<path d="M4167,443c9-22-31-53-69-53c-36.9,0-64.1,27.9-74.3,61.9c-6,20.5-6,43.2,1.9,63.5c4.1,10.8,10.5,20.9,19.4,29.6
				c47,48,125,20,125-45c0-24.1-0.6-28.8-28.8-29.8c-6.9-0.2-15.5-0.2-26.2-0.2c-57,0-66-8-39-34c12-12,20-13,35-6c10,6,19,15,19,20
				c0,7,5,10.1,11.5,10.1C4150.7,460.1,4162.9,453.6,4167,443z M4095,500c37,0,43,8,23,28c-14,14-18,14-40,1
				C4049,513,4057,500,4095,500z"/>
			<path d="M2370,400c-14,0-41-3-62-6c-31-5-38-3-53,20c-23,34.5-9,66.6,29.4,79.8c11.7,4,25.7,6.2,41.6,6.2c27,0,33,24,9,34
				c-18,6-45-2-45-15c0-3.8-5.1-6.9-12.2-8.3c-2.4-0.5-5-0.7-7.8-0.7c-27,0-25,25,2,44c25,18,75,21,98,6c10-6,17-33,20-85
				C2395,400,2395,400,2370,400z M2296,426c20-8,54,11,54,29c0,17-27,19-52,4C2276,447,2275,434,2296,426z"/>
			<path d="M5670,2605v-105h-49c-46,0-49,1-55,31c-3,17-6,44-6,59c0,43-10,60-36,60c-66,0-119-284-83-450c11-54,50-110,76-110
				c25,0,78,64,92,111c14,48,37,79,58,79c24,0,17-109-12-166c-38-77-84-116-144-122c-64-6-92,2-132,35c-40,34-56,73-69,165
				c-12,81,1,232,26,320c29,101,101,181,191,214c50,17,78,17,113-1l30-16V2605z"/>
			<path d="M5640,1783l5-71l-59-6c-69-7-86,2-86,49c0,23,6,35,23,43l22,11l-22,7c-13,3-23,9-23,13c0,12,24,38,40,44c25,9,44,7,70-6
				C5632,1856,5636,1847,5640,1783z M5585,1820c3,6-3,10-14,10c-12,0-21-4-21-10c0-5,6-10,14-10S5582,1815,5585,1820z M5580,1755
				c15,18,12,23-12,17c-10-2-18-10-18-18C5550,1736,5564,1736,5580,1755z"/>
			<path d="M5486.1,1828.9c0.4-3.5-0.2-6.8-2.1-9.9c-7-13-38-11-51,2c-19,19-43,2-43-31c0-35,26-52,44-29c13,17,56,13,56-6
				s-49-55-75-55c-12,0-34,9-49,21c-22,17-26,29-26,68c0,48,13,70,50,84C5421.7,1885.3,5482.9,1854.2,5486.1,1828.9z"/>
			<path d="M5318,1763c4-43-32-68-86-60c-50,9-87,57-42,57c24,0,27,15,4,24c-25,10-14,68,16,83c41,21,110-3,110-39c0-11-42-10-60,1
				c-8,6-18,7-24,4c-5-3,11-13,35-22C5309,1797,5315,1790,5318,1763z M5262,1748c8,8,9,12,1,12c-6,0-20,3-30,6c-17,7-17,6-1-12
				C5246,1740,5253,1739,5262,1748z"/>
			<path d="M5270,2120c31-4,35-9,35-33c0-25-6-30-50-45c-28-10-65-28-83-41c-45-32-66-22-58,27c3,21,8,78,11,127l6,90l-50-96
				c-69-134-137-186-201-156c-41,19-60,71-60,162c0,138,50,280,151,434c74,113,119,146,183,138c30-4,49-2,62,8c10,8,26,13,34,12
				c18-3,18-5-5-302c-9-121-15-242-13-270C5235,2126,5236,2125,5270,2120z M4989,2148c82,69,183,374,157,476c-9,35-28,33-65-9
				c-83-95-165-358-140-449C4952,2125,4959,2123,4989,2148z"/>
			<path d="M5118,548c2-13-3-18-17-18c-27,0-41-29-41-84c0-34-4-46-15-46c-12,0-15,16-15,84v85l42-2C5104,565,5116,561,5118,548z"/>
			<path d="M5009.5,1762c0.3-1,0.5-2,0.5-3c0-19-49-59-73-59c-13,0-36,9-51,21c-22,17-26,29-26,68c0,48,13,70,50,84
				c36,14,110-28,94-54c-7-13-38-11-51,2c-19,19-43,2-43-31c0-35,26-52,44-29C4965.2,1775,5004.4,1775.1,5009.5,1762z"/>
			<path d="M5000,481c0-42-4-53-27-71c-19-15-36-20-55-16c-26,5-28,3-28-29c0-24-5-35-15-35c-12,0-15,20-15,119v118l50,2
				C4978,570,5000,548,5000,481z M4906,442c33-47,81,25,49,74c-19,30-30,30-49,2C4886,490,4886,470,4906,442z"/>
			<path d="M4923,2765v-70l-36-3l-37-3v45c0,75-2,76-96,76h-84v-359c0-402-8-363,75-376c56-8,69-18,62-47l-6-24h-198l-198,1v30
				c0,28,3,31,55,40c30,6,61,14,68,18c9,6,12,90,12,363v355l-102-3l-103-3l-3-57l-3-58h-39h-40v105v105h335h335l1-32
				C4922,2850,4922,2804,4923,2765z"/>
			<path d="M4840,1773c0-60-1-63-25-63c-22,0-24,4-27,58c-3,49-6,57-23,57s-20-8-23-57c-3-54-5-58-27-58c-24,0-25,2-25,79v80l43,4
				C4822,1880,4840,1863,4840,1773z"/>
			<path d="M4830,463c0-56-2-63-20-63s-20,7-20,64c0,47-4,65-15,70c-27,10-45-22-45-80c0-41-4-54-15-54c-12,0-15,13-15,59
				c0,67-17,93-44,66c-11-11-16-34-16-71c0-47-2-54-20-54c-13.9,0-18.3,4.2-19.6,41.9c-0.3,11-0.4,24.8-0.4,42.1v11v73l55,1
				c30,0,57-4,60-9c4-7,13-6,25,0C4797,590,4830,555,4830,463z"/>
			<path d="M4730,1460c17-32-4-60-43-60c-55,0-79,46-34,68C4688,1485,4718,1482,4730,1460z"/>
			<path d="M4662,1779l4-67l-52-6c-64-7-82-1-91,32c-8,35,7,55,50,66c21,5,37,13,37,18c0,11-38,10-42-2c-1-5-13-7-25-4
				c-19,5-21,9-12,26c6,10,20,23,32,28c25,11,67,4,83-13C4653,1850,4660,1815,4662,1779z M4602,1748c6,6,9,14,7,19c-5,11-39,5-39-7
				C4570,1745,4591,1737,4602,1748z"/>
			<path d="M4578,1380c20,0,23-4,20-27c-3-24-13-32-78-60c-93-40-272-71-326-57c-44,11-67,39-44,54c8,5,49,10,90,10
				c77,0,234,35,288,65C4543,1373,4565,1379,4578,1380z"/>
			<path d="M4508,1871c20-12,10-46-13-46c-17,0-20-8-23-57c-3-54-5-58-27-58c-24,0-25,2-25,79v80l33,4c17,2,34,4,37,5
				S4501,1876,4508,1871z"/>
			<path d="M4393,487c11-4,17-17,17-36c0-35-31-61-72-61c-28,0-68,30-68,50c0,10.6,7.4,15.9,17.4,15.9c9.6,0,21.7-5,31.6-14.9
				c11-11,27-18,36-15c26,10,16,32-17,39c-13.5,3-28.7,8.2-38,12.8c-3,1.5-5.5,3-7,4.2c-19,15-16,65,5,77c28,17,71,12,92-9
				c11-11,20-24,20-30c0-5-9-10-20-10c-2.8,0-5.4,0.2-7.8,0.7c-7.1,1.4-12.2,4.5-12.2,8.3c0,14-30,22-48,12
				c-15.6-9.2-5.1-16.7,53.9-37.9C4381.2,491.2,4386.9,489.1,4393,487z"/>
			<path d="M4400,1910c0-18-7-20-55-20c-52,0-55-1-55-25c0-23,4-25,45-25c38,0,45-3,45-20s-7-20-45-20h-45v-45c0-41-2-45-25-45h-25
				v110v110h80C4393,1930,4400,1928,4400,1910z"/>
			<path d="M4194,1414c22-9,20-40-4-62c-12-11-60-31-108-44c-225-66-442-59-442,14c0,20,4,20,83,16c45-3,116-1,157,4
				c75,9,251,52,280,69C4179,1421,4175,1421,4194,1414z"/>
			<path d="M4140,1750c0-5-9-19-20-30c-47-47-130-6-130,65c0,45,15,73,43,85c50,21,107-17,107-71c0-28-1-29-52-29c-49,0-51-1-35-17
				c13-13,20-14,29-5C4096,1762,4140,1764,4140,1750z M4065,1810c15,0,24,4,20,10c-3,6-12,10-20,10s-17-4-20-10
				C4041,1814,4050,1810,4065,1810z"/>
			<path d="M4010,525c0-3-0.5-5.5-1.3-7.8c-5.5-14.3-27.1-13.5-42.7,3.8c-26,31-56,9-56-41c0-51,30-72,57-40c10,11,23,20,30,20
				c6.6,0,10.5-3.7,12-9.3c3.5-12.4-4.5-33.7-21-44.7c-78-55-159,59-97,138c14,18,30,26,51,26C3975,570,4010,546,4010,525z"/>
			<path d="M3903,2193c33,106,84,116,72,14c-8-72-31-122-83-177c-32-33-46-40-78-41c-163-5-215,69-215,306c0,178,37,304,113,391
				c18,20,41,40,52,44c12,5,35,9,53,9c88,2,127-58,127-194c0-150-2-152-168-191l-78-18l5-62C3722,2074,3849,2022,3903,2193z
				 M3845,2528c7,68-4,119-28,134c-15,10-18,10-39-2c-23-14-55-104-64-180l-7-63l47,5C3821,2430,3837,2449,3845,2528z"/>
			<path d="M3851,1870c23,0,49-42,49-80c0-77-75-116-134-69c-21,16-26,29-26,63c0,48,20,83,53,89c12,2,28,3,35,1
				C3836,1872,3846,1870,3851,1870z M3818,1752c26-4,37,17,28,53c-4,16-13,25-27,25C3780,1830,3779,1757,3818,1752z"/>
			<path d="M3840,475c0-60-3-75-15-75s-15,13-15,59c0,42-5,62-16,72c-26,21-54-21-54-82c0-37-4-49-15-49c-12,0-15,16-15,83v84l47,1
				C3833,569,3840,561,3840,475z"/>
			<path d="M3720,1930v-110c0-109,0-110-24-110c-13,0-37-3-54-6c-44-9-82,30-82,84c0,55,27,86,74,85c33-1,36,1,36,28
				c0,24,4,29,25,29H3720z M3640,1750c21,0,34,31,25,60c-3,11-15,20-25,20c-21,0-34-31-25-60C3618,1759,3630,1750,3640,1750z"/>
			<path d="M3660,570c18,0,20-7,20-85s-2-85-20-85s-20,7-20,85S3642,570,3660,570z"/>
			<path d="M3660,630c13,0,20-7,20-20s-7-20-20-20s-20,7-20,20S3647,630,3660,630z"/>
			<path d="M3603,568c23,5,21-11-9-96c-23-61-30-72-47-70c-16,2-28,22-48,78c-16,41-28,78-28,83c-1,4,8,7,18,7c15,0,24-13,37-55
				c10-30,20-52,23-49s13,26,22,52C3580,545,3594,566,3603,568z"/>
			<path d="M3548,1871c20-12,10-46-13-46c-17,0-20-8-23-57c-3-54-5-58-27-58c-24,0-25,2-25,79v80l33,4c17,2,34,4,37,5
				S3541,1876,3548,1871z"/>
			<path d="M3432,1780l3-68l-53-6c-30-4-61-2-72,4c-14.4,7.7-20.9,24.5-19.7,41.9c1,16.2,8.7,32.9,22.7,43.1l22,15l-22,6
				c-13,4-23,9-23,13c0,14,26,39,45,44c25,6,66-1,82-14C3423,1853,3430,1818,3432,1780z M3372,1748c6,6,9,14,7,19c-5,11-39,5-39-7
				C3340,1745,3361,1737,3372,1748z M3380,1820c0,6-9,10-20,10s-20-4-20-10c0-5,9-10,20-10S3380,1815,3380,1820z"/>
			<path d="M3372,473c3-72,3-73-22-73c-14,0-39-2-57-6c-28.3-5.7-51.6,7.5-62.4,27.1c-10.1,18.4-9,42.5,9.4,61.9
				c2,2.5,8.5,5.2,17.4,7.8c8.8,2.4,20.1,4.7,31.6,6.2c41,6,55,25,26,37c-18,6-45-2-45-15c0-4.2-6.5-7.8-15.2-8.7
				c-1.5-0.2-3.1-0.3-4.8-0.3c-23.5,0-25,18.9-7.2,36.4c2.6,2.6,5.7,5.1,9.2,7.6c27,19,78,21,100,4C3364,548,3370,525,3372,473z
				 M3309,429c11,7,21,18,21,26c0,17-14,18-49,4c-22-9-23-11-9-25C3284,421,3292,420,3309,429z"/>
			<path d="M3320,611c14-27,13-31-6-31c-16,0-43,27-44,43C3270,639,3310,629,3320,611z"/>
			<path d="M3297,2280c9,0,13-16,13-58c0-69-31-140-85-192c-30-29-43-34-93-38c-69-5-109,12-145,60c-31,43-36,58-47,147
				c-11,83,1,221,26,311c29,103,100,183,191,216c50,17,78,17,113-1l30-16v-104v-105h-49c-46,0-49,1-55,31c-3,17-6,46-6,63
				c0,44-13,60-42,53c-26-7-47-45-68-122c-18-65-24-253-11-318c13-60,51-117,78-117c25,0,78,63,93,111
				C3255,2250,3277,2280,3297,2280z"/>
			<path d="M3277.4,1827.8c0.2-2.5-0.2-4.8-1.4-6.8c-9-14-39-14-53,0c-21,21-45,2-41-33c2-25,8-34,26-36c14-2,22,2,22,11
				c0,10,8,13,25,9c15.9-2.7,24-9.5,24-19.4c0-8.8-6.3-19.9-19-32.6c-40.8-40.8-108.7-15.3-125.9,38.6c-2.7,8.2-4.1,17-4.1,26.4
				c0,14.1,1.5,26.5,4.4,37.3c6.2,23.6,19.4,39.5,38.6,47.7c12,5,33,7,47,4C3246.9,1868,3275.9,1843.9,3277.4,1827.8z"/>
			<path d="M3218.8,417.8c0.8-2.4,1.2-5,1.2-7.8c0-13-7-20-19-20c-36,0-51,27-51,91c0,33-4,59-10,59c-5,0-10,7-10,15s5,15,10,15
				c6,0,10,9,10,19c0,11,6,22,13,24c23,10,27,7,27-18c0-16,6-25,15-25c8,0,15-7,15-15c0-3-1-5.9-2.6-8.3c-2.8-4-7.4-6.7-12.4-6.7
				c-12,0-15-13-15-55s3-55,15-55C3211,430,3216.4,424.9,3218.8,417.8z"/>
			<path d="M3118.6,1756.2c2-9.3-4.1-21.7-18.6-36.2c-47-47-130-6-130,65c0,45,15,73,43,85c12,5,33,7,47,4
				c29.3-6.6,61.2-34.6,57.1-50.4c-0.2-0.9-0.6-1.8-1.1-2.6c-9-14-39-14-53,0c-21,21-45,2-41-33c2-25,8-34,26-36c14-2,22,2,22,11
				c0,10,8,13,25,9C3108.9,1769.6,3116.9,1764.1,3118.6,1756.2z"/>
			<path d="M3100,570c18,0,20-7,20-85s-2-85-20-85s-20,7-20,85S3082,570,3100,570z"/>
			<path d="M3100,630c13,0,20-7,20-20s-7-20-20-20s-20,7-20,20S3087,630,3100,630z"/>
			<path d="M3030,630c19,0,20-7,20-115s-1-115-20-115s-20,7-20,115S3011,630,3030,630z"/>
			<path d="M2982,472c3-68,2-73-17-71c-11,1-33-1-48-6c-43-12-77,8-77,44c0,21.9,12.1,40.2,31.2,50.9c11.5,6.4,25.4,10.1,40.8,10.1
				c30,0,39,24,13,34c-18,6-45-2-45-15c0-5-9-9-20-9c-27,0-25,25,2,44s78,21,100,4C2974,549,2979,524,2982,472z M2919,429
				c11,7,21,18,21,26c0,17-14,18-49,4c-22-9-23-11-9-25C2894,421,2902,420,2919,429z"/>
			<path d="M2925,1870c25,0,25-1,25-80s0-80-25-80s-25,1-25,80S2900,1870,2925,1870z"/>
			<path d="M2925,1930c20,0,25-5,25-25s-5-25-25-25s-25,5-25,25S2905,1930,2925,1930z"/>
			<path d="M2900,2120c31-4,35-9,35-33c0-25-6-30-50-45c-28-10-65-28-83-41c-43-30-66-22-58,22c3,17,8,75,11,127l6,95l-50-96
				c-69-134-136-187-199-157c-43,21-62,71-62,163c0,138,50,280,151,434c74,113,119,146,183,138c30-4,49-2,62,8c21,16,40,19,48,7
				c2-4-4-118-15-252c-11-135-18-272-17-305l3-60L2900,2120z M2631,2161c86,92,175,388,143,473c-10,25-29,19-65-21
				c-80-92-162-360-137-450C2583,2122,2594,2122,2631,2161z"/>
			<path d="M2860,1759l30-44l-32-3c-22-3-34,2-42,15c-5,10-23,32-40,48l-31,30l-3-47c-3-43-5-48-28-48h-24v110v110h72
				c52,0,76-4,90-17c25-22,24-78-2-96C2831,1804,2832,1803,2860,1759z M2774,1840c41,0,56,18,31,37c-11,7-29,13-42,13
				c-18,0-23-6-23-25C2740,1843,2744,1840,2774,1840z"/>
			<path d="M2790,570c18,0,20-7,20-86c0-75-2-85-17-83c-10,1-26-2-37-6c-28-12-69,7-77,35c-4,14-7,51-8,83c-1,50,1,57,19,57
				c17,0,19-8,22-67c3-65,4-68,28-68s25,3,28,68C2771,562,2773,570,2790,570z"/>
			<path d="M2640,567V448c0-98-3-118-15-118c-10,0-15,11-15,35c0,32-2,34-28,29c-19-4-36,1-55,16c-23,18-27,29-27,71
				c0,35,5,54,19,68c15,15,33,20,70,19L2640,567z M2593,441c21,26,22,48,1,77c-18,26-27,27-44,6c-20-23-16-75,6-91
				C2573,421,2577,422,2593,441z"/>
			<path d="M2555,1870c25,0,25-1,25-80s0-80-25-80s-25,1-25,80S2530,1870,2555,1870z"/>
			<path d="M2555,1930c20,0,25-5,25-25s-5-25-25-25s-25,5-25,25S2535,1930,2555,1930z"/>
			<path d="M2500,1819v-111l-25,4c-14,3-28,1-31-3c-10-16-54-9-74,11c-14,14-20,33-20,68c0,26,4,52,8,58c13,20,52,35,72,29
				c17-5,20-2,20,24s4,31,25,31h25V1819z M2414,1751c19-16,38,10,34,46c-3,27-26,42-41,27C2395,1812,2399,1763,2414,1751z"/>
			<path d="M2411,2290c18,0,18-7,13-142c-4-79-9-146-13-150s-49-3-101,3c-59,7-189,9-342,6c-239-6-248-6-248,13c0,30,18,70,32,70
				c25,1,477,654,463,668c-8,9-351,15-381,8c-18-5-23-14-26-48c-4-51-31-74-54-43c-11,15-14,44-12,120l3,100l292,5
				c160,3,295,8,299,13c23,22,82-17,71-47c-3-8-66-97-139-198c-128-177-369-530-364-535c1-1,96-3,211-4c238-1,230-4,241,83
				C2363,2265,2381,2290,2411,2290z"/>
			<path d="M2175,430c42,0,55-3,55-15s-15-15-75-15h-75v115c0,108,1,115,20,115s20-7,20-100V430H2175z"/>
			<path d="M1473,1885c28-66,26-85-10-85c-20,0-29,10-50,56s-25,67-21,123c2,42,10,78,21,94c10,15,24,27,32,27c13,0,14-12,9-77
				C1448,1954,1450,1938,1473,1885z"/>
			<path class="st0" d="M1335,1157c33-72,43-158,20-180c-24-25-48-7-75,55c-28,65-35,115-21,151C1277,1229,1307,1219,1335,1157z"/>
			<path class="st0" d="M1310,813c0-21-9-58-20-82c-16-35-19-56-14-106c6-59,5-63-15-70c-28-9-45,12-66,80c-23,72-30,142-16,159
				c6,7,32,19,56,26c25,7,48,17,51,21C1298,861,1310,847,1310,813z"/>
			<path class="st0" d="M1279,270c24,0,24-1,17-72c-7-79-12-88-64-120c-40-24-87-25-507-10l-180,7l-70,47c-112,75-195,187-151,204
				c22,8,95-22,128-53c21-20,41-27,85-31c36-3,69-12,87-25c16-11,51-22,78-25c45-4,50-3,46,14c-2,13-55,45-178,105
				c-196,97-214,113-278,237c-53,103-72,174-72,269c0,112,15,122,77,53c26-29,104-157,192-317c38-68,79-127,105-151
				c39-36,50-40,132-52c116-16,132-23,174-70c19-22,50-45,69-50c29-8,36-6,54,14c20,23,22,23,54,8c26-12,40-14,62-6c16,7,37,7,50,2
				c15-5,29-3,44,7C1245,263,1265,270,1279,270z"/>
			<path class="st0" d="M999,775c147-11,164-41,117-204c-28-97-41-116-32-46c18,148,19,155,7,155c-19,0-54-91-55-144
				c-2-94-39-64-89,70c-22,59-38,90-50,92c-28,6-21-26,42-179c51-125,57-146,45-159c-13-13-20-12-60,9c-65,35-126,92-170,159
				c-49,77-87,102-164,109c-50,5-65,11-91,37c-17,17-40,49-51,71c-22,42-73,108-146,188c-42,46-44,51-38,93c13,99,68,132,221,133
				c66,1,115-5,145-15c72-25,79-54,25-97l-36-29l-104,32c-57,17-109,29-115,25c-19-12-10-43,18-63c20-15,49-21,115-24
				c71-4,93-9,118-27c17-13,52-26,77-30c35-4,48-11,50-25c6-28-15-36-93-35c-91,0-164,19-247,64c-72,38-85,33-42-18
				c45-54,192-137,242-137c16,0,46,7,65,15c45,19,104,19,159,1C886,788,947,779,999,775z"/>
			<path class="st0" d="M712,515c24-51,25-55,7-55c-22,0-46,34-55,78C653,590,682,577,712,515z"/>
			<path class="st0" d="M626,512c6-29,5-32-14-25c-39,15-72,52-72,81c0,16,3,32,6,35c10,9,42-11,59-36C613,554,623,529,626,512z"/>
			<path class="st0" d="M590,1995c0-6-32-52-71-101c-40-49-85-118-101-154c-17-36-41-77-55-92c-24-25-28-26-53-13
				c-48,25-53,69-14,106c14,13,44,62,67,107c41,86,110,160,159,173C549,2028,590,2012,590,1995z"/>
			<path class="st0" d="M449,2188c55-12,71-32,41-48c-15-8-20-21-20-50c0-28-4-40-14-40c-25,0-74-49-81-80c-10-46-36-55-91-30
				c-56,24-54,24-54,3c1-10,14-34,30-53c37-42,38-78,4-115c-26-28-47-29-132-8c-36,9-27-21,15-48c46-30,50-59,10-74
				c-26-9-32-6-62,27c-40,43-55,92-55,173c1,70,15,114,61,191c37,62,93,105,179,141C342,2203,377,2205,449,2188z"/>
			<path class="st0" d="M375,1260c53,0,55-1,45-20c-24-45-100-45-100,0C320,1258,327,1260,375,1260z"/>
		</g>
		<g>
		</g>
	</g>
</g>
<path class="st1" d="M34.4,149"/>
</svg>
